<svg id="Layer_1" data-name="Layer 1" xmlns="http://www.w3.org/2000/svg" viewBox="0 0 991.77 127.81"><defs><style>.cls-1{opacity:0.45;}.cls-2{font-size:72px;fill:#d1c9ac;font-family:Anton-Regular, Anton;}.cls-3{fill:none;}.cls-4{opacity:0.8;}.cls-5{fill:#fff;opacity:0.2;}</style></defs><title>Untitled-3</title><rect class="cls-1" x="112.7" y="0.85" width="879.07" height="88.03"/><rect width="603.96" height="88.03"/><text class="cls-2" transform="translate(66.37 74.63)">FIND ME</text><rect class="cls-3" x="538.28" y="40.16" width="90.72" height="63.84" transform="translate(123.13 427.54) rotate(-45.83)"/><g class="cls-4"><path d="M568.45,50.86l.15.15c-.46-.25-.5.42-.66.26C568,51,568.14,50.76,568.45,50.86Z" transform="translate(-2.11 -12.93)"/><path d="M538.05,74.66l.41.4c-.19.73-1,.38-1.32.44-.26-.26-.88-.15-.63-.71S537.53,74.36,538.05,74.66Z" transform="translate(-2.11 -12.93)"/><path d="M549.76,73.11c.14-1,1.39.75,1.68-.79-.06-.36-.88-.25-.63-.81,1.92-2,2.28-5.47,2.7-8.29.21.61,1.29.75,1.3,1.57.13,1.33-1.43,3.45.73,3.83a7.81,7.81,0,0,1,3.8,4.81c2.84,1.14,3.65-2.92,6.59-2a1.87,1.87,0,0,1,.07,1.79c-.69,1.55-2.74,1.68-3.07,3.38.62.4,1.44.59,1.76,1.31.54,2.14,1.6,4.38,1.88,6.17-1,.17-2-.59-2.77-.17.32.72-.8,1.35.13,2-.14.77-1.12.73-1.73.74-.29,1,2.9,2.32,1,2.6-.4.72-.93-.5-1.24-.6a1.77,1.77,0,0,0,.1-.72c-2.27-.58-4-2.14-6.19-2.78-1.32,1.46-.36,3.6-1.21,5.4-.41-.4,0-1.43-.33-2l-1.25-1.11c-1.67,1.2-2.72-.53-4.21-.15.15-.36.76-.78.86-1.29,1-.94-.89-1.37-.34-2.35-.63-.61-1.75-.18-2.57-.37-.55.77-1.53.63-1.93,1.46-.76.47-.42-.82-.88-1,1.47-1,3.51-1.54,4.46-3.14-.93-.71,1-.78-.07-1.39l-1,0a.56.56,0,0,0,0-.87,8.28,8.28,0,0,0-2-.13c.2-.31.75-.68.59-1.24l-1.13-.59a3.82,3.82,0,0,0,3.21-.92c-.06-.56-1-.45-.93-.71.26,0,.87.25,1.13,0a5.68,5.68,0,0,0-2.92-3.24c.41.2.15-.36.3-.52A27.91,27.91,0,0,0,549.76,73.11Z" transform="translate(-2.11 -12.93)"/><path d="M575.17,48.1c1.84-.44,2.73.72,3.87,2-.14,1,.29,2.2-.16,3-1.28-.34-1.51,2.07-2.6.7-.55,1.19-1.54-.18-2.21-.53a3.14,3.14,0,0,1-.86-2.45c.2-.52.6-.93.44-1.6C574.16,48.93,575.34,49.07,575.17,48.1Z" transform="translate(-2.11 -12.93)"/><path class="cls-5" d="M574.94,49.79c0,.56-.46.26-.67.06C574.58,49.44,574.69,50.36,574.94,49.79Z" transform="translate(-2.11 -12.93)"/><path class="cls-5" d="M575,50.51c-.66.78.47.86.74,1.63-.16-.57-.06-.46.35-.78.26.56-.45.78.32.92-.05-.05.66-.47.14-.87.92,0,.23,1.63.74,1.62-.36-.45-.72-.39-1.19-.64-.36,0-.35.46-.6.62,0-.56-.22-.71-.89-.86.11.1.42.1.46-.06-.15.06-.31-.2-.41-.3s.1.1.26.05c.24-.87-.57-.45-.93-.5.1-.1.61,0,.71-.52s-.37-.25-.47-.45Z" transform="translate(-2.11 -12.93)"/><path class="cls-5" d="M575.41,50.35c-.16-.15-.06-.36-.21-.41.57.45.6-.73.82.09-.11-.61.76-.78.55-1.19l.57.46c-.1.1-.16.05-.31,0-.05.46.82.4.87,0l0,1c.06.16.05-.56-.31-.3-.24.88.77.35,1,.5-.45.57-.8,1.34-.07,1.84-.57-.45-.68-.55-1.3-1.05-.06-.67.77.34.61-.42l-.36-.15c.1,0,.15.05.2,0-.46-.15-.52-.71-1.08-.45.16.56-.15.47-.24,1,.81-.73-.63-1.12-1.25-1C575.2,50.14,575.05,50.71,575.41,50.35Z" transform="translate(-2.11 -12.93)"/><path d="M576.37,49.36l0,.36Z" transform="translate(-2.11 -12.93)"/><polygon points="573.68 39.52 573.06 39.22 573.22 39.06 573.68 39.52"/><path d="M543.27,85.09l.67.15Z" transform="translate(-2.11 -12.93)"/><path class="cls-5" d="M576.11,52.85c-.09,1,.09-.72.62.3-.61,0-.4.82-.92,0Z" transform="translate(-2.11 -12.93)"/><path d="M546.81,85.6c.52.2.07,1.28-.39.83S546.25,85.36,546.81,85.6Z" transform="translate(-2.11 -12.93)"/><path d="M596.11,36.21c.82,0,1.72-1.25,2.4-.8-.15.46.16.77.62.81.46-.16.56-.78,1.12-.73.9,1.67,1.5.74,2.8,2,.71-.12.9-1,1.2-1.66.37.25-.2.41-.14.67,1.47-1.2,1.95-3.16,3.31-4.56-.14.36.58.66.63.61l-1.85,3.35c1.53,3.11,4.12,4.61,7.31,5.89.88.45,1.57-1.4,2-.08-.54,1.8-3.36,1.28-3.55,3a36.21,36.21,0,0,1,.76,5.88c-.4,1.23-2-.74-2,1,.26.25.72.4.78.86-.61.32-1.55-.8-2,.24,0,.56.93.7.32,1.32-.71.32-.88-1.06-1.69-.43-1.64.23.07,1.38-.64,2-.46,0-.88-.55-1.09-1a5.19,5.19,0,0,0-2.35.54,2.49,2.49,0,0,1,.17,1.49c-.82-.5-1.4-1.78-2.59-2-1.07.06.12,1.22-.95,1.19-.32-.51-.08-1.49-.7-1.89l-1.48.38c-2.23-2.07-2.83-4.88-5.37-6.63a11.72,11.72,0,0,0-1.71-4.9c.71-.21,1.33-.32,1.57-1.1-.16-.46-.27-1-.43-1.43.25-.36.77-.16.92-.62l-.33-1.13c.77-.26,1.64-.22,2.09-.9.56-.47,0-1-.13-1.53C595.39,35.92,595.8,36.11,596.11,36.21Z" transform="translate(-2.11 -12.93)"/><path d="M542.84,94.27a1.06,1.06,0,0,1-.55.88C542,94.85,542.38,94.22,542.84,94.27Z" transform="translate(-2.11 -12.93)"/><path d="M590.57,53.77c.3-.83,1.08,0,1.43-.54.94.81,2.15-.34,2.83,1,1.45.8-.28,1.95,1.07,2.85-.91,1.14-1,3.45-3.38,3.48-1.17.58-1.41-1.46-2.36-.17a1.76,1.76,0,0,0-.38-1.37c-.26-.26-.92,0-1-.4.09-.72.49-1.65-.44-1.94.77-.27.65-1,.34-1.59C590.14,55.67,589.08,53.33,590.57,53.77Z" transform="translate(-2.11 -12.93)"/><rect class="cls-5" x="590.05" y="55.59" width="0.07" height="0.36" transform="translate(136.79 427.22) rotate(-45.83)"/><path class="cls-5" d="M590.05,56.59c1,.14-.25.36.37.87-.47-.87-.09.41-.76.16-.12-.61.4-.11.55-.57l-.57-.66.46.15Z" transform="translate(-2.11 -12.93)"/><polygon class="cls-5" points="589.35 42.42 589 42.47 589.15 42.32 589.35 42.42"/><path class="cls-5" d="M593,54.86c.15.25,0,.2-.26.26Z" transform="translate(-2.11 -12.93)"/><polygon class="cls-5" points="588.32 45.25 588.57 44.78 588.52 45.24 588.32 45.25"/><polygon class="cls-5" points="589.45 45.33 588.93 45.24 589.35 45.23 589.45 45.33"/><path class="cls-5" d="M591.57,58.67l.36,0Z" transform="translate(-2.11 -12.93)"/><path class="cls-5" d="M592.73,57.58l.06.46Z" transform="translate(-2.11 -12.93)"/><path class="cls-5" d="M593.05,58.19l.41.09Z" transform="translate(-2.11 -12.93)"/><path d="M594.47,78.46c-.15.46-.09,1.23-.76,1.09a.75.75,0,0,1-.42-1.13C593.64,78.06,594.31,78,594.47,78.46Z" transform="translate(-2.11 -12.93)"/><path d="M597.67,80.26c1.61,1.36,3.47-.77,5.43-.18.87.34-.19,1.23.54,1.73.3-.31.76-.47,1-.78.11.41-.55,1.19.23,1.53a5.25,5.25,0,0,0,2.36.28c1,1.37-1.53,4.48,1.59,4.17-.5.32-1.33,0-1.58.59,0,.87,2.38,1.09,1.06,2.14-.31,0-.67.06-.56.47,0,1,1.55.69,1.36,1.51-1.23.12-2.14,1.16-3.38.57-.86.26-.49,1.44-.79,1.85-.86,1-1.85-.69-2.87,0a3.57,3.57,0,0,1-1.34,2.74c-.28-1.28-1.39-.44-2-.38-.33-2.05-2.87-.58-3.31-2.21-.2.31-.24.87-.7.73-.17-.77,1.16-1.2.17-2-.51-.2-.37-1.18-1.14-1.11-.36,0-.6.83-.92.32.45-1.08-.19-2.51-.41-3.74-.06-.76,1.22-.53.65-1.39-.37-.25-1,.07-1.24-.49,1.2-1.76,3.64-3.54,3.8-6.21A2.11,2.11,0,0,1,597.67,80.26Z" transform="translate(-2.11 -12.93)"/><path d="M583.09,65.55a2,2,0,0,1,1.41,1.57c.16.66-.66,1-.29,1.64-.51-.3-.76.58-1.22.53-.67,0-1.43,0-1.9-.64-.22-.81-.75-2,.11-2.61C581.76,65.47,582.48,65.66,583.09,65.55Z" transform="translate(-2.11 -12.93)"/><path class="cls-5" d="M581.89,67.51a.41.41,0,0,1-.77.07c.66-.37-.32-.72.34-1.08A1,1,0,0,1,581.89,67.51Z" transform="translate(-2.11 -12.93)"/><path class="cls-5" d="M582,66.59l.1.31Z" transform="translate(-2.11 -12.93)"/><path class="cls-5" d="M583.83,67.08l-.41-.1.05.15c.1-.1-.42-.5-.42-.81C583.31,66.57,584.49,66.4,583.83,67.08Z" transform="translate(-2.11 -12.93)"/><path class="cls-5" d="M582.93,68.63c-.1-.1-.32-1.23.39-1.34-1.12.53.67.55.43,1.22l-.37-.35c.32.92-.71.42-1.06.58,0,0,.1,0,.15,0a.47.47,0,0,0-.52-.41c-.05,0,0-.25-.15-.15C582.3,67.51,582.36,68.48,582.93,68.63Z" transform="translate(-2.11 -12.93)"/><path class="cls-5" d="M581.91,68.74l-.26.16c.1-.2-.26-.35,0-.51Z" transform="translate(-2.11 -12.93)"/></g><rect class="cls-3" x="584.12" y="54.04" width="90.72" height="63.84" transform="translate(127.07 464.62) rotate(-45.83)"/><g class="cls-4"><path d="M614.28,64.74l.16.15c-.47-.25-.51.41-.66.26C613.82,64.9,614,64.64,614.28,64.74Z" transform="translate(-2.11 -12.93)"/><path d="M583.88,88.54l.42.4c-.2.72-1,.38-1.33.43-.26-.25-.87-.14-.62-.7S583.36,88.24,583.88,88.54Z" transform="translate(-2.11 -12.93)"/><path d="M595.59,87c.14-1,1.4.75,1.68-.79,0-.36-.87-.25-.62-.82,1.91-2,2.27-5.46,2.7-8.28.21.61,1.29.75,1.3,1.57.12,1.33-1.44,3.45.72,3.83a7.79,7.79,0,0,1,3.81,4.81c2.83,1.14,3.65-2.92,6.58-2a1.84,1.84,0,0,1,.08,1.79c-.7,1.55-2.74,1.68-3.08,3.38.62.4,1.45.59,1.76,1.3.55,2.15,1.6,4.39,1.89,6.18-1,.17-2-.59-2.77-.17.31.72-.8,1.35.13,2-.15.77-1.12.73-1.73.74-.3,1,2.9,2.32,1,2.6-.4.72-.93-.5-1.24-.6a1.77,1.77,0,0,0,.09-.72c-2.26-.58-4-2.14-6.19-2.78-1.31,1.46-.36,3.59-1.2,5.4-.42-.4,0-1.43-.34-2l-1.25-1.11c-1.67,1.2-2.72-.53-4.2-.15.15-.36.76-.78.85-1.29,1-.94-.89-1.37-.34-2.35-.62-.61-1.74-.18-2.56-.38-.56.78-1.53.64-1.93,1.47-.76.47-.42-.82-.89-1,1.47-1,3.52-1.54,4.47-3.14-.94-.71,1-.79-.07-1.39l-1,0a.55.55,0,0,0,0-.87,8.25,8.25,0,0,0-2-.13c.2-.31.76-.68.6-1.24l-1.14-.6a3.8,3.8,0,0,0,3.22-.91c-.06-.57-1-.45-.94-.71.26,0,.88.25,1.13,0a5.7,5.7,0,0,0-2.91-3.24c.41.2.14-.36.3-.52A27.81,27.81,0,0,0,595.59,87Z" transform="translate(-2.11 -12.93)"/><path d="M621,62c1.84-.43,2.72.73,3.87,2-.14,1,.29,2.2-.16,3-1.29-.34-1.51,2.08-2.61.71-.54,1.18-1.54-.19-2.21-.53a3.17,3.17,0,0,1-.85-2.45c.19-.52.6-.93.44-1.6C620,62.81,621.17,63,621,62Z" transform="translate(-2.11 -12.93)"/><path class="cls-5" d="M620.77,63.67c0,.56-.45.26-.66.06C620.41,63.32,620.53,64.24,620.77,63.67Z" transform="translate(-2.11 -12.93)"/><path class="cls-5" d="M620.79,64.39c-.66.77.47.86.74,1.62-.17-.56-.06-.46.34-.77.27.56-.45.78.32.92-.05,0,.66-.47.15-.87.92,0,.22,1.63.74,1.62-.37-.45-.73-.39-1.19-.64-.36,0-.35.46-.61.62.05-.56-.21-.71-.88-.86.1.1.41.1.46-.06-.15.06-.31-.2-.41-.3s.1.1.25,0c.25-.88-.57-.45-.93-.5.1-.1.62,0,.71-.52s-.36-.25-.47-.46Z" transform="translate(-2.11 -12.93)"/><path class="cls-5" d="M621.24,64.23c-.15-.16,0-.36-.21-.41.57.45.61-.73.82.09-.11-.61.76-.78.55-1.19l.57.46c-.1.1-.15,0-.31,0,0,.46.83.4.87,0l0,1c0,.16,0-.56-.31-.3-.25.87.77.35,1,.5-.46.57-.8,1.34-.08,1.84-.57-.45-.67-.55-1.29-1-.06-.67.77.34.61-.42l-.37-.15c.11,0,.16,0,.21,0-.46-.15-.52-.71-1.08-.45.16.56-.15.46-.25,1,.81-.73-.63-1.12-1.24-1C621,64,620.89,64.59,621.24,64.23Z" transform="translate(-2.11 -12.93)"/><path d="M622.2,63.24l.06.36Z" transform="translate(-2.11 -12.93)"/><polygon points="619.52 53.39 618.9 53.1 619.05 52.94 619.52 53.39"/><path d="M589.11,99l.66.14Z" transform="translate(-2.11 -12.93)"/><path class="cls-5" d="M622,66.73c-.09,1,.09-.72.62.29-.62,0-.4.83-.93,0Z" transform="translate(-2.11 -12.93)"/><path d="M592.65,99.48c.51.2.07,1.28-.4.83C591.94,100,592.08,99.23,592.65,99.48Z" transform="translate(-2.11 -12.93)"/><path d="M642,50.09c.82,0,1.72-1.25,2.39-.8-.14.46.17.76.63.81.46-.16.55-.78,1.12-.73.89,1.67,1.49.74,2.79,2,.72-.11.91-1,1.21-1.65.36.25-.2.41-.15.67,1.47-1.2,2-3.16,3.32-4.56-.15.36.57.66.62.6L652,49.79c1.53,3.1,4.11,4.61,7.31,5.89.87.45,1.56-1.4,2-.08-.53,1.8-3.36,1.28-3.54,3a36.37,36.37,0,0,1,.75,5.89c-.39,1.23-2-.74-2,1,.26.25.72.4.78.86-.61.32-1.55-.8-2,.24,0,.56.93.7.33,1.32-.71.32-.89-1.06-1.7-.43-1.63.22.07,1.38-.64,2-.46,0-.87-.55-1.09-1a5.38,5.38,0,0,0-2.35.55,2.41,2.41,0,0,1,.18,1.49c-.83-.5-1.41-1.78-2.59-2-1.08.07.12,1.23-1,1.2-.31-.51-.07-1.49-.69-1.89l-1.48.38c-2.23-2.07-2.84-4.88-5.38-6.63a11.4,11.4,0,0,0-1.71-4.9c.72-.21,1.33-.33,1.58-1.1-.16-.46-.27-1-.43-1.43.25-.36.76-.16.91-.62l-.32-1.13c.76-.26,1.63-.23,2.09-.9.55-.47,0-1-.13-1.53C641.22,49.79,641.64,50,642,50.09Z" transform="translate(-2.11 -12.93)"/><path d="M588.67,108.15a1,1,0,0,1-.55.88C587.81,108.72,588.21,108.1,588.67,108.15Z" transform="translate(-2.11 -12.93)"/><path d="M636.41,67.64c.3-.82,1.08,0,1.43-.53.93.81,2.14-.34,2.83,1,1.45.8-.28,1.95,1.07,2.85-.91,1.14-1,3.45-3.39,3.48-1.17.58-1.4-1.46-2.36-.17a1.76,1.76,0,0,0-.38-1.38c-.25-.25-.92,0-1-.39.1-.72.49-1.65-.43-1.94.76-.27.65-1,.33-1.6C636,69.55,634.92,67.2,636.41,67.64Z" transform="translate(-2.11 -12.93)"/><rect class="cls-5" x="635.89" y="69.47" width="0.07" height="0.36" transform="translate(140.73 464.3) rotate(-45.83)"/><path class="cls-5" d="M635.89,70.47c1,.14-.25.36.37.87-.48-.87-.1.41-.77.16-.11-.61.41-.11.56-.57l-.58-.66.47.15Z" transform="translate(-2.11 -12.93)"/><polygon class="cls-5" points="635.19 56.29 634.83 56.35 634.98 56.2 635.19 56.29"/><path class="cls-5" d="M638.78,68.74c.16.25,0,.2-.25.26Z" transform="translate(-2.11 -12.93)"/><polygon class="cls-5" points="634.15 59.13 634.4 58.66 634.36 59.12 634.15 59.13"/><polygon class="cls-5" points="635.28 59.21 634.77 59.12 635.18 59.11 635.28 59.21"/><path class="cls-5" d="M637.4,72.55l.36,0Z" transform="translate(-2.11 -12.93)"/><path class="cls-5" d="M638.57,71.46l0,.46Z" transform="translate(-2.11 -12.93)"/><path class="cls-5" d="M638.88,72.07l.41.09Z" transform="translate(-2.11 -12.93)"/><path d="M640.3,92.34c-.15.46-.08,1.23-.75,1.08a.74.74,0,0,1-.43-1.12C639.48,91.94,640.14,91.88,640.3,92.34Z" transform="translate(-2.11 -12.93)"/><path d="M643.51,94.14c1.6,1.36,3.47-.77,5.42-.18.88.34-.18,1.23.54,1.73.3-.31.76-.47,1-.78.11.41-.54,1.18.23,1.53a5.39,5.39,0,0,0,2.36.28c1,1.36-1.52,4.47,1.6,4.17-.51.32-1.33,0-1.58.59,0,.87,2.37,1.09,1.06,2.14-.31,0-.67.06-.56.47,0,1,1.54.69,1.35,1.51-1.23.12-2.13,1.16-3.37.57-.87.26-.49,1.44-.8,1.85-.85,1-1.85-.69-2.86,0a3.55,3.55,0,0,1-1.35,2.74c-.27-1.28-1.39-.44-2-.38-.34-2-2.88-.58-3.31-2.21-.2.31-.25.87-.71.73-.16-.77,1.16-1.2.18-2-.52-.2-.38-1.18-1.15-1.11-.35,0-.6.82-.91.32.44-1.09-.19-2.51-.42-3.74-.06-.77,1.23-.53.65-1.39-.36-.25-1,.07-1.24-.5,1.21-1.76,3.64-3.53,3.81-6.2A2.11,2.11,0,0,1,643.51,94.14Z" transform="translate(-2.11 -12.93)"/><path d="M628.93,79.43a2,2,0,0,1,1.4,1.57c.16.66-.65,1-.28,1.64-.52-.3-.76.58-1.22.53-.67,0-1.44,0-1.91-.64-.22-.81-.75-2,.12-2.61C627.59,79.35,628.31,79.54,628.93,79.43Z" transform="translate(-2.11 -12.93)"/><path class="cls-5" d="M627.72,81.39a.4.4,0,0,1-.76.07c.66-.37-.32-.72.34-1.09A1.06,1.06,0,0,1,627.72,81.39Z" transform="translate(-2.11 -12.93)"/><path class="cls-5" d="M627.81,80.47l.11.31Z" transform="translate(-2.11 -12.93)"/><path class="cls-5" d="M629.67,81l-.42-.1.06.15c.1-.1-.42-.5-.42-.81C629.15,80.45,630.32,80.28,629.67,81Z" transform="translate(-2.11 -12.93)"/><path class="cls-5" d="M628.76,82.51c-.1-.1-.32-1.23.4-1.34-1.12.53.67.55.42,1.22l-.36-.35c.32.92-.71.42-1.07.58.05-.05.1,0,.15-.06a.46.46,0,0,0-.51-.4c-.06,0,0-.26-.16-.15C628.13,81.39,628.2,82.36,628.76,82.51Z" transform="translate(-2.11 -12.93)"/><path class="cls-5" d="M627.74,82.62l-.25.16c.1-.21-.26-.35,0-.51Z" transform="translate(-2.11 -12.93)"/></g></svg>