
<svg id="Layer_1" data-name="Layer 1" xmlns="http://www.w3.org/2000/svg" viewBox="0 0 24.3 23.92"><defs><style>.cls-1{fill:#fff;}.cls-2{fill:none;stroke:#000;stroke-linecap:round;stroke-linejoin:round;stroke-width:0;}</style></defs><title>hamburguer</title><path class="cls-1" d="M1.11,6.45C1,6,.92,5.15,1.15,5.17c-.23,0-.23,0-.39-.63.15,0,.11-.5.1-.91A6.18,6.18,0,0,0,.7,5.13C1,5.85.53,7.33.89,8A4.47,4.47,0,0,0,1.11,6.45Z" transform="translate(-0.27 -0.44)"/><path class="cls-1" d="M2.1,3.25,2,3.12l.14,1.24C2.08,4.11,2,3.26,2.1,3.25Z" transform="translate(-0.27 -0.44)"/><path d="M4.79,1.86c-.12.16.52.26.5.41,0-.33,1-.07,1.54-.11l.22-.25a15.05,15.05,0,0,0-3-.13Z" transform="translate(-0.27 -0.44)"/><path class="cls-1" d="M5.8,2.05l.36-.17C5.86,1.93,5.17,2,5.8,2.05Z" transform="translate(-0.27 -0.44)"/><path class="cls-1" d="M5,1.15c-.88,0,.53.11-.36.17C5,1.27,5.33,1.26,5,1.15Z" transform="translate(-0.27 -0.44)"/><polygon points="8.47 1.23 6.59 1.35 7.37 1.46 8.47 1.23"/><path d="M8.85,2.21c-.25,0-.64-.1-.28-.19.67.21,1.09-.08,1.71.09l-.6.09c.09.21,1.25-.22,1.22.16.81-.27-.61-.32.44-.51a15.12,15.12,0,0,1-2.56-.08,5.53,5.53,0,0,0,.68.13c-.59,0-1.39.12-2.08.15C7.76,2.29,8.27,2.07,8.85,2.21Z" transform="translate(-0.27 -0.44)"/><path d="M11.85,2.26c.64,0,1.62,0,1.79-.26a1.12,1.12,0,0,0-1.09.16c-.2-.05-.84-.07-.58-.22C12.07,2,11.56,2.15,11.85,2.26Z" transform="translate(-0.27 -0.44)"/><path d="M14.36,2.31l.46-.25-.3,0,0-.18a1.1,1.1,0,0,1-.92.35C13.9,2.41,14,2.25,14.36,2.31Z" transform="translate(-0.27 -0.44)"/><path d="M14.51,1.06a2.49,2.49,0,0,0,1.18,0,10.35,10.35,0,0,0-1.88.12l0,0a9,9,0,0,0-1.11.3C13.46,1.25,14.72,1.51,14.51,1.06Z" transform="translate(-0.27 -0.44)"/><path d="M13.62,1l.51-.15Z" transform="translate(-0.27 -0.44)"/><polygon points="16.06 1.81 15.08 1.73 15.32 1.81 16.06 1.81"/><path d="M15.16,1.49c.79,0-.42-.2.31-.2a3.9,3.9,0,0,0-1.14.13C14.52,1.47,15.08,1.28,15.16,1.49Z" transform="translate(-0.27 -0.44)"/><path d="M17,2.27l.8-.19Z" transform="translate(-0.27 -0.44)"/><path d="M19,2.39l.16-.13a9.79,9.79,0,0,1,2.4.21c-.14-.17.32-.34-.36-.39-.11.09-.36.08-.32.19-.29,0-.23-.15-.42-.2-.51.15-1.29,0-1.69.17a1,1,0,0,1,.39,0c-.86.23-1-.34-1.38.05C18.06,2.19,18.58,2.45,19,2.39Z" transform="translate(-0.27 -0.44)"/><path d="M18.91,1.47l-.69-.05c.22-.18.84,0,1-.17,0-.11-.72-.16-.47-.23-.08.42-.94,0-.58.49-.89.05-.28-.26-1.22-.23l-.26.22C17.68,1.39,17.86,1.58,18.91,1.47Z" transform="translate(-0.27 -0.44)"/><path d="M21.56,1.54l.34.14-.18-.2a4.23,4.23,0,0,1,.7,0,5.8,5.8,0,0,1,.71.12A4.37,4.37,0,0,1,24,2a3.48,3.48,0,0,0-.17,1.15c.27,1.06-.13,2.21-.09,3.36.17.58.1-.55.21-.61.33.16-.18.56.09.83.25.07.26-1.21.41-1.72,0-.44-.11-.43-.25-.57.14-.11.18-.55.31-.67a13.61,13.61,0,0,1,0-2.31,6,6,0,0,0-.79.06c-.25-.18.93,0,.55-.06h-.66l0,0a6.13,6.13,0,0,1-1.6.06A5.81,5.81,0,0,1,21,1.35c.34.07.57.22.17.27l-.33-.21L20,1.72C20.68,1.52,21.43,1.93,21.56,1.54Z" transform="translate(-0.27 -0.44)"/><path d="M20.61,1.15c-1-.11.12.32-1,.22l1.18,0Z" transform="translate(-0.27 -0.44)"/><path class="cls-1" d="M24.32,3.48c-.05.22-.1.38-.15.55C24.47,3.78,24.07,2.84,24.32,3.48Z" transform="translate(-0.27 -0.44)"/><polygon class="cls-1" points="24.05 4.96 23.77 4.69 23.93 5.17 24.05 4.96"/><path d="M24,7.1c.14.38.25-.07.22-.52C24.2,7,24.08,7.19,24,7.1Z" transform="translate(-0.27 -0.44)"/><path class="cls-1" d="M23.46,9.91c0-.86-.07.77-.31.15C23.26,10.17,23.42,10.61,23.46,9.91Z" transform="translate(-0.27 -0.44)"/><path d="M22.81,12.7c0-.31,0-.44.06-.48A1.32,1.32,0,0,1,22.81,12.7Z" transform="translate(-0.27 -0.44)"/><path d="M23.63,2.34h0Z" transform="translate(-0.27 -0.44)"/><path d="M23.65,2.47V2.34h0Z" transform="translate(-0.27 -0.44)"/><path d="M23.07,8.55h0l0-.07Z" transform="translate(-0.27 -0.44)"/><path d="M3.33,2.22a2.25,2.25,0,0,1-.34,0l.34,0Z" transform="translate(-0.27 -0.44)"/><path d="M2.73,1.84A1.31,1.31,0,0,1,3.6,2a1.91,1.91,0,0,0,1.11.16l-1.38.09C3,2.09,3.08,2.05,3.17,2S3.31,2,2.73,1.84Z" transform="translate(-0.27 -0.44)"/><path d="M12.36,1.52h0Z" transform="translate(-0.27 -0.44)"/><polygon class="cls-1" points="11.2 22.21 11.21 22.14 11.84 22.23 11.2 22.21"/><path class="cls-1" d="M11.38,22.51l-1.07-.14,6.36,0-.21.1C16.55,22.57,11.2,22.39,11.38,22.51Z" transform="translate(-0.27 -0.44)"/><path class="cls-1" d="M11.08,22.63c-.62.31-1-.11-1.79.11a2.88,2.88,0,0,1,1.36-.23Z" transform="translate(-0.27 -0.44)"/><path class="cls-2" d="M9,23.23c-.34-.06-.75.07-.94,0C8.14,23,8.67,23.2,9,23.23Z" transform="translate(-0.27 -0.44)"/><path d="M8,24.15H7.89l.16,0Z" transform="translate(-0.27 -0.44)"/><path d="M8.05,24.1V24C8.17,24,8.14,24.07,8.05,24.1Z" transform="translate(-0.27 -0.44)"/><path d="M7.89,24.15a2.49,2.49,0,0,0-.4.11l.15,0a1.72,1.72,0,0,1-.65,0c.4,0,.4,0,.42-.2l-.64,0C6.89,23.75,7.32,24.12,7.89,24.15Z" transform="translate(-0.27 -0.44)"/><path class="cls-2" d="M5.87,24.23l.66-.2C6.71,24.23,6.12,24.24,5.87,24.23Z" transform="translate(-0.27 -0.44)"/><path d="M4.9,24c.16-.06.8,0,.41-.13a1,1,0,0,1,.36,0C5.24,23.89,5.64,24.13,4.9,24Z" transform="translate(-0.27 -0.44)"/><path d="M5.67,23.84h0Z" transform="translate(-0.27 -0.44)"/><path class="cls-2" d="M12.53,22.94c-.08,0-.08-.05,0-.07Z" transform="translate(-0.27 -0.44)"/><path d="M3.52,23.78h0Z" transform="translate(-0.27 -0.44)"/><path d="M24,21.87a14.11,14.11,0,0,0-2.91,0c0,.26-.5.07-.57.34,1.28,0-4.84.16-3.81.28l.3-.12-.32.27a5.42,5.42,0,0,0-1.87-.13c-.12-.09,5.24,0,5-.09.48.31-7.18.3-7.37.44l-.09-.17c-1,.18-1.56.41-2.36.53L9.86,23a4.2,4.2,0,0,0,1.35-.16c-1,0-1.23-.08-2,0,0,.25.68.12-.32.27-.29-.11.38-.39-.51-.34-1.08-.07-.87.31-1.8.33l.63.1a4,4,0,0,1-1.33-.07c.4,0,1.39-.13,1.36-.38-.39.06-1.27,0-1.62,0l.21-.18c-.38-.17-.6.09-1.08-.07-.45.1.28.26,0,.33a3.1,3.1,0,0,0-1.28,0c.21.38,1-.11,1.6.26l-.83-.07c-.52.37,1.33,0,1.06.3a1.19,1.19,0,0,1-1,0,1.13,1.13,0,0,0-1,.1c.3,0,.69.07,1,.1s.61.07.53.13a1.05,1.05,0,0,0-.61,0L4,23.7a2.09,2.09,0,0,1-.5.07l-1.06-.18c-.52.12-.16.12.19.2a12.86,12.86,0,0,0-1.5-.09V21.17a10.86,10.86,0,0,1,.13-1.76c-.05-.89-.16-.11-.3-.51a4.79,4.79,0,0,0,0-1.77c0-.15-.21-.42-.3-.27L.81,18.1c-.12-.06-.32.12-.29.57.44-.31-.27,1.75.23,1.84l-.23,0,0,.4,0,.21,0,.36.07,1.4,0-.1A9.45,9.45,0,0,0,.74,24c.82,0,1.8-.07,2.56,0-.44.07-3,0-1.63.23a10.57,10.57,0,0,1-1.19.05l0-2.11V21c0-.21,0-.43,0-.65l-.16.23a38.32,38.32,0,0,1,0-4.28l.21.41a3.23,3.23,0,0,0,.07-1.57c0,.59-.11.29-.2.18-.11-.8,0-2-.06-3.06,0,0,0,0,.07,0L.34,11.16A2.53,2.53,0,0,1,.63,10.1c0-.2,0-.69-.15-.5a1.38,1.38,0,0,0,0,.28C.24,9.3.54,9.48.4,8.75c.19.56.27-.17.47-.11C.78,7.8.52,8.57.43,8.46A20.64,20.64,0,0,0,.75,6.27C.63,6.21.67,7,.53,7.09a1.71,1.71,0,0,0,0-.69L.41,7A15,15,0,0,0,.5,3.73l-.06.1V2.52l.23.55a9.28,9.28,0,0,0,0-1.87l0,.25L.55.55H.61l0,0,.2,1a3.88,3.88,0,0,0,0-.83C1.2.71,1.7.63,2.3.56l1-.1.49,0a2.8,2.8,0,0,1,.29,0c.08.15-.18.18-1.19.21S1.1.74,1.18.94A7.12,7.12,0,0,0,3,1C2.93.85,2.51.85,2.1.85,4,.65,4.93,1,5.58.63L4.9.5c.79,0,1.3.38,1.56.15L5.84,1C6.64.85,7.67.89,8.43.74c0-.22-1.09,0-1,0L7.75.54c1.17.13.34.14,1.75.27l0-.15c.47.23,1.74-.21,1.26.19L10.4.76l0,.18L12.07.82c-.16.13.63.09.42.27l.6-.16c.28.26-1.11.31-1.17.5s.3.11.44.09c-.73.19-1.08-.26-1.81-.26l-.36.16,0-.23a1.47,1.47,0,0,0-.66.28c-.72-.3-1.49.07-2.56,0,.89-.13-.58-.22-.42-.27-.5,0-1.71.39-2.13.11-.29-.1.6-.16-.09-.21-.44,0-.75.15-.46.26l-.55,0H1.39V3.24l-.15-.41a4.29,4.29,0,0,0,0,.72,2.27,2.27,0,0,0,.05.52,3.51,3.51,0,0,0,.23.73c-.06.09,0,.15-.11,0-.24.87.31,1.11.26,2.53.21-.08.23-.72.12-1.17L2,6.32c0-.61,0-1.27,0-1.89S1.87,3.2,1.8,2.59L2,3.16A.78.78,0,0,0,2,2.5a.89.89,0,0,1-.08-.56,2.89,2.89,0,0,1,.35.1c.54-.09-.56-.13-.17-.23.5.07.24.42.87.43l-.72,0,0,1.59,0,1.92,0,3.83c.05.05.06-.1.08-.24.32,1-.55,8.72.08,9-.09.14-.19-.31-.18.28,0,.05.1.2.19.06a8.63,8.63,0,0,0-.15,1.95l0,.91c0,.27,0,.54,0,.82a5.34,5.34,0,0,1,.89.07c0-.1.31-.16.31-.23.52.24,1.65,0,2.21.12l-.19-.12H7.46c.06-.05-.19-.05-.34-.07.4-.05.49.08.53.19l.81-.27c2.38.44,5.34-.24,8.08,0A3.1,3.1,0,0,1,18,21.76l-.34-.06c.71-.17.05.11.64,0,.41-.13.13-.31-.42-.2-.35-.07-.14-.14.11-.19A30.75,30.75,0,0,1,24,21.87Z" transform="translate(-0.27 -0.44)"/><path d="M22.3,20.35c.1-.24.09.95.3.37.4-1.84.08-4.82.4-7a9.33,9.33,0,0,0,.25-1.26.13.13,0,0,0-.12,0,17.16,17.16,0,0,1,.06-2.15c-.05-.17-.21-.29-.17,0-.14-.9.3-1.55.17-2.06-.1.44-.15-.43-.24.09,0-.94.56-.86.63-1.61,0,0-.1-.09-.11.07.25-.82-.14-2.5.26-2.59l-.17-.33c.14-.37.23-.23.28-.81-.06-.32-.15.08-.21,0a2.59,2.59,0,0,0,.16-.89,1.38,1.38,0,0,1-.56-.16c.07-.17.35,0,.6.12,0,.23-.07.42,0,.51s.06-.1.07-.19c0,.62-.07,1.11-.14,1.69l-.25,1.6a12.4,12.4,0,0,0-.2,3,.89.89,0,0,0,.17,1c.08-.36.25-1.41-.11-1.43l.24-.64c0-.24.34-.23.4-.34,0,.45.31,1,.44.35,0,1.18-.76-.38-.67.67l.26.15c-.14-.2-.26.71-.17,1l.05-.14c-.13,2.78,0,6.49.08,9.56-.65.76.22,2.26-.3,3,.09.34.23-.48.31.16,0,.33-.13.36-.18.34l.05.3C23.27,23,22.71,22.45,22.3,20.35Z" transform="translate(-0.27 -0.44)"/><path class="cls-1" d="M12.21,7.21c.07-.14.25-.19.24,0a.5.5,0,0,1,.12-.39c0,.15.1.11.17.1s-.13-.13-.28-.16c-.14.32-.42-.17-.55.18C12,7.06,12.09,7.29,12.21,7.21Z" transform="translate(-0.27 -0.44)"/><path class="cls-1" d="M12.82,8.2l0-.09-.23.14C12.65,8.17,12.82,8.09,12.82,8.2Z" transform="translate(-0.27 -0.44)"/><path d="M13.59,8c0,.16.1.26.1.41,0-.34.19-.07.3-.11L14,8c-.1-.18-.36-.1-.58-.13Z" transform="translate(-0.27 -0.44)"/><path class="cls-1" d="M13.79,8.14,13.86,8C13.8,8,13.67,8.05,13.79,8.14Z" transform="translate(-0.27 -0.44)"/><path class="cls-1" d="M13.64,7.25c-.17,0,.1.11-.07.16C13.63,7.37,13.7,7.36,13.64,7.25Z" transform="translate(-0.27 -0.44)"/><polygon points="14.08 7.33 13.72 7.45 13.87 7.56 14.08 7.33"/><path d="M14.37,8.3a.11.11,0,0,1,0-.18c.13.2.21-.08.33.09l-.12.08c0,.22.24-.21.24.16.15-.26-.12-.32.08-.5a.69.69,0,0,1-.49-.08c.05.07.07.06.13.12-.11,0-.27.13-.4.15C14.16,8.39,14.26,8.16,14.37,8.3Z" transform="translate(-0.27 -0.44)"/><path d="M15,8.36a.26.26,0,0,0,.34-.26c-.13-.2-.15,0-.21.16,0,0-.16-.07-.11-.22C15,8.1,14.89,8.25,15,8.36Z" transform="translate(-0.27 -0.44)"/><path d="M15.43,8.41l.09-.26-.06,0V8s0,.37-.17.35C15.34,8.51,15.36,8.34,15.43,8.41Z" transform="translate(-0.27 -0.44)"/><path d="M15.46,7.16c.08.12.13,0,.23,0-.14,0-.33,0-.37.12v0a1.49,1.49,0,0,0-.21.31C15.26,7.35,15.5,7.61,15.46,7.16Z" transform="translate(-0.27 -0.44)"/><path d="M15.29,7.14l.1-.15Z" transform="translate(-0.27 -0.44)"/><polygon points="15.54 7.91 15.35 7.83 15.4 7.91 15.54 7.91"/><path d="M15.58,7.58c.15,0-.08-.19.06-.19s-.2,0-.22.13S15.57,7.37,15.58,7.58Z" transform="translate(-0.27 -0.44)"/><path d="M15.93,8.37l.15-.19Z" transform="translate(-0.27 -0.44)"/><path d="M16.32,8.49l0-.14c.15.11.35-.07.46.22,0-.17.06-.35-.07-.4s-.07.09-.06.2-.05-.16-.08-.2c-.1.14-.25,0-.33.16,0,0,.05,0,.08,0-.17.24-.2-.34-.27.05C16.14,8.28,16.24,8.54,16.32,8.49Z" transform="translate(-0.27 -0.44)"/><path d="M16.3,7.57l-.13-.05c0-.18.16,0,.18-.18s-.14-.15-.09-.23c0,.43-.18,0-.11.5-.17,0,0-.26-.23-.24l-.05.23C16.07,7.48,16.1,7.68,16.3,7.57Z" transform="translate(-0.27 -0.44)"/><path d="M16.81,7.63l.07.14,0-.2c.29,0,.47.78.64.67.23-.27.43.13.66.09S18,8.23,18,8.12c0-.33.11.18.16-.1s-.23-.26-.33-.4c-.08,0-.08.11-.11.24,0-.13-.11-.17-.13-.31-.17.19-.26-.17-.44,0-.05-.19.13,0,.07-.06h-.09v0c-.13.19-.37,0-.45-.11.07.06.11.21,0,.27l-.06-.21-.16.31C16.64,7.61,16.79,8,16.81,7.63Z" transform="translate(-0.27 -0.44)"/><path d="M16.63,7.25c-.2-.11,0,.32-.19.22l.22,0Z" transform="translate(-0.27 -0.44)"/><path class="cls-1" d="M17.57,7.78l.1.15C17.61,7.63,17.46,8,17.57,7.78Z" transform="translate(-0.27 -0.44)"/><polygon class="cls-1" points="17.66 7.34 17.61 7.62 17.7 7.46 17.66 7.34"/><path d="M18.26,8.11c.07-.14,0-.26-.1-.22S18.27,8,18.26,8.11Z" transform="translate(-0.27 -0.44)"/><path class="cls-1" d="M18.8,8.64c-.17,0,.14.06,0,.31C18.85,8.83,18.93,8.68,18.8,8.64Z" transform="translate(-0.27 -0.44)"/><path d="M19.33,9.29c-.06.05-.08,0-.09-.07S19.32,9.24,19.33,9.29Z" transform="translate(-0.27 -0.44)"/><path d="M17.27,8.44h0Z" transform="translate(-0.27 -0.44)"/><path d="M17.31,8.44h0Z" transform="translate(-0.27 -0.44)"/><path d="M18.54,9h0V9Z" transform="translate(-0.27 -0.44)"/><path d="M13.3,8.32l-.07,0,.07,0Z" transform="translate(-0.27 -0.44)"/><path d="M13.22,7.94c.13-.17.14.41.36.29l-.28.09C13.18,8.05,13.4,8.17,13.22,7.94Z" transform="translate(-0.27 -0.44)"/><path d="M15.05,7.62h0S15.06,7.61,15.05,7.62Z" transform="translate(-0.27 -0.44)"/><polygon class="cls-1" points="6.99 7.79 6.99 7.87 6.86 7.77 6.99 7.79"/><path class="cls-1" d="M7.27,8.36l.21.15-1.22,0,0-.1C6.28,8.31,7.31,8.49,7.27,8.36Z" transform="translate(-0.27 -0.44)"/><path class="cls-1" d="M7.33,8.25c.12-.32.2.11.34-.11-.09.15-.16.31-.25.23Z" transform="translate(-0.27 -0.44)"/><path class="cls-2" d="M7.74,7.64c.06.07.14-.07.18,0C7.9,7.86,7.8,7.68,7.74,7.64Z" transform="translate(-0.27 -0.44)"/><path d="M7.91,6.73h0l0,0Z" transform="translate(-0.27 -0.44)"/><path d="M7.91,6.78v.1A.12.12,0,0,1,7.91,6.78Z" transform="translate(-0.27 -0.44)"/><path d="M7.94,6.73A.44.44,0,0,0,8,6.62l0,0s.11-.12.13-.06S8,6.6,8,6.75l.12,0C8.14,7.13,8.05,6.75,7.94,6.73Z" transform="translate(-0.27 -0.44)"/><path class="cls-2" d="M8.33,6.64l-.12.21C8.17,6.65,8.28,6.64,8.33,6.64Z" transform="translate(-0.27 -0.44)"/><path d="M8.52,6.88c0,.06-.16,0-.08.13s0,0-.07,0S8.38,6.75,8.52,6.88Z" transform="translate(-0.27 -0.44)"/><path d="M8.37,7h0Z" transform="translate(-0.27 -0.44)"/><path class="cls-2" d="M7.05,7.93a.08.08,0,0,1,0,.08Z" transform="translate(-0.27 -0.44)"/><path d="M8.77,7.1h0Z" transform="translate(-0.27 -0.44)"/><path d="M4.85,9a.56.56,0,0,0,.56,0c0-.26.1-.07.11-.34-.24,0,.93-.16.73-.28l-.06.12.07-.27c.11.07.28.28.36.13,0,.08-1,0-1,.09C5.56,8.14,7,8.15,7.06,8l0,.16c.18-.17.3-.4.45-.52l0,.2c-.12-.07-.15.07-.26.15.2,0,.23.09.38.05,0-.26-.13-.13.07-.27,0,.11-.08.39.09.34s.17-.31.35-.34l-.12-.09c.06,0,.19-.07.25.07-.07,0-.26.12-.26.38.08-.06.25,0,.31,0l0,.18c.08.16.12-.09.21.06.09-.1-.05-.25,0-.33s.19.16.25,0c0-.37-.2.12-.31-.25l.16.07c.1-.38-.25,0-.2-.3s.25.37.36-.12c-.07-.09-.31-.1-.28-.24.08.14.14-.12.26-.17l.14.17c.06-.11,0-.12,0-.19.21.22.55,0,.84.23.17-.06,0-.17.1-.3.09.23.24,0,.34,0s.08-.2.05-.3L10,6.91c0-.12,0-.32-.11-.3.06.44-.33-.26-.35.23V6.62l-.3.15v0c0-.07-.26.16-.43.06.05-.08.33,0,.17-.24.12-.13.34.08.57,0l0-.15c.24-.22.55.07.82,0l-.08.21c.09.07.21.25.3.07-.11,0,0-.11,0-.2s.38,0,.58-.07a.2.2,0,0,0,0,.08l.22-.13c.11,0,.14.16.21.3,0,0,.13,0,.09-.15s0,0,0,0c.11-.23.08.07.21-.07-.1.19,0,.27,0,.46.16-.08,0-.34,0-.43.2.11.22.28.42.32,0-.12-.14-.08-.16-.22.06,0,.13,0,.14,0l-.13-.09a.65.65,0,0,0,.64.09l0-.07h.14l0,.22c.08,0,.16.15.2,0l0,0,.1-.07-.1.22c.12.1.29-.36.49-.33,0,.31-.35.11-.37.5.06.06.18.13.22,0S13.25,7,13.2,7c.18-.21.44.12.55-.22l-.13-.13c.15,0,.24.37.3.15l-.12.39c.15-.19.35-.16.49-.3s-.21,0-.2,0l.07-.16c.23.13.07.14.34.27V6.76c.09.23.34-.22.24.19l-.07-.1V7L15,6.91c0,.14.12.1.08.28L15.19,7c.05.25-.22.3-.23.5s.06.1.09.09c-.14.19-.21-.26-.35-.27l-.07.17V7.29a.66.66,0,0,0-.12.28c-.14-.31-.29.06-.49,0,.17-.13-.11-.22-.08-.28s-.33.4-.41.12c-.06-.11.11-.16,0-.21a.18.18,0,0,0-.09.25,1.83,1.83,0,0,1-.62,0l0-.15c-.13-.12-.26.08-.33.25,0-.06,0,0,0-.11-.16-.25-.21.31-.48.25,0,.21.14.23.22.13l0,.24a1.1,1.1,0,0,0,.69-.18l-.08.18c.16.32.11-.32.27.05.11-.08-.08-.12,0-.22.08.07,0,.41.12.43a10.86,10.86,0,0,1-1.63.14s0,.06.05.07c-.19.33-1.68-.54-1.72.09,0-.09.06-.2-.06-.18a.28.28,0,0,0,0,.19c-.29-.34-.67,0-1-.21,0,.11-.07.17-.07.24-.12-.24-.32,0-.43-.12l0,.12H8c0,.05,0,.05.06.07S8,8.67,8,8.56l-.16.26c-.45-.43-1,.25-1.54,0-.08.21-.15.3-.28.32l.06.07c-.13.17,0-.11-.12,0s0,.31.08.19a.13.13,0,0,1,0,.2A1.57,1.57,0,0,1,4.85,9Z" transform="translate(-0.27 -0.44)"/><path d="M20.8,9.8c-.05-.1.18-.09.07-.3-.35-.41-.93-.08-1.34-.4a.82.82,0,0,0-.24-.25.24.24,0,0,0,0,.12c-.12,0-.3,0-.41-.06s-.06.21,0,.17c-.17.14-.29-.31-.39-.18.08.11-.09.16,0,.24-.18,0-.16-.55-.3-.62s0,.09,0,.11c-.16-.25-.48.14-.5-.27l-.06.17c-.07-.13,0-.22-.17-.28s0,.15,0,.22c0-.17-.23-.1-.32-.33s.16.35.25.12c0,0,0-.07,0-.07.47.06.83.77,1.22.58.09.18.16,0,.19-.16s-.27-.25-.27.1l-.12-.23c-.05,0-.05-.34-.07-.4s.18-.31.07-.44c.22,0-.07.76.13.67l0-.26c0,.14.13.26.2.17l0-.05a5.43,5.43,0,0,0,1.83-.08c.15.64.43-.22.57.3.07-.09-.09-.23,0-.31s.07.13.07.18l.05,0A2,2,0,0,1,20.8,9.8Z" transform="translate(-0.27 -0.44)"/><path class="cls-1" d="M12.15,11.76c.08-.13.25-.18.24,0a.49.49,0,0,1,.12-.38c0,.15.1.11.17.09s-.13-.12-.28-.16c-.14.33-.42-.16-.55.19C11.94,11.62,12,11.85,12.15,11.76Z" transform="translate(-0.27 -0.44)"/><path class="cls-1" d="M12.76,12.75l0-.09-.24.14C12.59,12.73,12.76,12.65,12.76,12.75Z" transform="translate(-0.27 -0.44)"/><path d="M13.53,12.51c0,.17.1.26.1.41,0-.33.19-.06.3-.11l0-.25c-.1-.18-.36-.1-.58-.13Z" transform="translate(-0.27 -0.44)"/><path class="cls-1" d="M13.73,12.7l.07-.16C13.74,12.58,13.61,12.61,13.73,12.7Z" transform="translate(-0.27 -0.44)"/><path class="cls-1" d="M13.58,11.81c-.17,0,.11.11-.07.16C13.57,11.93,13.64,11.91,13.58,11.81Z" transform="translate(-0.27 -0.44)"/><polygon points="14.02 11.88 13.66 12 13.81 12.11 14.02 11.88"/><path d="M14.31,12.86a.11.11,0,0,1-.05-.18c.13.2.21-.08.33.09l-.12.08c0,.21.24-.21.24.16.15-.26-.12-.32.08-.51a.6.6,0,0,1-.49-.08c0,.08.07.07.13.13-.11,0-.27.12-.4.15C14.1,12.94,14.2,12.72,14.31,12.86Z" transform="translate(-0.27 -0.44)"/><path d="M14.89,12.91c.12,0,.31,0,.34-.25-.13-.2-.15,0-.21.15,0,0-.16-.06-.11-.21C14.93,12.66,14.83,12.81,14.89,12.91Z" transform="translate(-0.27 -0.44)"/><path d="M15.37,13l.09-.25-.06,0v-.18s-.05.38-.17.36C15.28,13.07,15.3,12.9,15.37,13Z" transform="translate(-0.27 -0.44)"/><path d="M15.4,11.71c.08.13.13,0,.23,0-.14,0-.33,0-.36.12v0a1.33,1.33,0,0,0-.22.31C15.2,11.9,15.44,12.17,15.4,11.71Z" transform="translate(-0.27 -0.44)"/><path d="M15.23,11.69l.1-.14Z" transform="translate(-0.27 -0.44)"/><polygon points="15.48 12.47 15.29 12.38 15.34 12.46 15.48 12.47"/><path d="M15.52,12.14c.16,0-.08-.2.06-.19s-.2,0-.21.12S15.51,11.93,15.52,12.14Z" transform="translate(-0.27 -0.44)"/><path d="M15.87,12.92l.16-.19Z" transform="translate(-0.27 -0.44)"/><path d="M16.26,13l0-.13c.15.11.35-.08.46.21,0-.16.06-.34-.07-.39s-.07.09-.06.19-.05-.15-.08-.2c-.1.15-.25,0-.33.17,0,0,.05,0,.08,0-.17.23-.2-.34-.27.05C16.08,12.84,16.18,13.1,16.26,13Z" transform="translate(-0.27 -0.44)"/><path d="M16.24,12.13l-.13-.06c0-.17.16,0,.18-.17s-.14-.15-.09-.23c0,.42-.18,0-.11.49-.17.06-.05-.25-.23-.23l0,.22C16,12,16,12.24,16.24,12.13Z" transform="translate(-0.27 -0.44)"/><path d="M16.75,12.19l.07.14,0-.2c.3,0,.47.78.65.66s.42.13.65.09-.11-.1-.12-.2c0-.34.11.17.16-.1s-.23-.26-.33-.41c-.08,0-.08.11-.11.25,0-.13-.1-.18-.13-.31-.17.19-.26-.17-.44,0-.05-.19.13,0,.07-.07h-.09v0c-.13.18-.37,0-.45-.11.07.06.11.21,0,.27l-.06-.22-.16.31C16.58,12.17,16.73,12.58,16.75,12.19Z" transform="translate(-0.27 -0.44)"/><path d="M16.57,11.81c-.2-.12,0,.31-.19.22l.22,0Z" transform="translate(-0.27 -0.44)"/><path class="cls-1" d="M17.51,12.34l.1.14C17.56,12.19,17.4,12.58,17.51,12.34Z" transform="translate(-0.27 -0.44)"/><polygon class="cls-1" points="17.6 11.9 17.55 12.17 17.64 12.02 17.6 11.9"/><path d="M18.2,12.67c.07-.14,0-.26-.1-.22C18.18,12.46,18.21,12.58,18.2,12.67Z" transform="translate(-0.27 -0.44)"/><path class="cls-1" d="M18.74,13.19c-.17,0,.14.07,0,.32C18.79,13.39,18.87,13.24,18.74,13.19Z" transform="translate(-0.27 -0.44)"/><path d="M19.27,13.84c-.06.05-.08,0-.09-.06S19.26,13.8,19.27,13.84Z" transform="translate(-0.27 -0.44)"/><path d="M17.21,13h0Z" transform="translate(-0.27 -0.44)"/><path d="M17.25,13h0Z" transform="translate(-0.27 -0.44)"/><path d="M18.48,13.59h0l0,0Z" transform="translate(-0.27 -0.44)"/><path d="M13.24,12.88s-.05,0-.07,0Z" transform="translate(-0.27 -0.44)"/><path d="M13.16,12.5c.13-.18.14.41.36.28l-.28.1C13.12,12.6,13.34,12.73,13.16,12.5Z" transform="translate(-0.27 -0.44)"/><path d="M15,12.17h0S15,12.16,15,12.17Z" transform="translate(-0.27 -0.44)"/><polygon class="cls-1" points="6.93 12.35 6.93 12.43 6.8 12.33 6.93 12.35"/><path class="cls-1" d="M7.21,12.92l.21.14-1.22,0,0-.11C6.22,12.87,7.25,13,7.21,12.92Z" transform="translate(-0.27 -0.44)"/><path class="cls-1" d="M7.27,12.8c.12-.31.2.12.35-.1-.1.14-.17.31-.26.23Z" transform="translate(-0.27 -0.44)"/><path class="cls-2" d="M7.68,12.2c.06.06.14-.07.18,0C7.84,12.42,7.74,12.23,7.68,12.2Z" transform="translate(-0.27 -0.44)"/><path d="M7.85,11.29h0l0,0Z" transform="translate(-0.27 -0.44)"/><path d="M7.85,11.33v.11A.14.14,0,0,1,7.85,11.33Z" transform="translate(-0.27 -0.44)"/><path d="M7.89,11.29A1.27,1.27,0,0,0,8,11.17h0S8,11,8.06,11.1s-.08.06-.08.21l.12,0C8.08,11.69,8,11.31,7.89,11.29Z" transform="translate(-0.27 -0.44)"/><path class="cls-2" d="M8.27,11.2l-.12.21C8.11,11.21,8.22,11.2,8.27,11.2Z" transform="translate(-0.27 -0.44)"/><path d="M8.46,11.43c0,.06-.15,0-.08.14s0,0-.07,0S8.32,11.31,8.46,11.43Z" transform="translate(-0.27 -0.44)"/><path d="M8.31,11.6h0Z" transform="translate(-0.27 -0.44)"/><path class="cls-2" d="M7,12.49a.08.08,0,0,1,0,.08Z" transform="translate(-0.27 -0.44)"/><path d="M8.71,11.66h0Z" transform="translate(-0.27 -0.44)"/><path d="M4.79,13.56a.58.58,0,0,0,.56,0c0-.26.1-.08.11-.35-.24,0,.93-.16.73-.27l-.06.12.07-.27c.11.07.28.28.36.13,0,.08-1,0-1,.09C5.5,12.7,7,12.71,7,12.57l0,.16c.18-.17.3-.41.45-.52l0,.2c-.12-.07-.15.06-.26.15.2,0,.23.09.39,0,0-.26-.13-.13.06-.27,0,.11-.08.39.1.33s.16-.31.34-.33L8,12.25c.07,0,.19-.07.25.07-.07,0-.26.12-.26.38.08-.06.25,0,.31,0l0,.18c.08.17.12-.08.21.07.09-.1-.05-.26,0-.33s.18.16.24,0c0-.38-.2.11-.31-.25l.16.06c.1-.37-.25,0-.2-.29s.25.37.36-.12c-.07-.09-.31-.1-.28-.24.08.14.14-.12.26-.17l.14.17c.06-.12,0-.12,0-.19.21.21.55,0,.84.22.17,0,0-.16.1-.29.09.23.24,0,.34,0s.08-.21.05-.3l-.24.14c0-.12,0-.31-.11-.29.06.44-.33-.27-.35.23v-.23l-.3.16v0c0-.08-.26.15-.43.06,0-.08.33,0,.17-.24.12-.13.34.08.57,0l0-.15c.24-.22.55.06.82,0l-.08.21c.09.08.21.25.3.07-.11,0-.05-.1,0-.19s.38,0,.58-.07a.2.2,0,0,0,0,.08l.22-.13c.11,0,.14.16.21.29s.13,0,.09-.14,0,0,0,0c.11-.23.08.06.22-.08-.11.19,0,.28,0,.47.16-.08,0-.34,0-.43.2.11.22.28.42.31,0-.12-.14-.08-.16-.21.06,0,.13,0,.14,0L12,11.07a.6.6,0,0,0,.63.08l0-.06h.14l0,.22c.08-.06.16.14.2,0h0l.1-.07-.1.22c.12.09.29-.37.49-.33,0,.3-.35.11-.37.5.06.06.18.13.22,0s-.06-.11-.11-.11c.18-.2.44.13.55-.22l-.13-.12c.15,0,.24.37.3.15l-.12.38c.15-.19.35-.15.49-.29s-.21,0-.2,0l.07-.16c.23.12.07.13.34.26v-.15c.09.23.34-.21.24.19l-.07-.09v.18l.31-.12c0,.13.12.1.08.27l.12-.16c0,.26-.22.31-.23.51s.06.1.09.08c-.14.19-.21-.25-.35-.26l-.07.16v-.22a.66.66,0,0,0-.12.28c-.14-.31-.29.06-.49,0,.17-.13-.11-.21-.08-.27s-.33.39-.41.12c-.06-.11.11-.16,0-.21a.18.18,0,0,0-.09.25,2.13,2.13,0,0,1-.62,0l0-.15c-.13-.13-.26.08-.33.24,0-.06,0,0,0-.1-.17-.25-.22.31-.49.25,0,.21.14.23.22.13l0,.24a1.1,1.1,0,0,0,.69-.18l-.08.17c.16.33.11-.31.27.06.11-.09-.08-.12,0-.23.08.07,0,.42.12.43a9.69,9.69,0,0,1-1.63.15s0,.06.05.07c-.19.33-1.68-.55-1.72.09,0-.1.06-.2-.06-.19a.32.32,0,0,0,0,.2c-.29-.34-.67,0-1-.21,0,.11-.07.16-.07.24-.12-.25-.32,0-.43-.12l0,.12H8s0,0,.06.06-.09-.08-.1-.18l-.15.26c-.46-.44-1,.25-1.55,0-.08.21-.15.3-.28.32l.06.06c-.13.18,0-.1-.12,0s0,.32.08.2a.13.13,0,0,1,0,.2A1.65,1.65,0,0,1,4.79,13.56Z" transform="translate(-0.27 -0.44)"/><path d="M20.74,14.35c0-.09.18-.08.07-.29-.35-.41-.93-.08-1.34-.41a.77.77,0,0,0-.24-.24.2.2,0,0,0,0,.11c-.11,0-.3.05-.41,0s-.06.2,0,.17c-.17.14-.29-.31-.39-.18.08.11-.09.16,0,.24-.19,0-.17-.55-.31-.62s0,.09,0,.1c-.16-.25-.48.15-.5-.26l-.06.17c-.07-.13-.05-.22-.17-.28s0,.15,0,.21c0-.16-.23-.09-.32-.32s.16.35.25.11c0-.05,0-.06,0-.07.47.07.84.78,1.22.59.09.18.16,0,.19-.16s-.27-.26-.27.1L18.32,13c-.05,0-.05-.35-.07-.4s.19-.31.07-.44c.23,0-.07.76.13.67l0-.26c0,.13.13.25.2.17l0,0a5.7,5.7,0,0,0,1.83-.08c.15.64.44-.23.57.29.07-.08-.09-.22,0-.3s.07.13.07.17l.06-.05A2,2,0,0,1,20.74,14.35Z" transform="translate(-0.27 -0.44)"/><path class="cls-1" d="M12.15,16.32c.08-.13.25-.18.24,0a.52.52,0,0,1,.12-.39c0,.16.1.11.17.1s-.13-.12-.28-.16c-.14.33-.42-.17-.55.19C11.94,16.18,12,16.41,12.15,16.32Z" transform="translate(-0.27 -0.44)"/><path class="cls-1" d="M12.76,17.31l0-.09-.24.14C12.59,17.29,12.76,17.2,12.76,17.31Z" transform="translate(-0.27 -0.44)"/><path d="M13.53,17.07c0,.16.1.26.1.41,0-.33.19-.07.3-.11l0-.25c-.1-.19-.36-.11-.58-.13Z" transform="translate(-0.27 -0.44)"/><path class="cls-1" d="M13.73,17.26l.07-.16C13.74,17.14,13.61,17.16,13.73,17.26Z" transform="translate(-0.27 -0.44)"/><path class="cls-1" d="M13.58,16.36c-.17,0,.11.11-.07.17C13.57,16.48,13.64,16.47,13.58,16.36Z" transform="translate(-0.27 -0.44)"/><polygon points="14.02 16.44 13.66 16.56 13.81 16.67 14.02 16.44"/><path d="M14.31,17.42a.12.12,0,0,1-.05-.19c.13.21.21-.08.33.09l-.12.09c0,.21.24-.22.24.16.15-.27-.12-.32.08-.51A.6.6,0,0,1,14.3,17c0,.08.07.06.13.13-.11,0-.27.12-.4.15C14.1,17.5,14.2,17.28,14.31,17.42Z" transform="translate(-0.27 -0.44)"/><path d="M14.89,17.47c.12,0,.31,0,.34-.26-.13-.2-.15,0-.21.16,0-.05-.16-.07-.11-.21C14.93,17.22,14.83,17.36,14.89,17.47Z" transform="translate(-0.27 -0.44)"/><path d="M15.37,17.52l.09-.25-.06,0v-.18c0,.05-.05.37-.17.35C15.28,17.62,15.3,17.46,15.37,17.52Z" transform="translate(-0.27 -0.44)"/><path d="M15.4,16.27c.08.13.13.05.23,0-.14,0-.33,0-.36.12v0a1.41,1.41,0,0,0-.22.3C15.2,16.46,15.44,16.73,15.4,16.27Z" transform="translate(-0.27 -0.44)"/><path d="M15.23,16.25l.1-.15Z" transform="translate(-0.27 -0.44)"/><polygon points="15.48 17.02 15.29 16.94 15.34 17.02 15.48 17.02"/><path d="M15.52,16.7c.16,0-.08-.2.06-.2s-.2,0-.21.13S15.51,16.49,15.52,16.7Z" transform="translate(-0.27 -0.44)"/><path d="M15.87,17.48l.16-.19Z" transform="translate(-0.27 -0.44)"/><path d="M16.26,17.6l0-.13c.15.11.35-.08.46.21,0-.16.06-.34-.07-.39s-.07.09-.06.19-.05-.15-.08-.2c-.1.15-.25,0-.33.17,0,0,.05,0,.08,0-.17.23-.2-.34-.27.05C16.08,17.4,16.18,17.66,16.26,17.6Z" transform="translate(-0.27 -0.44)"/><path d="M16.24,16.68l-.13-.05c0-.18.16,0,.18-.17s-.14-.16-.09-.23c0,.42-.18,0-.11.49-.17.05-.05-.26-.23-.23l0,.22C16,16.6,16,16.79,16.24,16.68Z" transform="translate(-0.27 -0.44)"/><path d="M16.75,16.75l.07.14,0-.2c.3,0,.47.78.65.66.22-.27.42.13.65.09s-.11-.1-.12-.2c0-.34.11.17.16-.1s-.23-.26-.33-.41c-.08,0-.08.11-.11.25,0-.14-.1-.18-.13-.31-.17.19-.26-.17-.44,0-.05-.18.13,0,.07-.06h-.09v0c-.13.19-.37,0-.45-.11.07.07.11.22,0,.28l-.06-.22-.16.31C16.58,16.73,16.73,17.14,16.75,16.75Z" transform="translate(-0.27 -0.44)"/><path d="M16.57,16.36c-.2-.11,0,.32-.19.22l.22,0Z" transform="translate(-0.27 -0.44)"/><path class="cls-1" d="M17.51,16.9l.1.14C17.56,16.74,17.4,17.14,17.51,16.9Z" transform="translate(-0.27 -0.44)"/><polygon class="cls-1" points="17.6 16.46 17.55 16.73 17.64 16.58 17.6 16.46"/><path d="M18.2,17.22c.07-.14,0-.25-.1-.22C18.18,17,18.21,17.13,18.2,17.22Z" transform="translate(-0.27 -0.44)"/><path class="cls-1" d="M18.74,17.75c-.17,0,.14.07,0,.32C18.79,18,18.87,17.79,18.74,17.75Z" transform="translate(-0.27 -0.44)"/><path d="M19.27,18.4c-.06.05-.08,0-.09-.06A.09.09,0,0,1,19.27,18.4Z" transform="translate(-0.27 -0.44)"/><path d="M17.21,17.55h0Z" transform="translate(-0.27 -0.44)"/><path d="M17.25,17.56h0Z" transform="translate(-0.27 -0.44)"/><path d="M18.48,18.14h0s0,0,0,0Z" transform="translate(-0.27 -0.44)"/><path d="M13.24,17.44h-.07l.07,0Z" transform="translate(-0.27 -0.44)"/><path d="M13.16,17.06c.13-.18.14.41.36.28a1.31,1.31,0,0,1-.28.09C13.12,17.16,13.34,17.29,13.16,17.06Z" transform="translate(-0.27 -0.44)"/><path d="M15,16.73h0S15,16.72,15,16.73Z" transform="translate(-0.27 -0.44)"/><polygon class="cls-1" points="6.93 16.91 6.93 16.98 6.8 16.89 6.93 16.91"/><path class="cls-1" d="M7.21,17.48l.21.14-1.22.05,0-.11C6.22,17.43,7.25,17.6,7.21,17.48Z" transform="translate(-0.27 -0.44)"/><path class="cls-1" d="M7.27,17.36c.12-.31.2.11.35-.11-.1.15-.17.31-.26.23Z" transform="translate(-0.27 -0.44)"/><path class="cls-2" d="M7.68,16.76c.06.06.14-.07.18,0C7.84,17,7.74,16.79,7.68,16.76Z" transform="translate(-0.27 -0.44)"/><path d="M7.85,15.85h0l0,.05Z" transform="translate(-0.27 -0.44)"/><path d="M7.85,15.89V16A.14.14,0,0,1,7.85,15.89Z" transform="translate(-0.27 -0.44)"/><path d="M7.89,15.84,8,15.73l0,0s.11-.11.13-.05-.08.06-.08.21l.12,0C8.08,16.25,8,15.87,7.89,15.84Z" transform="translate(-0.27 -0.44)"/><path class="cls-2" d="M8.27,15.76l-.12.2C8.11,15.77,8.22,15.76,8.27,15.76Z" transform="translate(-0.27 -0.44)"/><path d="M8.46,16c0,.06-.15,0-.08.13a.06.06,0,0,1-.07,0C8.39,16.11,8.32,15.86,8.46,16Z" transform="translate(-0.27 -0.44)"/><path d="M8.31,16.16h0S8.3,16.15,8.31,16.16Z" transform="translate(-0.27 -0.44)"/><path class="cls-2" d="M7,17.05a.08.08,0,0,1,0,.08Z" transform="translate(-0.27 -0.44)"/><path d="M8.71,16.21h0Z" transform="translate(-0.27 -0.44)"/><path d="M4.79,18.12a.56.56,0,0,0,.56,0c0-.25.1-.07.11-.34-.24,0,.93-.16.73-.27l-.06.12.07-.27c.11.06.28.28.36.12,0,.09-1,0-1,.1C5.5,17.25,7,17.26,7,17.13l0,.16c.18-.17.3-.41.45-.52l0,.19c-.12-.06-.15.07-.26.16.2,0,.23.08.39,0,0-.25-.13-.12.06-.27,0,.11-.08.39.1.34s.16-.31.34-.33L8,16.8c.07,0,.19-.07.25.07-.07,0-.26.13-.26.38.08-.05.25,0,.31,0l0,.18c.08.17.12-.08.21.07.09-.1-.05-.26,0-.33s.18.16.24,0c0-.38-.2.11-.31-.26l.16.07c.1-.37-.25,0-.2-.29s.25.37.36-.12c-.07-.1-.31-.11-.28-.24.08.14.14-.13.26-.18l.14.18c.06-.12,0-.12,0-.2.21.22.55,0,.84.23.17-.05,0-.16.1-.3.09.23.24,0,.34.05s.08-.21.05-.3L9.91,16c0-.12,0-.32-.11-.29.06.44-.33-.27-.35.23v-.23l-.3.15v0c0-.07-.26.16-.43.06,0-.07.33,0,.17-.23.12-.13.34.07.57,0l0-.16c.24-.21.55.07.82,0l-.08.21c.09.08.21.25.3.07-.11,0-.05-.11,0-.19s.38,0,.58-.07a.15.15,0,0,0,0,.07l.22-.12c.11,0,.14.15.21.29,0,0,.13,0,.09-.15s0,0,0,0c.11-.22.08.07.22-.07-.11.19,0,.27,0,.47.16-.09,0-.35,0-.44.2.12.22.28.42.32,0-.12-.14-.08-.16-.22.06,0,.13,0,.14,0l-.12-.1a.58.58,0,0,0,.63.09l0-.06h.14l0,.23c.08-.06.16.14.2,0h0l.1-.08-.1.23c.12.09.29-.37.49-.33,0,.3-.35.11-.37.5.06.06.18.12.22,0s-.06-.11-.11-.11c.18-.2.44.12.55-.22l-.13-.12c.15,0,.24.37.3.14l-.12.39c.15-.19.35-.15.49-.3s-.21,0-.2,0l.07-.17c.23.13.07.14.34.27v-.15c.09.23.34-.21.24.19L14.61,16v.18l.31-.12c0,.13.12.09.08.27l.12-.16c0,.26-.22.31-.23.5s.06.11.09.09c-.14.19-.21-.26-.35-.26l-.07.16V16.4a.77.77,0,0,0-.12.29c-.14-.31-.29.06-.49,0,.17-.13-.11-.21-.08-.27s-.33.39-.41.12c-.06-.11.11-.17,0-.22a.2.2,0,0,0-.09.26,2.54,2.54,0,0,1-.62,0l0-.15c-.13-.13-.26.08-.33.24,0-.06,0,0,0-.1-.17-.25-.22.3-.49.25,0,.21.14.23.22.13l0,.24a1.05,1.05,0,0,0,.69-.19l-.08.18c.16.32.11-.31.27.06.11-.09-.08-.13,0-.23.08.07,0,.42.12.43a10.86,10.86,0,0,1-1.63.14c0,.05,0,.06.05.08-.19.32-1.68-.55-1.72.08,0-.09.06-.19-.06-.18a.31.31,0,0,0,0,.2c-.29-.35-.67,0-1-.21,0,.1-.07.16-.07.24-.12-.25-.32,0-.43-.13l0,.13H8s0,0,.06.06-.09-.08-.1-.18l-.15.26c-.46-.44-1,.24-1.55,0-.08.2-.15.29-.28.32l.06.06c-.13.18,0-.11-.12,0s0,.32.08.2c.07.07,0,.14,0,.19A1.6,1.6,0,0,1,4.79,18.12Z" transform="translate(-0.27 -0.44)"/><path d="M20.74,18.91c0-.1.18-.08.07-.3-.35-.4-.93-.08-1.34-.4a1,1,0,0,0-.24-.25.24.24,0,0,0,0,.12c-.11,0-.3.05-.41-.06,0,.05-.06.21,0,.17-.17.15-.29-.3-.39-.17.08.1-.09.15,0,.24-.19,0-.17-.56-.31-.63s0,.1,0,.11c-.16-.25-.48.14-.5-.26l-.06.17c-.07-.14-.05-.23-.17-.28s0,.15,0,.21c0-.16-.23-.09-.32-.32s.16.34.25.11c0-.05,0-.06,0-.07.47.06.84.78,1.22.59.09.18.16,0,.19-.17s-.27-.25-.27.11l-.12-.23c-.05,0-.05-.35-.07-.41s.19-.31.07-.44c.23,0-.07.76.13.67l0-.26c0,.14.13.26.2.17l0,0a5.42,5.42,0,0,0,1.83-.07c.15.64.44-.23.57.29.07-.09-.09-.23,0-.31s.07.13.07.18l.06-.05A2,2,0,0,1,20.74,18.91Z" transform="translate(-0.27 -0.44)"/></svg>