<svg id="Layer_1" data-name="Layer 1" xmlns="http://www.w3.org/2000/svg" viewBox="0 0 19.07 19.12"><defs><style>.cls-1{fill:#202020;}</style></defs><title>Untitled-1</title><path class="cls-1" d="M2.43.7,19.69.75l-.06,10.72-.09,3.45-.07,4.55-9.14-.13-9.16-.06V11.8l0-6.7A19.46,19.46,0,0,0,1,2C1,1.75.87,2.78.86,4.25l-.13,7,0,8.55,8,0h2.66l2.46,0h6V.69L2.6.64a3.69,3.69,0,0,0-.6,0A1.93,1.93,0,0,0,2.43.7Z" transform="translate(-0.68 -0.64)"/><path class="cls-1" d="M2.43,1.25l16.71.05-.06,10.17-.16,7.45-8.59-.13-8.61-.07V11.8l0-6.7A20.26,20.26,0,0,0,1.58,2c-.08-.25-.16.78-.17,2.25l-.13,7-.05,8,7.42,0h2.66l2.46,0h5.41V1.24L2.6,1.19a3.69,3.69,0,0,0-.6,0A1.34,1.34,0,0,0,2.43,1.25Z" transform="translate(-0.68 -0.64)"/><path class="cls-1" d="M2.43,1.8l16.16.05-.06,9.62-.16,6.9-8-.13-8.06-.07V11.8l0-6.7A20.26,20.26,0,0,0,2.13,2C2.05,1.75,2,2.78,2,4.25l-.13,7-.05,7.45,6.87,0h2.66l2.46,0h4.86V1.79l-16-.05a3.69,3.69,0,0,0-.6,0A1.34,1.34,0,0,0,2.43,1.8Z" transform="translate(-0.68 -0.64)"/><path class="cls-1" d="M2.43,2.35,18,2.4,18,11.47l-.16,6.35-1.38,0-2,0-4.09-.06-7.51-.07V11.8l0-6.7A20.26,20.26,0,0,0,2.68,2c-.08-.25-.16.78-.17,2.25l-.13,7,0,6.9,6.32,0h9.43V2.34l-15.5,0a3.69,3.69,0,0,0-.6,0A1.34,1.34,0,0,0,2.43,2.35Z" transform="translate(-0.68 -0.64)"/><path class="cls-1" d="M2.43,2.9,17.49,3l-.06,8.52-.09,3.45,0,1.76v.47l0,.12-.15,0h-.68l-2,0-4.09-.06-7-.07h0s0,.12,0-.28v-5l0-6.7A20.26,20.26,0,0,0,3.23,2c-.08-.25-.16.78-.17,2.25l-.13,7,0,6.35,5.76,0h8.88V2.89L2.6,2.85a3,3,0,0,0-.6,0A1.34,1.34,0,0,0,2.43,2.9Z" transform="translate(-0.68 -0.64)"/><path d="M16.09,10.43,15,11.12l-.14-.22a.87.87,0,0,0-.92-.35.51.51,0,0,0-.46.42.57.57,0,0,0,.2.63,2.78,2.78,0,0,0,.47.28c.41.2.82.37,1.22.58a3.43,3.43,0,0,1,.58.42,1.69,1.69,0,0,1,.53,1.19,2.21,2.21,0,0,1-.06.77A1.75,1.75,0,0,1,15.23,16a3.15,3.15,0,0,1-2.58-.21,2.39,2.39,0,0,1-1-1v0s0,0,0,0l1.12-.65.18.25a1.44,1.44,0,0,0,1.64.52.63.63,0,0,0,.46-.79.66.66,0,0,0-.34-.41c-.22-.12-.44-.23-.67-.33A7.69,7.69,0,0,1,13,12.81a2,2,0,0,1-.75-2.34,1.72,1.72,0,0,1,1.15-1.05,2.57,2.57,0,0,1,1.62,0A2,2,0,0,1,16.09,10.43Z" transform="translate(-0.68 -0.64)"/><path d="M6.78,14.93l1.12-.68c.08.12.15.24.23.35a.83.83,0,0,0,.94.33.54.54,0,0,0,.41-.41,2.61,2.61,0,0,0,0-.48V9.53c0-.14,0-.15.15-.15h1.13c.09,0,.12,0,.12.11v4.65a2.62,2.62,0,0,1-.13.83,1.61,1.61,0,0,1-1.14,1.12,2.59,2.59,0,0,1-2-.15,2.14,2.14,0,0,1-.9-1A.11.11,0,0,0,6.78,14.93Z" transform="translate(-0.68 -0.64)"/></svg>