<svg id="Layer_1" data-name="Layer 1" xmlns="http://www.w3.org/2000/svg" viewBox="0 0 18 17.09"><defs><style>.cls-1{fill:none;}.cls-2{opacity:0.8;}.cls-3{fill:#fff;opacity:0.2;}</style></defs><title>Untitled-3</title><circle cx="7.95" cy="8.18" r="7.95"/><path d="M15.44,5.06A14.67,14.67,0,0,1,14.62,17" transform="translate(-2.11 -1.77)"/><rect class="cls-1" x="10.65" y="13.35" width="5.81" height="4.09" transform="translate(-7.97 20.25) rotate(-67.49)"/><g class="cls-2"><path d="M15,16.3h0s0,0,0,0S15,16.3,15,16.3Z" transform="translate(-2.11 -1.77)"/><path d="M16.21,14.16h0c0-.05,0,0,.07-.06s.06,0,.06,0S16.24,14.17,16.21,14.16Z" transform="translate(-2.11 -1.77)"/><path d="M15.55,14.53c0,.07-.1,0-.08.09s0,0,0,0a1,1,0,0,0,0,.56s-.1,0-.12-.06,0-.24-.13-.21a.49.49,0,0,1-.34-.2c-.2,0-.15.26-.35.28a.15.15,0,0,1,0-.11c0-.11.12-.16.1-.27s-.1,0-.14,0-.19-.22-.25-.32.13,0,.17-.06,0-.1-.06-.11,0-.07.09-.09-.23-.06-.12-.13.06,0,.08,0v0c.15,0,.29,0,.44,0s-.06-.22-.06-.35c0,0,0,.09.07.12l.1,0c.07-.11.18,0,.26-.09a.38.38,0,0,0,0,.1c0,.08.09.06.08.13s.11,0,.16,0,.08-.07.08-.13,0,0,.08,0-.17.17-.19.29,0,.07,0,.08l.06,0s0,0,0,.05l.12,0s0,.06,0,.09h.08a.23.23,0,0,0-.17.13s.07,0,.07,0-.06,0-.07,0a.37.37,0,0,0,.25.12s0,0,0,0S15.64,14.53,15.55,14.53Z" transform="translate(-2.11 -1.77)"/><path d="M14.63,16.62c-.1.07-.18,0-.28,0s-.07-.12-.06-.18,0-.16.13-.1.1,0,.15,0a.19.19,0,0,1,.11.12s0,.07,0,.11S14.59,16.57,14.63,16.62Z" transform="translate(-2.11 -1.77)"/><path class="cls-3" d="M14.6,16.52s0,0,0,0S14.6,16.48,14.6,16.52Z" transform="translate(-2.11 -1.77)"/><path class="cls-3" d="M14.58,16.47c0-.06-.05,0-.08-.08s0,0,0,.06,0-.06,0-.05,0,.05,0,.06-.05-.09-.08-.08,0,0,.08,0,0,0,0-.05,0,0,.08,0a0,0,0,0,0,0,0s0,0,0,0h0c0,.06,0,0,.06,0s0,0,0,.05,0,0,0,0Z" transform="translate(-2.11 -1.77)"/><path class="cls-3" d="M14.56,16.49s0,0,0,0,0,.06-.05,0,0,.06,0,.08h0s0,0,0,0-.06,0-.05,0l0-.06s0,0,0,0,0,0-.07,0,0-.1,0-.12l.1,0s0,0,0,0h0s0,0,.07,0,0,0,0-.06.07.05.1,0S14.57,16.46,14.56,16.49Z" transform="translate(-2.11 -1.77)"/><path d="M14.52,16.58v0Z" transform="translate(-2.11 -1.77)"/><polygon points="12.38 14.61 12.42 14.61 12.42 14.63 12.38 14.61"/><path d="M15.65,13.67h0Z" transform="translate(-2.11 -1.77)"/><path class="cls-3" d="M14.46,16.36c0-.06,0,.05-.05,0s0-.06.06,0Z" transform="translate(-2.11 -1.77)"/><path d="M15.43,13.72s0-.07,0-.06S15.47,13.72,15.43,13.72Z" transform="translate(-2.11 -1.77)"/><path d="M13.66,17.82c-.05,0-.07.12-.12.11a0,0,0,0,0-.06,0s0,.06-.05.07-.11,0-.21-.06,0,.09,0,.13,0,0,0,0,0,.23-.09.35c0,0-.05,0-.05,0l0-.24a.81.81,0,0,0-.58-.18c-.06,0-.06.12-.11.06s.17-.16.14-.27a2.3,2.3,0,0,1-.19-.33c0-.08.14,0,.1-.11s0,0-.07,0,.11,0,.12-.07-.08,0-.05-.07.07,0,.11,0,0-.08,0-.14a.32.32,0,0,1,.09,0,.28.28,0,0,0,.12-.08.15.15,0,0,1,0-.09c.06,0,.12.07.2.06s0-.07,0-.09,0,.08.08.09l.08-.05c.18.07.29.22.48.26a.6.6,0,0,0,.22.25.14.14,0,0,0-.07.11l.06.07s0,0,0,.06l0,.06s-.09.05-.1.1,0,.06.05.09S13.68,17.82,13.66,17.82Z" transform="translate(-2.11 -1.77)"/><path d="M15.46,13.11s0,0,0-.06S15.49,13.1,15.46,13.11Z" transform="translate(-2.11 -1.77)"/><path d="M13.57,16.65c0,.06-.06,0-.07.06s-.12.08-.19,0,0-.12-.13-.14,0-.23.12-.29.12.05.14-.05a.12.12,0,0,0,.06.08s.05,0,.07,0,0,.1.07.1,0,.07,0,.1S13.67,16.64,13.57,16.65Z" transform="translate(-2.11 -1.77)"/><rect class="cls-3" x="13.55" y="16.51" height="0.02" transform="translate(-9 20.95) rotate(-67.49)"/><path class="cls-3" d="M13.54,16.47c-.06,0,0,0,0,0s0,0,0,0,0,0,0,.05l.05,0Z" transform="translate(-2.11 -1.77)"/><polygon class="cls-3" points="11.38 14.81 11.4 14.79 11.39 14.81 11.38 14.81"/><path class="cls-3" d="M13.41,16.64s0,0,0,0Z" transform="translate(-2.11 -1.77)"/><polygon class="cls-3" points="11.37 14.61 11.37 14.65 11.36 14.62 11.37 14.61"/><polygon class="cls-3" points="11.3 14.63 11.33 14.63 11.31 14.64 11.3 14.63"/><path class="cls-3" d="M13.4,16.38h0Z" transform="translate(-2.11 -1.77)"/><path class="cls-3" d="M13.36,16.47l0,0Z" transform="translate(-2.11 -1.77)"/><path class="cls-3" d="M13.32,16.44h0Z" transform="translate(-2.11 -1.77)"/><path d="M12.76,15.27s0-.07,0-.08.06,0,.05.06S12.78,15.3,12.76,15.27Z" transform="translate(-2.11 -1.77)"/><path d="M12.53,15.24c-.13,0-.19.13-.32.14s0-.08-.08-.09a.21.21,0,0,0,0,.07s0-.08,0-.09a.37.37,0,0,0-.15,0c-.09-.06,0-.3-.19-.21,0,0,.07,0,.08-.07s-.17,0-.12-.1,0,0,0,0-.1,0-.11-.06.1-.12.19-.12,0-.09,0-.12.13,0,.17-.08a.25.25,0,0,1,0-.19c.05.07.1,0,.13,0s.18,0,.25,0,0-.06,0-.06,0,.1,0,.12,0,.06.09,0,0-.06,0,0,.07.14.11.21-.06.06,0,.1,0,0,.08,0-.13.3-.08.46A.14.14,0,0,1,12.53,15.24Z" transform="translate(-2.11 -1.77)"/><path d="M13.74,15.77a.12.12,0,0,1-.12-.06s0-.07,0-.1,0-.06.06-.06a.12.12,0,0,1,.13,0s.09.1.05.16S13.78,15.75,13.74,15.77Z" transform="translate(-2.11 -1.77)"/><path class="cls-3" d="M13.77,15.63s0,0,0,0,0,0,0,.08A.08.08,0,0,1,13.77,15.63Z" transform="translate(-2.11 -1.77)"/><path class="cls-3" d="M13.78,15.68h0Z" transform="translate(-2.11 -1.77)"/><path class="cls-3" d="M13.66,15.7h0l.05,0S13.64,15.75,13.66,15.7Z" transform="translate(-2.11 -1.77)"/><path class="cls-3" d="M13.68,15.58s.05.07,0,.09-.06,0-.06-.06h0s0,0,.05-.06h0s0,0,0,0,0,0,0,0S13.72,15.58,13.68,15.58Z" transform="translate(-2.11 -1.77)"/><path class="cls-3" d="M13.74,15.55h0s0,0,0,0Z" transform="translate(-2.11 -1.77)"/></g><rect class="cls-1" x="14.83" y="10.46" width="4.29" height="3.02" transform="translate(1.34 25.96) rotate(-84.53)"/><g class="cls-2"><path d="M18.17,12.3h0s0,0,0,0S18.18,12.3,18.17,12.3Z" transform="translate(-2.11 -1.77)"/><path d="M18.58,10.52h0s0,0,0,0,0,0,.05,0S18.61,10.52,18.58,10.52Z" transform="translate(-2.11 -1.77)"/><path d="M18.2,10.93s-.08,0,0,.08,0,0,.05,0a.62.62,0,0,0,.14.38s-.07,0-.09,0-.05-.17-.14-.12a.37.37,0,0,1-.29-.06c-.13,0,0,.21-.18.27a.11.11,0,0,1-.06-.07c0-.07.06-.14,0-.21s-.07,0-.11,0-.18-.11-.25-.17.09,0,.11-.08,0-.07-.06-.06,0-.06,0-.08-.18,0-.12-.07.05,0,.07,0l0,0c.1-.05.21,0,.31-.08s-.1-.15-.12-.24,0,.05.07.07h.08c0-.09.12-.06.16-.12s0,0,0,.07.07,0,.08.08.07,0,.11-.06,0-.07,0-.11,0,0,.06,0-.09.16-.08.24,0,.06.05.05l0,0a0,0,0,0,0,0,0l.08-.06s0,.05,0,.07h.06a.18.18,0,0,0-.09.13s0,0,0,0l0,0a.31.31,0,0,0,.21,0s0,0,0,0A.71.71,0,0,0,18.2,10.93Z" transform="translate(-2.11 -1.77)"/><path d="M18,12.6c-.06.07-.12.06-.2,0s-.08-.07-.09-.11,0-.13.08-.11.06,0,.1,0a.13.13,0,0,1,.1.06s0,.05,0,.07S18,12.57,18,12.6Z" transform="translate(-2.11 -1.77)"/><path class="cls-3" d="M18,12.53s0,0,0,0S18,12.5,18,12.53Z" transform="translate(-2.11 -1.77)"/><path class="cls-3" d="M17.94,12.51s-.05,0-.08,0,0,0,0,0,0,0,0,0,0,0,0,0-.05-.06-.07,0,0,0,.06,0,0,0,0,0,0,0,.06,0,0,0,0,0h0s0,0,0,0,0,0,.05,0,0,0,0,0,0,0,0,0Z" transform="translate(-2.11 -1.77)"/><path class="cls-3" d="M17.92,12.53h0s0,.05,0,0,0,0,0,.06h0s0,0,0,0l0,0s0,0,0,0,0,0-.05,0,0-.08,0-.07h.08s0,0,0,0h0s0,0,.05,0,0,0,0-.05.06,0,.08,0S17.93,12.5,17.92,12.53Z" transform="translate(-2.11 -1.77)"/><path d="M17.92,12.59h0Z" transform="translate(-2.11 -1.77)"/><polygon points="15.74 10.69 15.77 10.68 15.77 10.69 15.74 10.69"/><path d="M18.08,10.29l0,0Z" transform="translate(-2.11 -1.77)"/><path class="cls-3" d="M17.82,12.45s0,0,0,0,0,0,0,0Z" transform="translate(-2.11 -1.77)"/><path d="M17.94,10.38s0-.05,0,0A0,0,0,0,1,17.94,10.38Z" transform="translate(-2.11 -1.77)"/><path d="M17.58,13.66s0,.1-.07.1a0,0,0,0,0,0,0s0,0,0,.06-.08,0-.17,0,0,.06,0,.09,0,0,0,0,0,.18,0,.27,0,0,0,0l0-.18a.56.56,0,0,0-.44,0c-.05,0,0,.1-.07.06s.09-.15,0-.22a1.23,1.23,0,0,1-.2-.19c0-.06.09,0,0-.1s0,0,0,0,.08,0,.07-.07-.06,0-.05,0,.06,0,.07,0,0,0,0-.1,0,0,.06,0a.22.22,0,0,0,.07-.09.12.12,0,0,1,0,0s.11,0,.16,0,0-.05,0-.08.05.06.08,0l0,0c.15,0,.25.09.4.08a.42.42,0,0,0,.21.13s0,.05,0,.09l.06,0s0,0,0,0l.05,0a.19.19,0,0,0-.05.1s0,0,.05.05S17.59,13.65,17.58,13.66Z" transform="translate(-2.11 -1.77)"/><path d="M17.83,9.94a0,0,0,0,1,0,0S17.85,9.93,17.83,9.94Z" transform="translate(-2.11 -1.77)"/><path d="M17.26,12.85s0,0,0,.06-.07.08-.14.05-.05-.09-.12-.08-.07-.16,0-.23.09,0,.09-.06,0,0,.06,0,0,0,.05,0,0,.08.07.06a0,0,0,0,0,0,.07C17.22,12.76,17.33,12.82,17.26,12.85Z" transform="translate(-2.11 -1.77)"/><rect class="cls-3" x="17.22" y="12.75" height="0.02" transform="matrix(0.1, -1, 1, 0.1, 0.77, 26.92)"/><path class="cls-3" d="M17.2,12.73s0,0,0,0,0,0,0,0,0,0,0,0h0Z" transform="translate(-2.11 -1.77)"/><polygon class="cls-3" points="15.07 11.05 15.09 11.03 15.09 11.04 15.07 11.05"/><path class="cls-3" d="M17.14,12.88s0,0,0,0Z" transform="translate(-2.11 -1.77)"/><polygon class="cls-3" points="15.03 10.91 15.03 10.94 15.02 10.92 15.03 10.91"/><polygon class="cls-3" points="14.98 10.94 15.01 10.93 14.99 10.94 14.98 10.94"/><path class="cls-3" d="M17.08,12.7h0Z" transform="translate(-2.11 -1.77)"/><path class="cls-3" d="M17.07,12.77h0Z" transform="translate(-2.11 -1.77)"/><path class="cls-3" d="M17,12.76h0Z" transform="translate(-2.11 -1.77)"/><path d="M16.39,12.05s0-.05,0-.06,0,0,0,0S16.41,12.06,16.39,12.05Z" transform="translate(-2.11 -1.77)"/><path d="M16.22,12.08c-.1,0-.11.13-.2.17s0-.05-.07-.05,0,0,0,.06,0-.06,0,0a.15.15,0,0,0-.1.06c-.08,0-.08-.21-.18-.11s.05,0,0-.07-.12,0-.1-.05,0,0,0,0-.07,0-.09,0,0-.1.11-.12,0-.06,0-.09.09,0,.11-.09a.17.17,0,0,1,0-.14c.05,0,.07,0,.09,0s.12-.06.19,0,0,0,0,0,0,.07,0,.07.05,0,.08,0,0,0,0,0,.08.09.13.13,0,.05,0,.07,0,0,.06,0,0,.24.05.34A.1.1,0,0,1,16.22,12.08Z" transform="translate(-2.11 -1.77)"/><path d="M17.19,12.19a.11.11,0,0,1-.1,0s0-.06,0-.07,0,0,0-.06.06,0,.09,0,.09.05.08.1S17.21,12.17,17.19,12.19Z" transform="translate(-2.11 -1.77)"/><path class="cls-3" d="M17.18,12.08s0,0,0,0,0,0,0,0A0,0,0,0,1,17.18,12.08Z" transform="translate(-2.11 -1.77)"/><path class="cls-3" d="M17.2,12.12h0Z" transform="translate(-2.11 -1.77)"/><path class="cls-3" d="M17.12,12.16h0l0,0S17.11,12.2,17.12,12.16Z" transform="translate(-2.11 -1.77)"/><path class="cls-3" d="M17.11,12.07s0,0,0,.06,0,0-.05,0h0s0,0,0,0h0S17.13,12.06,17.11,12.07Z" transform="translate(-2.11 -1.77)"/><path class="cls-3" d="M17.14,12h0s0,0,0,0Z" transform="translate(-2.11 -1.77)"/></g><rect class="cls-1" x="8.81" y="7.82" width="3.86" height="2.71" transform="matrix(0.85, -0.53, 0.53, 0.85, -5.33, 5.29)"/><g class="cls-2"><path d="M11.15,10.21h0s0,0,0,0Z" transform="translate(-2.11 -1.77)"/><path d="M12.65,9.54v0s0,0,.06,0,0,0,0,0S12.67,9.55,12.65,9.54Z" transform="translate(-2.11 -1.77)"/><path d="M12.15,9.48s-.05-.05-.08,0,0,0,0,0a.76.76,0,0,0-.2.32s0,0,0-.08.09-.13,0-.16a.32.32,0,0,1-.11-.24c-.11-.08-.18.08-.29,0a.06.06,0,0,1,0-.07c0-.06.13,0,.16-.11s-.05,0-.06-.07,0-.2,0-.28.07.05.11,0,.05-.05,0-.08.05,0,.07,0-.09-.12,0-.11,0,0,0,0v0c.09,0,.15.13.23.18s.05-.14.1-.21,0,.06,0,.09l0,.06c.08,0,.11.05.17.05s0,0-.05,0,0,.07,0,.1.07,0,.1,0,.07,0,.1,0,0,0,0,0-.17,0-.22.09,0,0,0,.05h0s0,0,0,0l.08,0s0,0,0,0l0,0a.17.17,0,0,0-.14,0s0,0,0,0,0,0,0,0a.24.24,0,0,0,.09.16s0,0,0,0A.86.86,0,0,0,12.15,9.48Z" transform="translate(-2.11 -1.77)"/><path d="M10.84,10.25c-.08,0-.1-.06-.13-.12s0-.1,0-.12.09-.07.12,0,.06,0,.08.05,0,.07,0,.11,0,0,0,.06S10.85,10.21,10.84,10.25Z" transform="translate(-2.11 -1.77)"/><path class="cls-3" d="M10.87,10.18s0,0,0,0S10.89,10.16,10.87,10.18Z" transform="translate(-2.11 -1.77)"/><path class="cls-3" d="M10.88,10.15s0,0,0-.07,0,0,0,0,0,0,0,0,0,0,0,0,0-.07,0-.07,0,0,0,0,0,0,0,0,0,0,0,0h0l0,0h0s0,0,0,0,0,0,0,0,0,0,0,0Z" transform="translate(-2.11 -1.77)"/><path class="cls-3" d="M10.86,10.16v0s0,0,0,0,0,0,0,.05v0h0s0,0,0,0v0s0,0,0,0,0,0,0,0,0,0,0-.08l0,.06s0,0,0,0h0s0,0,0,0,0,0,0,0,0,.05,0,.06S10.88,10.15,10.86,10.16Z" transform="translate(-2.11 -1.77)"/><path d="M10.81,10.19v0Z" transform="translate(-2.11 -1.77)"/><polygon points="8.76 8.3 8.78 8.31 8.77 8.32 8.76 8.3"/><path d="M12.54,9.05h0Z" transform="translate(-2.11 -1.77)"/><path class="cls-3" d="M10.85,10.05c0-.05,0,0,0,0s0,0,0,0Z" transform="translate(-2.11 -1.77)"/><path d="M12.4,9s0-.05,0,0S12.42,9,12.4,9Z" transform="translate(-2.11 -1.77)"/><path d="M9.86,10.53s-.09,0-.11,0,0,0,0,0l-.05,0c0-.08,0,0-.09-.12s-.05,0-.07.06,0,0,0,0-.11.11-.18.16,0,0,0,0l.11-.12a.51.51,0,0,0-.24-.32s-.08,0-.09,0,.16,0,.18-.09a1.9,1.9,0,0,1,0-.25s.08.05.1,0,0,0,0,0,.06.05.09,0,0,0,0-.06,0,0,.06,0,0-.06.05-.08a.1.1,0,0,1,0,.05h.1a.06.06,0,0,1,0-.06s0,.09.08.11,0-.05.06,0,0,.06,0,.08H10c.07.11.07.23.15.33a.78.78,0,0,0,0,.22s0,0-.07,0v.06s0,0,0,0v.05s-.07,0-.1,0,0,0,0,.06S9.87,10.54,9.86,10.53Z" transform="translate(-2.11 -1.77)"/><path d="M12.65,8.68a0,0,0,0,1,0,0S12.67,8.68,12.65,8.68Z" transform="translate(-2.11 -1.77)"/><path d="M10.27,9.86s0,0-.07,0-.09,0-.1-.07,0-.08,0-.13.08-.13.18-.11,0,.07.09,0,0,0,0,.06,0,0,0,0,0,.06,0,.08,0,0,0,.06S10.32,9.89,10.27,9.86Z" transform="translate(-2.11 -1.77)"/><rect class="cls-3" x="10.31" y="9.77" height="0.02" transform="translate(-5.72 5.15) rotate(-31.9)"/><path class="cls-3" d="M10.32,9.75s0,0,0,0,0,0,0,0,0,0,0,0v0h0Z" transform="translate(-2.11 -1.77)"/><polygon class="cls-3" points="8.14 8.02 8.15 8.02 8.14 8.02 8.14 8.02"/><path class="cls-3" d="M10.18,9.79h0Z" transform="translate(-2.11 -1.77)"/><polygon class="cls-3" points="8.21 7.91 8.19 7.93 8.2 7.91 8.21 7.91"/><polygon class="cls-3" points="8.16 7.89 8.18 7.9 8.17 7.9 8.16 7.89"/><path class="cls-3" d="M10.28,9.65h0Z" transform="translate(-2.11 -1.77)"/><path class="cls-3" d="M10.22,9.68v0Z" transform="translate(-2.11 -1.77)"/><path class="cls-3" d="M10.21,9.65h0Z" transform="translate(-2.11 -1.77)"/><path d="M10.36,8.8s0-.05,0,0a0,0,0,0,1,0,.05S10.36,8.82,10.36,8.8Z" transform="translate(-2.11 -1.77)"/><path d="M10.25,8.69c-.06-.07-.16,0-.23,0s0-.05,0-.08l0,0s0,0,0-.06-.06,0-.09,0,.11-.17,0-.19c0,0,.05,0,.07,0s-.09-.07,0-.1,0,0,0,0,0,0,0-.08.1,0,.15,0,0-.06.05-.07.07,0,.12,0A.12.12,0,0,1,10.29,8s.05,0,.08,0,.11.05.11.13,0,0,0,0-.06,0,0,.08,0,.05,0,.06,0,0,0,0a.25.25,0,0,0,0,.15s-.06,0,0,.06,0,0,0,0-.18.11-.22.22A.08.08,0,0,1,10.25,8.69Z" transform="translate(-2.11 -1.77)"/><path d="M10.7,9.45a.09.09,0,0,1,0-.08s0,0,0-.06,0,0,.06,0,.06,0,.07,0,0,.09,0,.11S10.72,9.45,10.7,9.45Z" transform="translate(-2.11 -1.77)"/><path class="cls-3" d="M10.77,9.38s0,0,0,0,0,0,0,0A0,0,0,0,1,10.77,9.38Z" transform="translate(-2.11 -1.77)"/><path class="cls-3" d="M10.75,9.42h0Z" transform="translate(-2.11 -1.77)"/><path class="cls-3" d="M10.68,9.38h0s0,0,0,0S10.65,9.4,10.68,9.38Z" transform="translate(-2.11 -1.77)"/><path class="cls-3" d="M10.73,9.32s0,.06,0,.06,0,0,0-.06v0s0,0,0,0h0l0,0h0S10.76,9.34,10.73,9.32Z" transform="translate(-2.11 -1.77)"/><path class="cls-3" d="M10.78,9.33h0s0,0,0,0Z" transform="translate(-2.11 -1.77)"/></g><rect class="cls-1" x="15.59" y="2.15" width="3.93" height="5.59" transform="translate(-2.77 2.38) rotate(-13.22)"/><g class="cls-2"><path d="M19.16,4.86h0s0,0,0,0S19.18,4.84,19.16,4.86Z" transform="translate(-2.11 -1.77)"/><path d="M18.94,2.49h0s0-.07,0-.09,0,0,.06,0S19,2.47,18.94,2.49Z" transform="translate(-2.11 -1.77)"/><path d="M18.63,3.15s-.09.05,0,.11.05,0,.07,0a.89.89,0,0,0,.34.41s-.08,0-.13,0-.13-.19-.22-.09a.55.55,0,0,1-.38,0c-.15.1,0,.28-.11.4a.12.12,0,0,1-.1,0c-.06-.09,0-.2-.07-.27s-.08,0-.13,0-.28-.06-.38-.1.1-.09.1-.14,0-.09-.11-.06,0-.08,0-.11-.21.07-.16,0,0,0,.07,0l0,0c.11-.1.25-.14.35-.23s-.17-.14-.24-.24.08,0,.12,0l.1,0c0-.13.12-.13.14-.22s0,.07,0,.09.1,0,.14.06.06-.08.1-.12,0-.1,0-.15.06,0,.08,0,0,.23,0,.33,0,.08.08,0l0,0a0,0,0,0,0,.05,0,.86.86,0,0,0,.07-.1s0,.06,0,.07l.07,0a.25.25,0,0,0-.06.2s.06,0,.07,0,0,0,0,.06a.35.35,0,0,0,.27,0s0,0,0,0A2,2,0,0,0,18.63,3.15Z" transform="translate(-2.11 -1.77)"/><path d="M19.08,5.3c0,.11-.13.12-.23.13s-.13-.06-.15-.11-.06-.14.05-.15.06-.08.1-.1a.19.19,0,0,1,.16,0s0,.06.06.07S19,5.27,19.08,5.3Z" transform="translate(-2.11 -1.77)"/><path class="cls-3" d="M19,5.23s0,0,0,0S19,5.2,19,5.23Z" transform="translate(-2.11 -1.77)"/><path class="cls-3" d="M19,5.21c0-.06-.06,0-.1,0s0,0,0,0,0,0-.05,0,0,0,0,0-.1,0-.11,0,0,0,.07,0,0,0,0,0,0,0,.07,0a0,0,0,0,0,0,0h0s0,0,.06,0,0,0,0,0,0,0,0,0Z" transform="translate(-2.11 -1.77)"/><path class="cls-3" d="M19,5.24h0s0,0,0,0,0,.06.05.07h0s0,0,0,0,0,0,0,0l-.05,0s0,0,0,0,0,0-.06,0,0-.09-.09-.07l.1,0s-.05,0,0,0h0s.05,0,.06,0,0,0,0,0,.08,0,.09,0S19,5.21,19,5.24Z" transform="translate(-2.11 -1.77)"/><path d="M19,5.32h0Z" transform="translate(-2.11 -1.77)"/><polygon points="16.73 3.42 16.76 3.39 16.77 3.41 16.73 3.42"/><path d="M18.22,2.41l0,0Z" transform="translate(-2.11 -1.77)"/><path class="cls-3" d="M18.8,5.19c-.05,0,0,0,0,0s0,0,0,0Z" transform="translate(-2.11 -1.77)"/><path d="M18.08,2.58s-.07,0,0-.05S18.11,2.56,18.08,2.58Z" transform="translate(-2.11 -1.77)"/><path d="M19,6.78s0,.13,0,.15a0,0,0,0,0-.07,0s0,0,0,.08-.08.05-.19.08,0,.08,0,.12,0,0,0,0,.1.2.13.32-.05,0-.05,0l-.12-.21a.73.73,0,0,0-.54.19c-.06,0,0,.13-.07.1s.05-.21,0-.28a2.53,2.53,0,0,1-.33-.16c-.05-.06.11-.08,0-.14s0,0-.07,0,.09-.06.05-.12-.07,0-.08,0,.09,0,.08-.07-.07,0-.08-.1a.08.08,0,0,1,.08,0s.06-.09.05-.14l-.08,0s.14,0,.19-.07-.07,0,0-.09.08,0,.12,0l0-.09c.18,0,.35,0,.53-.06a.78.78,0,0,0,.31.07c0,.05,0,.08,0,.12l.09,0s0,0,0,.07l.07,0s0,.1,0,.14.05,0,.08.05A.07.07,0,0,1,19,6.78Z" transform="translate(-2.11 -1.77)"/><path d="M17.76,2.09a.07.07,0,0,1,0-.06S17.78,2.06,17.76,2.09Z" transform="translate(-2.11 -1.77)"/><path d="M18.28,5.91s0,0,0,.09-.06.12-.15.11-.09-.07-.18,0-.15-.16-.07-.29.12,0,.08-.11,0,0,.09,0,0-.05,0,0,.07.08.12,0,0,.07.07.07S18.35,5.85,18.28,5.91Z" transform="translate(-2.11 -1.77)"/><rect class="cls-3" x="18.18" y="5.82" width="0.02" transform="translate(-2.96 2.54) rotate(-13.22)"/><path class="cls-3" d="M18.15,5.79s0,0-.06,0,0,0,0,0,0,0,0,0h.05l0,0Z" transform="translate(-2.11 -1.77)"/><polygon class="cls-3" points="16.06 4.13 16.07 4.11 16.07 4.13 16.06 4.13"/><path class="cls-3" d="M18.14,6s0,0,0,0Z" transform="translate(-2.11 -1.77)"/><polygon class="cls-3" points="15.94 3.99 15.96 4.01 15.94 4 15.94 3.99"/><polygon class="cls-3" points="15.9 4.04 15.92 4.02 15.91 4.04 15.9 4.04"/><path class="cls-3" d="M18,5.8l0,0Z" transform="translate(-2.11 -1.77)"/><path class="cls-3" d="M18,5.9l0,0Z" transform="translate(-2.11 -1.77)"/><path class="cls-3" d="M18,5.89l0,0Z" transform="translate(-2.11 -1.77)"/><path d="M16.87,5.29s-.07,0,0-.07a.05.05,0,0,1,.08,0S16.89,5.3,16.87,5.29Z" transform="translate(-2.11 -1.77)"/><path d="M16.67,5.4c-.13,0-.08.2-.18.29s0-.05-.1,0a.17.17,0,0,0,0,.07s0-.07-.09,0a.34.34,0,0,0-.09.12c-.11,0-.19-.23-.27-.06,0,0,0-.07,0-.1s-.14.09-.15,0,0,0,0,0-.09.06-.13,0,0-.15.08-.2,0-.07-.07-.1.1-.07.1-.15A.2.2,0,0,1,15.7,5c.08,0,.07-.06.09-.09s.12-.13.22-.1,0,0,0-.06,0,.1.09.08.07,0,.1,0,0,0,0,0,.14.07.21.1,0,.08.05.08,0,0,.07,0,.06.31.19.4A.17.17,0,0,1,16.67,5.4Z" transform="translate(-2.11 -1.77)"/><path d="M17.91,5.13a.11.11,0,0,1-.12,0s0-.07-.08-.07,0-.06,0-.08.05-.07.1-.08S18,5,18,5,17.93,5.09,17.91,5.13Z" transform="translate(-2.11 -1.77)"/><path class="cls-3" d="M17.85,5s0,0,0,0,.05,0,.05,0A.06.06,0,0,1,17.85,5Z" transform="translate(-2.11 -1.77)"/><path class="cls-3" d="M17.9,5h0Z" transform="translate(-2.11 -1.77)"/><path class="cls-3" d="M17.81,5.12l0,0h0s0,0,.05,0S17.82,5.17,17.81,5.12Z" transform="translate(-2.11 -1.77)"/><path class="cls-3" d="M17.76,5s.07,0,.06.06-.06,0-.08,0h0c-.06,0,0,0,0-.08h0s0,0,0,0h0S17.79,5,17.76,5Z" transform="translate(-2.11 -1.77)"/><path class="cls-3" d="M17.79,5v0s0,0,0,0Z" transform="translate(-2.11 -1.77)"/></g></svg>