<svg id="Layer_1" data-name="Layer 1" xmlns="http://www.w3.org/2000/svg" viewBox="0 0 1024.6 2.94"><defs><style>.cls-1{fill:#fff;}.cls-2{fill:none;stroke:#000;stroke-linecap:round;stroke-linejoin:round;stroke-width:0;}</style></defs><title>Untitled-3</title><path class="cls-1" d="M458.8,1.24c4.85-.11,15.5-.16,15.29,0,.21-.19.21-.19,7.46-.33-.15.13,6.37.1,10.51.09-3.42-.1-8.12-.11-17.52-.14-8.57.28-26.37-.15-34.4.16C446,1.12,451.64,1.31,458.8,1.24Z" transform="translate(0 -0.52)"/><path class="cls-1" d="M497.32,2.08,498.59,2l-14.88.12C486.73,2.07,496.85,2,497.32,2.08Z" transform="translate(0 -0.52)"/><path d="M545.33,1.88c-1.34.14,6.23.22,6.08.35-.27-.28,11.86-.06,18.39-.09l2.62-.22c-6.33-.16-22.32-.09-35.86-.11Z" transform="translate(0 -0.52)"/><path class="cls-1" d="M557.53,2l4.28-.14C558.24,1.94,550,2,557.53,2Z" transform="translate(0 -0.52)"/><path class="cls-1" d="M548.38,1.28c-10.59,0,6.38.09-4.28.13C547.68,1.38,551.81,1.37,548.38,1.28Z" transform="translate(0 -0.52)"/><polygon points="592.7 1.19 570.17 1.3 579.5 1.39 592.7 1.19"/><path d="M593.93,2.18c-2.94,0-7.57-.08-3.36-.16,8.06.17,13.06-.07,20.56.08L604,2.17c1,.18,14.95-.19,14.58.14,9.69-.23-7.36-.28,5.22-.44-11.86.06-20.63,0-30.59-.07,2.89.07,4.06.06,8.13.11-7.08,0-16.64.11-24.91.13C580.88,2.25,587,2.06,593.93,2.18Z" transform="translate(0 -0.52)"/><path d="M629.85,2.22c7.65,0,19.43,0,21.48-.22-8.06-.17-9.49,0-13.12.14-2.33,0-10-.06-6.86-.19C632.47,2,626.41,2.13,629.85,2.22Z" transform="translate(0 -0.52)"/><path d="M659.86,2.27l5.58-.22-3.59,0-.41-.16c-.64,0-3.32.32-11,.3C654.46,2.35,655.82,2.21,659.86,2.27Z" transform="translate(0 -0.52)"/><path d="M661.71,1.2c5.18.1,8.2,0,14.16,0-8.28,0-20,0-22.53.1l.65,0s-7.8.12-13.3.27C649.14,1.36,664.2,1.58,661.71,1.2Z" transform="translate(0 -0.52)"/><path d="M651.11,1.18l6-.13Z" transform="translate(0 -0.52)"/><polygon points="683.52 1.69 671.82 1.62 674.68 1.69 683.52 1.69"/><path d="M669.54,1.56c9.39,0-5.12-.17,3.71-.16,2.39,0-13,0-13.67.1C661.88,1.54,668.57,1.38,669.54,1.56Z" transform="translate(0 -0.52)"/><path d="M691.16,2.23l9.63-.16Z" transform="translate(0 -0.52)"/><path d="M715.23,2.33l1.89-.11c9.32.09,21.91-.07,28.69.18-1.6-.14,3.88-.29-4.32-.33-1.28.07-4.21.07-3.74.16-3.5,0-2.78-.13-5.12-.17-6,.13-15.35,0-20.19.14,2.37,0,2.94,0,4.68,0-10.25.2-12-.29-16.54,0C704.22,2.16,710.45,2.38,715.23,2.33Z" transform="translate(0 -0.52)"/><path d="M714.38,1.55l-8.23-.05c2.56-.15,10.05,0,11.39-.14-.49-.09-8.68-.14-5.68-.2-1,.36-11.23,0-7,.42-10.66,0-3.28-.22-14.51-.2l-3.17.19C699.71,1.48,701.87,1.64,714.38,1.55Z" transform="translate(0 -0.52)"/><path d="M746.14,1.6l4,.12L748,1.55c18.33,0,29.08.67,40.15.57,13.83-.23,26.69.11,40.8.08,6.87-.15-6.61-.09-7.32-.18,2-.28,6.69.15,9.9-.08.9-.21-14.45-.23-20.51-.35a63.73,63.73,0,0,0-6.8.21c-1.33-.12-6.69-.15-8-.27-11,.17-16.74-.14-27.55,0-3.37-.15,8.1,0,4.52-.05h-5.9l.62,0c-8,.16-22.83,0-28-.09,4,.05,6.86.18,2.08.23L738,1.5l-10.33.26C735.55,1.58,744.6,1.94,746.14,1.6Z" transform="translate(0 -0.52)"/><path d="M734.73,1.28c-12.27-.1,1.46.27-12,.18l14.18,0Z" transform="translate(0 -0.52)"/><path class="cls-1" d="M793.48,1.73l6.07.12C796.25,1.6,786.7,1.94,793.48,1.73Z" transform="translate(0 -0.52)"/><polygon class="cls-1" points="815.88 1.21 812.67 1.44 818.39 1.31 815.88 1.21"/><path d="M836.33,2c4.56-.12-.89-.22-6.17-.19C834.92,1.83,837.4,1.93,836.33,2Z" transform="translate(0 -0.52)"/><path class="cls-1" d="M870,2.46c-10.29,0,9.12.06,1.73.27C873.08,2.63,878.29,2.5,870,2.46Z" transform="translate(0 -0.52)"/><path d="M903.32,3c-3.72,0-5.24,0-5.74-.06C900.28,3,902.44,3,903.32,3Z" transform="translate(0 -0.52)"/><path d="M774.86,2.29h0Z" transform="translate(0 -0.52)"/><path d="M777.22,2.3h0Z" transform="translate(0 -0.52)"/><path d="M853.68,2.8h0l-.8,0Z" transform="translate(0 -0.52)"/><path d="M527.28,2.19l-4.78,0,4.73,0Z" transform="translate(0 -0.52)"/><path d="M521.74,1.87c8.45-.15,9,.35,22.74.24l-17.25.08C519.39,2,533.3,2.07,521.74,1.87Z" transform="translate(0 -0.52)"/><path d="M636,1.59h0Z" transform="translate(0 -0.52)"/><polygon class="cls-1" points="149.96 1.59 149.88 1.66 142.32 1.57 149.96 1.59"/><path class="cls-1" d="M151,2.23l12.84.12-76.07,0,2.46-.09C89.18,2.18,153.24,2.33,151,2.23Z" transform="translate(0 -0.52)"/><path class="cls-1" d="M154.66,2.13c7.39-.27,12.27.09,21.33-.09-6,.12-10.33.26-16.16.19Z" transform="translate(0 -0.52)"/><path class="cls-2" d="M180,1.61c4.07.06,8.92-.06,11.22,0C189.83,1.8,183.52,1.64,180,1.61Z" transform="translate(0 -0.52)"/><path d="M191,.83h1.89l-1.93,0Z" transform="translate(0 -0.52)"/><path d="M190.91.87,190.8,1C189.47.93,189.84.9,190.91.87Z" transform="translate(0 -0.52)"/><path d="M192.84.83c1.68,0,3.67-.06,4.7-.1h-1.75c2.39,0,6.61-.1,7.73,0-4.7,0-4.77,0-4.91.18l7.63,0C204.8,1.17,199.64.85,192.84.83Z" transform="translate(0 -0.52)"/><path class="cls-2" d="M217,.76l-7.86.17C207,.76,214,.76,217,.76Z" transform="translate(0 -0.52)"/><path d="M228.54,1c-1.82.05-9.47,0-4.84.11-1.25,0-2.73,0-4.3,0C224.57,1.05,219.71.85,228.54,1Z" transform="translate(0 -0.52)"/><path d="M219.4,1.1h0Z" transform="translate(0 -0.52)"/><path class="cls-2" d="M137.28,1.86c.95,0,.92,0,.5.07Z" transform="translate(0 -0.52)"/><path d="M244.25,1.15h0Z" transform="translate(0 -0.52)"/><path d="M0,2.78c10.27.05,20,.11,34.84,0-.34-.22,6-.06,6.83-.29-15.37,0,57.9-.14,45.63-.24l-3.67.11,3.82-.23c7.36,0,17.44.24,22.44.11,1.38.07-62.78,0-60.36.07-5.68-.26,85.89-.25,88.25-.37l1,.14c11.38-.15,18.69-.35,28.25-.45l2.17.17c-7-.06-8.93.06-16.09.13,12.41,0,14.66.07,24.13,0-.34-.22-8.13-.11,3.8-.23,3.43.09-4.5.33,6.16.29,12.9.06,10.32-.27,21.56-.29l-7.57-.08c4.14,0,11.86-.06,15.85.06-4.7,0-16.64.11-16.3.33,4.77-.05,15.29,0,19.44,0l-2.54.15c4.55.15,7.16-.07,12.9.06,5.42-.08-3.28-.22-.26-.28,1.12.05,11.63.13,15.29,0-2.57-.32-12.49.1-19.2-.21l10,.05c6.25-.32-15.93,0-12.7-.25,7.47-.33,15.58.32,22.53-.1-4.62-.08-19.35-.09-17.46-.21,5.2.12,8.92-.1,16.1-.14l8.68.15c3.66-.11.71-.11-2.16-.17,12.75.18,34.24,0,52.25.19,10.67,0,1.34-.14,6.2-.25,5.67.2,15.28,0,21.17,0,1.76,0,4.93-.18,3.25-.26L319.33,1c.72-.1-1.46-.27-6.78-.25,3.69.38-21-.23-22,.2l.21-.2-19,.13.56,0c.07-.06-16.08.13-26.59,0,3-.06,20.61,0,10.25-.2,7.8-.11,21.75.06,36,0L289.12.59c15-.18,34.73.06,51.28,0l-4.92.17c5.83.07,13.32.22,18.8.07-7.08,0-3.44-.1-2.17-.17,9.56-.1,23.59,0,36.64-.06,0,0-.63,0-.07.06l13.68-.1c6.46,0,8.69.13,12.68.25,2.39,0,8.3,0,6-.13-1.28,0-2.55,0-3.39,0,6.92-.19,4.84.06,13.5-.06-6.69.16,2.08.23,1.29.4,10.13-.07.94-.3,2.21-.37C447,.75,448.57.9,460.92.93c.71-.1-8.76-.07-9.81-.19,3.51,0,7.64,0,8.28,0L451.82.64C464.65.76,477,.8,491.25.71l-1.12,0H499l-3.18.19c4.77,0,9.89.12,12.43,0l-1.75,0,6-.06L506.3.94c7.59.08,18.07-.31,30.41-.28,2.66.26-21.32.09-22.9.43,4.08,0,11.07.11,13.55,0C526.87,1,523.92,1,521,1c10.81-.18,27,.1,33.84-.19L546.68.72c9.46,0,15.55.32,18.72.13l-7.46.33c9.62-.16,22-.13,31-.26.22-.19-13,0-12.35,0l4.28-.14c14,.11,4,.12,21,.23L602,.85c5.66.2,20.83-.18,15.13.17L612.48.94l.39.15,19.6-.1c-1.91.11,7.56.08,5,.23l7.23-.14c3.29.22-13.28.27-14.06.43.26.11,3.66.09,5.33.08-8.71.16-13-.22-21.66-.23L610,1.5l.23-.19c-3.58,0-6.67.16-7.94.24-8.55-.26-17.75.05-30.66,0,10.73-.11-6.86-.19-5-.24-5.89,0-20.45.34-25.47.1-3.44-.09,7.22-.13-1-.18-5.33,0-9,.13-5.56.22-11.86.06-26,0-38.93,0l3.09-.13c-8.13-.11-16,.07-20.29.21-1.12-.06-1.75,0-.49-.09-10.36-.22-13.28.26-30.31.21,1,.18,8.61.2,14,.11l-1.4.21c14.73,0,31.29,0,43.22-.16L498,2c10.31.28,7.4-.26,17.07,0,7.17-.07-5.19-.11.22-.19,5.07.06-1.3.35,7.19.37-31.87.1-68.16.08-101.53.12a24.4,24.4,0,0,0,2.87.06c-11.52.28-104.36-.47-107.36.07-1.67-.07,3.73-.16-3.35-.15-.64,0-2.46.09-.79.16-17.94-.29-41.89,0-63.48-.17.48.09-4.29.14-4.37.2-7.41-.21-20.05,0-27-.1l2.25.1H197.91c-.64,0,2.32,0,4.07.06a41,41,0,0,1-6.3-.16l-9.7.22c-28.46-.37-63.93.21-96.68,0-4.92.17-9.13.25-17.42.27l4.07,0c-8.43.15-.49-.09-7.65,0-4.86.11-1.49.27,5.11.17,4.13.06,1.59.12-1.37.16C45.76,3.22,21.29,3.1,0,2.78Z" transform="translate(0 -0.52)"/><path d="M995,3.46c-2.86-.09,11.29-.08,4.37-.26-22-.35-57.71-.07-83.76-.34-6.94-.14-8.79-.14-15-.22-.12,0-.13.07.17.1-7.1,0-18.57,0-25.65,0-2,0-3.5.17.36.14-10.78.12-18.6-.26-24.67-.15,5.24.09-5.21.13,1,.21-11.3,0-10.28-.48-19.21-.54-.53,0-1.08.08.72.09-9.74-.21-29.91.13-31-.22l-3.94.14c-4.28-.11-3.21-.19-10.35-.24-4.65.06.18.13-1.52.19-2-.14-14.44-.08-20.12-.28-.33-.22,10.11.29,15.75.1a7.85,7.85,0,0,0-1.79-.06c29.57,0,52.1.66,76.42.5,5.34.15,9.45,0,11.83-.14-4.39-.07-16.91-.22-17.2.09l-7.61-.2A25.15,25.15,0,0,1,839.71,2c5.36,0,11.43-.26,4.2-.37,14.1,0-4.55.65,8,.57L853.68,2c-2.37.12,8.45.22,12.49.15l-1.68,0c33.25.11,77.63,0,114.41-.06,9,.55,27-.2,35.48.25,4-.08-5.77-.2,2-.26,3.89,0,4.24.11,4.06.15l3.56-.05C1026.83,2.63,1020,3.1,995,3.46Z" transform="translate(0 -0.52)"/></svg>