<svg id="Layer_1" data-name="Layer 1" xmlns="http://www.w3.org/2000/svg" viewBox="0 0 248.27 1.47"><defs><style>.cls-1{fill:#fff;}.cls-2{fill:none;stroke:#000;stroke-linecap:round;stroke-linejoin:round;stroke-width:0;}</style></defs><title>Untitled-1</title><path class="cls-1" d="M112.84,2.74a27.4,27.4,0,0,1,3.7,0c0-.1,0-.1,1.81-.17a21.69,21.69,0,0,0,2.55.05c-.83-.05-2-.06-4.25-.07-2.08.14-6.39-.08-8.33.08C109.73,2.68,111.1,2.78,112.84,2.74Z" transform="translate(-1.67 -2.38)"/><path class="cls-1" d="M122.17,3.17l.31,0-3.61.06C119.6,3.16,122.06,3.12,122.17,3.17Z" transform="translate(-1.67 -2.38)"/><path d="M133.81,3.06c-.33.07,1.5.11,1.47.18a44,44,0,0,1,4.45-.05l.64-.11C138.84,3,135,3,131.68,3Z" transform="translate(-1.67 -2.38)"/><path class="cls-1" d="M136.76,3.14l1-.07C136.93,3.09,134.93,3.1,136.76,3.14Z" transform="translate(-1.67 -2.38)"/><path class="cls-1" d="M134.54,2.76c-2.56,0,1.55.05-1,.07C134.37,2.81,135.38,2.81,134.54,2.76Z" transform="translate(-1.67 -2.38)"/><polygon points="143.62 0.6 138.16 0.65 140.41 0.7 143.62 0.6"/><path d="M145.58,3.21c-.71,0-1.83,0-.81-.08,1.95.09,3.16,0,5,0l-1.74,0c.24.09,3.63-.09,3.54.07,2.34-.12-1.79-.14,1.26-.22-2.87,0-5,0-7.41,0,.7,0,1,0,2,.06-1.72,0-4,0-6,.06C142.42,3.25,143.9,3.15,145.58,3.21Z" transform="translate(-1.67 -2.38)"/><path d="M154.28,3.23a51.65,51.65,0,0,0,5.21-.11,20.61,20.61,0,0,0-3.18.07c-.56,0-2.42,0-1.66-.09C154.92,3.13,153.45,3.19,154.28,3.23Z" transform="translate(-1.67 -2.38)"/><path d="M161.56,3.26l1.35-.11-.87,0-.1-.08a14.69,14.69,0,0,1-2.66.15C160.25,3.3,160.58,3.23,161.56,3.26Z" transform="translate(-1.67 -2.38)"/><path d="M162,2.72c1.26,0,2,0,3.44,0-2,0-4.86,0-5.46,0l.15,0s-1.89.06-3.22.14C159,2.8,162.61,2.91,162,2.72Z" transform="translate(-1.67 -2.38)"/><path d="M159.44,2.71l1.46-.06Z" transform="translate(-1.67 -2.38)"/><polygon points="165.62 0.85 162.79 0.81 163.48 0.84 165.62 0.85"/><path d="M163.9,2.9c2.28,0-1.24-.08.9-.08.58,0-3.14,0-3.31.06A23.17,23.17,0,0,1,163.9,2.9Z" transform="translate(-1.67 -2.38)"/><path d="M169.14,3.24l2.33-.08Z" transform="translate(-1.67 -2.38)"/><path d="M175,3.29l.46-.06c2.26,0,5.31,0,6.95.09-.38-.07.94-.14-1-.16-.3,0-1,0-.9.08-.85,0-.68-.07-1.24-.09-1.46.07-3.72,0-4.89.07.57,0,.71,0,1.13,0-2.48.1-2.92-.14-4,0C172.3,3.2,173.81,3.31,175,3.29Z" transform="translate(-1.67 -2.38)"/><path d="M174.77,2.9l-2,0c.62-.08,2.44,0,2.76-.08-.12,0-2.1-.07-1.37-.1-.25.18-2.72,0-1.69.21-2.59,0-.8-.11-3.52-.1l-.77.1C171.21,2.86,171.74,2.94,174.77,2.9Z" transform="translate(-1.67 -2.38)"/><path d="M182.46,2.92l1,.06-.52-.08c4.44,0,7,.33,9.73.28,3.35-.11,6.46.06,9.88,0,1.67-.07-1.6,0-1.77-.09.47-.14,1.62.08,2.39,0,.22-.1-3.5-.11-5-.17a7.39,7.39,0,0,0-1.65.1c-.32,0-1.62-.07-1.95-.13-2.66.08-4.05-.07-6.67,0-.82-.08,2,0,1.09,0h-1.28c-1.94.08-5.53,0-6.78,0,1,0,1.66.09.5.11l-.95-.09L178,3C179.9,2.92,182.09,3.09,182.46,2.92Z" transform="translate(-1.67 -2.38)"/><path d="M179.7,2.76c-3,0,.35.14-2.91.09h3.44Z" transform="translate(-1.67 -2.38)"/><path class="cls-1" d="M193.93,3l1.47.06C194.6,2.92,192.29,3.09,193.93,3Z" transform="translate(-1.67 -2.38)"/><polygon class="cls-1" points="197.69 0.6 196.91 0.72 198.3 0.66 197.69 0.6"/><path d="M204.32,3.13c1.1-.06-.22-.11-1.5-.1C204,3,204.58,3.09,204.32,3.13Z" transform="translate(-1.67 -2.38)"/><path class="cls-1" d="M212.48,3.35c-2.5,0,2.21,0,.42.14C213.22,3.44,214.48,3.37,212.48,3.35Z" transform="translate(-1.67 -2.38)"/><path d="M220.55,3.63a8,8,0,0,1-1.39,0C219.81,3.61,220.33,3.61,220.55,3.63Z" transform="translate(-1.67 -2.38)"/><path d="M189.42,3.27h0Z" transform="translate(-1.67 -2.38)"/><path d="M190,3.27h0Z" transform="translate(-1.67 -2.38)"/><path d="M208.52,3.52h0Z" transform="translate(-1.67 -2.38)"/><path d="M129.43,3.22h0Z" transform="translate(-1.67 -2.38)"/><path d="M128.09,3.06c2-.08,2.19.17,5.51.12l-4.18,0C127.52,3.1,130.89,3.16,128.09,3.06Z" transform="translate(-1.67 -2.38)"/><path d="M155.77,2.92h.12C156.09,2.91,156,2.91,155.77,2.92Z" transform="translate(-1.67 -2.38)"/><polygon class="cls-1" points="36.34 0.8 36.32 0.83 34.48 0.79 36.34 0.8"/><path class="cls-1" d="M38.26,3.24l3.11.06-18.44,0,.6,0C23.28,3.21,38.8,3.29,38.26,3.24Z" transform="translate(-1.67 -2.38)"/><path class="cls-1" d="M39.14,3.19c1.79-.14,3,.05,5.17,0-1.46.06-2.5.13-3.92.1Z" transform="translate(-1.67 -2.38)"/><path class="cls-2" d="M45.29,2.93c1,0,2.16,0,2.72,0A21.68,21.68,0,0,1,45.29,2.93Z" transform="translate(-1.67 -2.38)"/><path d="M47.94,2.54h.45l-.46,0Z" transform="translate(-1.67 -2.38)"/><path d="M47.93,2.56l0,0C47.58,2.59,47.67,2.57,47.93,2.56Z" transform="translate(-1.67 -2.38)"/><path d="M48.39,2.54l1.14,0h-.42c.58,0,1.6,0,1.87,0-1.14,0-1.16,0-1.19.09h1.85A21.11,21.11,0,0,1,48.39,2.54Z" transform="translate(-1.67 -2.38)"/><path class="cls-2" d="M54.24,2.5l-1.9.09C51.81,2.5,53.53,2.5,54.24,2.5Z" transform="translate(-1.67 -2.38)"/><path d="M57.05,2.6c-.45,0-2.3,0-1.18.06-.3,0-.66,0-1,0A15.21,15.21,0,0,1,57.05,2.6Z" transform="translate(-1.67 -2.38)"/><path d="M54.83,2.67h0Z" transform="translate(-1.67 -2.38)"/><path class="cls-2" d="M34.93,3.05c.23,0,.22,0,.12,0Z" transform="translate(-1.67 -2.38)"/><path d="M60.85,2.7h0Z" transform="translate(-1.67 -2.38)"/><path d="M1.67,3.51c2.49,0,4.85.06,8.44,0-.08-.11,1.45,0,1.65-.15-3.72,0,14-.07,11.06-.11l-.89,0,.93-.12c1.78,0,4.22.12,5.44.06.33,0-15.22,0-14.63,0-1.38-.13,20.81-.12,21.38-.18l.25.07c2.76-.08,4.53-.18,6.85-.23l.52.09c-1.7,0-2.16,0-3.9.06,3,0,3.55,0,5.85,0-.08-.11-2-.05.92-.11.83,0-1.09.16,1.49.14,3.13,0,2.5-.13,5.23-.14L50.42,3c1,0,2.88,0,3.84,0a29.18,29.18,0,0,0-3.95.16c1.16,0,3.71,0,4.71,0l-.61.08c1.1.07,1.73,0,3.12,0s-.79-.11-.06-.14c.27,0,2.82.06,3.7,0-.62-.16-3,.05-4.65-.1l2.42,0c1.51-.16-3.86,0-3.08-.12,1.81-.17,3.77.16,5.46-.05-1.12,0-4.69,0-4.23-.1,1.26.05,2.16-.06,3.9-.08l2.1.08c.89-.06.17-.06-.52-.09,3.09.09,8.29,0,12.66.1,2.59,0,.32-.07,1.5-.13,1.38.1,3.7,0,5.13,0,.43,0,1.2-.09.79-.13L79,2.61c.18,0-.35-.13-1.64-.12.89.19-5.08-.12-5.34.1l0-.1-4.61.07h.14s-3.9.06-6.45,0c.74,0,5,0,2.49-.1,1.89-.05,5.27,0,8.72,0l-.68-.06c3.63-.09,8.42,0,12.43,0L83,2.51c1.41,0,3.22.11,4.55,0-1.71,0-.83,0-.52-.09,2.31,0,5.71,0,8.88,0,0,0-.16,0,0,0l3.31-.06c1.57,0,2.11.07,3.07.13.58,0,2,0,1.47-.07-.31,0-.62,0-.82,0,1.68-.1,1.17,0,3.27,0-1.62.08.5.11.31.2,2.46,0,.23-.15.54-.19,3,0,3.36.12,6.35.14.17,0-2.12,0-2.37-.09.85,0,1.85,0,2,0l-1.83,0c3.1.07,6.1.08,9.55,0l-.27,0h2.14l-.77.09c1.16,0,2.4.06,3,0h-.42l1.44,0-1.48.09c1.84.05,4.37-.15,7.37-.14.64.13-5.17,0-5.55.22,1,0,2.68.05,3.28,0a10.61,10.61,0,0,0-1.55-.05c2.62-.09,6.55.05,8.2-.09l-2-.06c2.29,0,3.77.16,4.54.07l-1.81.16c2.33-.08,5.32-.06,7.5-.13.06-.09-3.14,0-3,0l1-.07c3.39,0,1,.06,5.08.11l0-.06c1.37.1,5-.09,3.66.08l-1.12,0,.1.08,4.75,0c-.46,0,1.83,0,1.22.11l1.75-.07c.8.12-3.22.14-3.41.22a8.9,8.9,0,0,0,1.29,0c-2.11.08-3.14-.11-5.24-.12l-1.05.07.06-.09c-.87,0-1.62.08-1.92.12-2.08-.13-4.3,0-7.43,0,2.6-.06-1.67-.1-1.22-.12-1.43,0-5,.17-6.18.05-.83-.05,1.75-.07-.23-.09-1.3,0-2.18.06-1.35.11-2.87,0-6.29,0-9.43,0l.75-.07c-2,0-3.88,0-4.92.11-.27,0-.43,0-.12,0-2.51-.11-3.22.13-7.34.11a23.21,23.21,0,0,0,3.39,0l-.34.11c3.57,0,7.58,0,10.47-.08l-1.33.07c2.5.14,1.79-.13,4.14,0,1.73,0-1.26-.05,0-.1s-.32.18,1.74.19c-7.72,0-16.51,0-24.6.06-.15,0,.27,0,.7,0-2.79.14-25.29-.24-26,0-.4,0,.91-.08-.81-.07-.16,0-.6,0-.19.08C73,3.21,67.2,3.37,62,3.27c.12,0-1,.07-1.06.1-1.8-.1-4.86,0-6.54-.05l.54.05H49.62a9.59,9.59,0,0,0,1,0,4.72,4.72,0,0,1-1.53-.08l-2.35.11c-6.89-.18-15.49.11-23.42,0-1.2.09-2.22.13-4.23.14l1,0c-2,.08-.12,0-1.85,0-1.18,0-.36.13,1.24.08,1,0,.38.06-.34.08C12.76,3.74,6.83,3.68,1.67,3.51Z" transform="translate(-1.67 -2.38)"/><path d="M242.75,3.85c-.69,0,2.73,0,1.06-.13-5.33-.17-14,0-20.3-.17-1.68-.07-2.13-.07-3.64-.11,0,0,0,0,0,.05-1.72,0-4.5,0-6.22,0-.49,0-.85.09.09.07-2.61.06-4.51-.13-6-.07,1.27,0-1.26.06.26.1-2.74,0-2.49-.24-4.66-.27-.13,0-.26,0,.18.05-2.36-.11-7.25.06-7.51-.11l-.95.07c-1-.06-.78-.1-2.51-.12-1.13,0,0,.06-.37.09s-3.5,0-4.88-.14c-.07-.11,2.45.15,3.82,0,0,0-.15,0-.43,0,7.16,0,12.62.33,18.51.25a15,15,0,0,0,2.87-.07,27.85,27.85,0,0,0-4.17.05l-1.84-.1a3.15,3.15,0,0,1-1-.18c1.3,0,2.77-.13,1-.18,3.42,0-1.1.32,1.93.28l.44-.11a20,20,0,0,0,3,.08l-.41,0c8.06.06,18.81,0,27.72,0,2.19.28,6.54-.1,8.6.13,1,0-1.4-.1.48-.13.95,0,1,0,1,.07l.86,0C250.48,3.44,248.83,3.67,242.75,3.85Z" transform="translate(-1.67 -2.38)"/></svg>