<svg id="Layer_1" data-name="Layer 1" xmlns="http://www.w3.org/2000/svg" viewBox="0 0 386.23 14.68"><defs><style>.cls-1{fill:#fff;}.cls-2{fill:none;stroke:#000;stroke-linecap:round;stroke-linejoin:round;stroke-width:0;}</style></defs><title>Untitled-3</title><path class="cls-1" d="M162.45,14.69c1.82-.56,5.84-.79,5.76.17.08-1,.08-1,2.81-1.65-.05.64,2.4.47,4,.42-1.29-.47-3.06-.54-6.6-.7-3.23,1.4-9.94-.72-13,.81C157.61,14.08,159.75,15.06,162.45,14.69Z" transform="translate(10.5 -11.1)"/><path class="cls-1" d="M177,18.92l.47-.38-5.6.61C173,18.83,176.79,18.47,177,18.92Z" transform="translate(10.5 -11.1)"/><path d="M195.07,17.9c-.51.7,2.34,1.11,2.29,1.75-.11-1.41,4.47-.28,6.93-.46l1-1.09c-2.38-.79-8.41-.45-13.51-.55Z" transform="translate(10.5 -11.1)"/><path class="cls-1" d="M199.66,18.7l1.62-.69C199.93,18.19,196.81,18.3,199.66,18.7Z" transform="translate(10.5 -11.1)"/><path class="cls-1" d="M196.21,14.88c-4-.1,2.41.46-1.61.69C196,15.39,197.51,15.34,196.21,14.88Z" transform="translate(10.5 -11.1)"/><polygon points="223.42 5.96 214.93 6.48 218.44 6.96 223.42 5.96"/><path d="M213.39,19.39c-1.11,0-2.86-.41-1.27-.79,3,.86,4.92-.35,7.75.38l-2.7.37c.37.9,5.63-.93,5.49.68,3.66-1.13-2.77-1.37,2-2.17a73.73,73.73,0,0,1-11.53-.35,23.4,23.4,0,0,0,3.07.54c-2.67.05-6.28.54-9.39.64C208.46,19.74,210.77,18.79,213.39,19.39Z" transform="translate(10.5 -11.1)"/><path d="M226.92,19.61c2.89.09,7.33.12,8.1-1.1-3-.86-3.57.17-5,.68-.87-.2-3.75-.29-2.58-.93C227.91,18.53,225.63,19.15,226.92,19.61Z" transform="translate(10.5 -11.1)"/><path d="M238.24,19.83l2.1-1.08-1.35.18-.16-.78a4.86,4.86,0,0,1-4.13,1.52C236.2,20.26,236.71,19.56,238.24,19.83Z" transform="translate(10.5 -11.1)"/><path d="M238.93,14.48c1.95.53,3.1.22,5.34-.09-3.12.11-7.56.07-8.49.52l.24-.19A39.85,39.85,0,0,0,231,16C234.19,15.28,239.87,16.42,238.93,14.48Z" transform="translate(10.5 -11.1)"/><path d="M234.94,14.39l2.28-.63Z" transform="translate(10.5 -11.1)"/><polygon points="257.65 8.47 253.24 8.12 254.32 8.45 257.65 8.47"/><path d="M241.89,16.31c3.53.15-1.93-.85,1.39-.83.91-.12-4.88,0-5.15.54C239,16.22,241.52,15.4,241.89,16.31Z" transform="translate(10.5 -11.1)"/><path d="M250,19.65l3.63-.81Z" transform="translate(10.5 -11.1)"/><path d="M259.11,20.17l.71-.57c3.52.47,8.26-.33,10.81.91C270,19.8,272.1,19,269,18.83c-.48.38-1.59.37-1.41.82-1.32-.13-1.05-.65-1.93-.85-2.27.63-5.79.15-7.61.72a5.16,5.16,0,0,1,1.76.08c-3.86,1-4.54-1.45-6.23.21C255,19.3,257.31,20.42,259.11,20.17Z" transform="translate(10.5 -11.1)"/><path d="M258.79,16.24l-3.1-.22c1-.77,3.78,0,4.29-.74-.19-.45-3.27-.67-2.14-1-.38,1.8-4.23.09-2.63,2.1-4,.23-1.24-1.1-5.47-1l-1.19,1C253.26,15.88,254.07,16.72,258.79,16.24Z" transform="translate(10.5 -11.1)"/><path d="M270.76,16.52l1.51.59-.82-.84c6.91-.15,11,3.32,15.14,2.83,5.21-1.14,10.06.56,15.37.38,2.59-.73-2.49-.43-2.76-.88.75-1.42,2.53.75,3.74-.42.33-1-5.45-1.11-7.73-1.73-2,.14-2,.46-2.57,1.05-.5-.58-2.52-.75-3-1.33-4.14.81-6.31-.72-10.38.15-1.27-.78,3-.15,1.7-.27l-2.22,0,.23.13c-3,.8-8.6.06-10.55-.47,1.52.27,2.59.92.78,1.16L267.69,16l-3.89,1.33C266.77,16.42,270.18,18.19,270.76,16.52Z" transform="translate(10.5 -11.1)"/><path d="M266.46,14.88c-4.63-.49.55,1.35-4.52.93l5.34-.09Z" transform="translate(10.5 -11.1)"/><path class="cls-1" d="M288.6,17.15l2.29.62C289.65,16.49,286.05,18.2,288.6,17.15Z" transform="translate(10.5 -11.1)"/><polygon class="cls-1" points="307.55 6.04 306.34 7.21 308.5 6.55 307.55 6.04"/><path d="M304.76,18.55c1.71-.59-.34-1.09-2.33-.94C304.22,17.66,305.16,18.17,304.76,18.55Z" transform="translate(10.5 -11.1)"/><path class="cls-1" d="M317.45,20.81c-3.88,0,3.44.29.65,1.35C318.61,21.66,320.57,21,317.45,20.81Z" transform="translate(10.5 -11.1)"/><path d="M330,23.59c-1.4.22-2,0-2.16-.27A6.22,6.22,0,0,1,330,23.59Z" transform="translate(10.5 -11.1)"/><path d="M281.59,20a12.24,12.24,0,0,1-1.36,0Z" transform="translate(10.5 -11.1)"/><path d="M282.48,20l-.89,0Z" transform="translate(10.5 -11.1)"/><path d="M311.3,22.5h0l-.3-.11Z" transform="translate(10.5 -11.1)"/><path d="M188.26,19.46c-.75.06-1.34.08-1.8.07l1.78-.08Z" transform="translate(10.5 -11.1)"/><path d="M186.17,17.83c3.19-.75,3.41,1.77,8.57,1.23-2.08.16-4.26.28-6.5.39C185.28,18.28,190.53,18.83,186.17,17.83Z" transform="translate(10.5 -11.1)"/><path d="M229.24,16.44a1,1,0,0,0,.18,0C229.74,16.37,229.57,16.41,229.24,16.44Z" transform="translate(10.5 -11.1)"/><polygon class="cls-1" points="56.53 7.96 56.5 8.28 53.65 7.87 56.53 7.96"/><path class="cls-1" d="M46.42,19.64l4.84.62-28.68.18.93-.44C23.12,19.42,47.26,20.16,46.42,19.64Z" transform="translate(10.5 -11.1)"/><path class="cls-1" d="M47.8,19.14c2.78-1.34,4.63.48,8-.46-2.28.63-3.89,1.33-6.09,1Z" transform="translate(10.5 -11.1)"/><path class="cls-2" d="M57.36,16.56c1.53.27,3.36-.29,4.23-.09C61.06,17.49,58.68,16.7,57.36,16.56Z" transform="translate(10.5 -11.1)"/><path d="M61.48,12.66a5.63,5.63,0,0,1,.71,0c-.28.07-.54.13-.73.2Z" transform="translate(10.5 -11.1)"/><path d="M61.46,12.85l0,.46C60.92,13.13,61.06,13,61.46,12.85Z" transform="translate(10.5 -11.1)"/><path d="M62.19,12.65A10,10,0,0,0,64,12.16l-.66-.06c.91-.13,2.49-.5,2.92-.24-1.77-.08-1.8.24-1.85.89l2.87.08C66.7,14.37,64.75,12.75,62.19,12.65Z" transform="translate(10.5 -11.1)"/><path class="cls-2" d="M71.29,12.28l-3,.88C67.51,12.32,70.18,12.28,71.29,12.28Z" transform="translate(10.5 -11.1)"/><path d="M75.65,13.28c-.69.25-3.57.17-1.83.57A4.68,4.68,0,0,1,72.2,14C74.15,13.77,72.32,12.74,75.65,13.28Z" transform="translate(10.5 -11.1)"/><path d="M72.2,14a6.25,6.25,0,0,1-.83,0A5.87,5.87,0,0,1,72.2,14Z" transform="translate(10.5 -11.1)"/><path class="cls-2" d="M41.25,17.8c.36.12.34.23.19.34Z" transform="translate(10.5 -11.1)"/><path d="M81.57,14.23h1.11a8.33,8.33,0,0,0-.89,0Z" transform="translate(10.5 -11.1)"/><path d="M-10.5,22.38a67.32,67.32,0,0,0,13.13,0c-.12-1.1,2.25-.31,2.58-1.46-5.8.15,21.82-.69,17.2-1.18L21,20.23l1.43-1.15c2.78.29,6.58,1.21,8.46.55.52.36-23.66.06-22.75.39C6,18.69,40.55,18.73,41.44,18.14l.38.7c4.29-.75,7-1.76,10.65-2.25l.82.85c-2.65-.28-3.37.29-6.07.66,4.68-.16,5.53.36,9.1.2-.13-1.1-3.07-.54,1.43-1.15,1.3.46-1.7,1.66,2.32,1.43,4.87.3,3.89-1.32,8.13-1.42l-2.86-.41c1.57-.05,4.48-.29,6,.3-1.77-.07-6.27.54-6.14,1.64,1.79-.25,5.76.17,7.32.11l-1,.77c1.71.72,2.7-.37,4.86.29,2-.43-1.24-1.1-.1-1.42a13.83,13.83,0,0,0,5.76.17c-1-1.61-4.7.49-7.23-1.08l3.75.29c2.36-1.6-6,0-4.78-1.26,2.81-1.66,5.87,1.59,8.49-.52-1.74-.4-7.3-.44-6.58-1,2,.6,3.36-.54,6.07-.74l3.27.75c1.38-.51.26-.52-.82-.85,4.81.94,12.91-.16,19.7,1,4-.23.51-.71,2.33-1.28,2.14,1,5.77.18,8,.19.66.07,1.86-.89,1.22-1.28l-5.61.6c.27-.51-.55-1.35-2.55-1.24,1.39,1.88-7.91-1.15-8.31,1l.08-1-7.17.66.21.13c0-.32-6.06.67-10,.25,1.14-.31,7.78.06,3.87-1,2.94-.56,8.2.32,13.56-.1l-1-.65c5.64-.92,13.1.29,19.34.08l-1.86.89c2.2.34,5,1.07,7.09.31-2.67,0-1.3-.46-.82-.85,3.6-.49,8.89.07,13.81-.28,0,0-.24.19,0,.32l5.16-.54A12,12,0,0,1,146,12.64c.9-.12,3.13-.11,2.28-.63A5.8,5.8,0,0,0,147,12c2.61-1,1.83.29,5.09-.31-2.52.82.79,1.17.49,2,3.82-.36.35-1.48.83-1.86,4.63.48,5.23,1.2,9.88,1.36.27-.51-3.3-.35-3.69-.93a8.4,8.4,0,0,0,3.12-.1l-2.86-.41a70.89,70.89,0,0,0,14.87.36l-.42-.26,3.33,0-1.2,1c1.8-.25,3.73.6,4.69-.16l-.66-.07,2.25-.31-2.32,1c2.86.41,6.81-1.56,11.46-1.4,1,1.3-8,.46-8.63,2.13,1.54.27,4.18.55,5.11.1-.19-.45-1.3-.46-2.41-.46,4.08-.88,10.18.52,12.76-.94l-3.07-.54c3.57-.17,5.86,1.59,7.06.63l-2.81,1.66c3.62-.81,8.28-.65,11.67-1.27.08-1-4.9,0-4.66-.16l1.62-.7c5.28.55,1.51.59,7.9,1.15l.06-.64c2.14,1,7.85-.91,5.7.81l-1.74-.39.15.77,7.39-.53c-.72.58,2.85.41,1.9,1.18l2.72-.69c1.24,1.1-5,1.31-5.3,2.15.1.51,1.38.44,2,.37-3.28.82-4.9-1.1-8.16-1.12l-1.63.69.09-1a6.69,6.69,0,0,0-3,1.2c-3.22-1.31-6.69.27-11.56,0,4-.55-2.58-.92-1.9-1.17-2.22,0-7.7,1.68-9.6.5-1.29-.46,2.72-.68-.37-.9-2,.11-3.39.62-2.09,1.08-4.47.29-9.79.06-14.68.09l1.17-.64a14,14,0,0,0-7.65,1c-.42-.26-.66-.07-.19-.45-3.9-1.06-5,1.31-11.42,1.07.36.91,3.24,1,5.28.56l-.53,1a126.5,126.5,0,0,0,16.29-.79l-2.07.76c3.89,1.38,2.79-1.33,6.43.24,2.71-.37-1.95-.53.09-1,1.91.29-.49,1.77,2.71,1.84-12,.52-25.69.43-38.27.6-.24.19.42.26,1.08.33-4.34,1.39-39.34-2.34-40.47.36-.63-.39,1.41-.83-1.26-.78-.25.19-.93.44-.3.83C100.48,19.4,91.45,21,83.31,20c.18.45-1.62.7-1.65,1-2.79-1.06-7.56.07-10.17-.53l.84.52H64.1c-.24.19.88.2,1.54.27-1.8.24-2.2-.34-2.38-.79L59.6,21.62c-10.72-1.88-24.09,1.05-36.44-.14a14.61,14.61,0,0,1-6.56,1.37l1.53.27c-3.18.75-.19-.45-2.89-.09-1.83.57-.55,1.35,1.93.85,1.56.31.6.62-.51.84C6.75,24.62-2.48,24-10.5,22.38Z" transform="translate(10.5 -11.1)"/><path d="M364.55,25.78c-1.08-.42,4.25-.37,1.65-1.27-8.29-1.75-21.76-.36-31.58-1.73A41.28,41.28,0,0,0,329,21.72a.57.57,0,0,0,.06.5c-2.67-.06-7,.2-9.67-.24-.76.19-1.31.89.14.72-4.06.61-7-1.3-9.3-.75,2,.46-2,.67.4,1-4.26.1-3.88-2.37-7.24-2.67-.2.2-.41.39.27.45-3.67-1.06-11.28.62-11.68-1.12l-1.48.72c-1.62-.56-1.22-.95-3.91-1.19-1.75.27.07.64-.57.91-.74-.7-5.44-.39-7.58-1.37-.13-1.1,3.81,1.46,5.93.48.07-.22-.24-.28-.67-.31,11.14.27,19.64,3.34,28.8,2.52a4.27,4.27,0,0,0,4.46-.71c-1.65-.35-6.37-1.08-6.48.45l-2.87-1c-1.09.07-1.06-1.48-1.53-1.73,2,.18,4.31-1.33,1.58-1.88,5.32-.18-1.71,3.26,3,2.86l.69-1.1c-.89.59,3.18,1.1,4.7.73l-.63-.22c12.54.53,29.27,0,43.13-.33,3.41,2.75,10.17-1,13.37,1.26,1.53-.37-2.17-1,.76-1.31,1.46-.17,1.59.55,1.53.76L375.5,19C376.57,21.64,374,24,364.55,25.78Z" transform="translate(10.5 -11.1)"/></svg>