<svg id="Layer_1" data-name="Layer 1" xmlns="http://www.w3.org/2000/svg" viewBox="0 0 18.5 18.98"><defs><style>.cls-1{fill:#d1c9ac;}.cls-2{fill:#fff;}.cls-3{fill:none;stroke:#d1c9ac;stroke-linecap:round;stroke-linejoin:round;stroke-width:0;}</style></defs><title>Untitled-2</title><line class="cls-1" x1="0.5" y1="0.49" x2="18.5" y2="18.49"/><path class="cls-2" d="M9.54,8.59c.16,0,.37.17.25.29.12-.12.12-.12.34-.08-.09.08,0,.17.13.24,0-.12-.08-.21-.22-.4-.33,0-.38-.55-.71-.5C9.39,8.29,9.37,8.51,9.54,8.59Z" transform="translate(-0.5 -0.51)"/><path class="cls-2" d="M9.69,9.8l.07,0-.34-.19C9.51,9.6,9.74,9.73,9.69,9.8Z" transform="translate(-0.5 -0.51)"/><path class="cls-1" d="M10.66,10.51c-.11.07,0,.25-.11.33.17-.19.24.17.38.26l.18-.09c0-.21-.33-.45-.56-.7Z" transform="translate(-0.5 -0.51)"/><path class="cls-2" d="M10.77,10.83l.17,0C10.85,10.77,10.69,10.64,10.77,10.83Z" transform="translate(-0.5 -0.51)"/><path class="cls-2" d="M11.09,10.19c-.17-.2.06.17-.16,0C11,10.24,11.1,10.3,11.09,10.19Z" transform="translate(-0.5 -0.51)"/><polygon class="cls-1" points="11.1 10.72 10.63 10.39 10.74 10.62 11.1 10.72"/><path class="cls-1" d="M11.33,11.55c-.05-.05-.08-.18,0-.16,0,.25.27.19.31.41l-.17-.08c-.1.13.38.15.17.34.31,0,0-.3.37-.18a1.8,1.8,0,0,1-.5-.58c0,.1,0,.11.08.21-.13-.11-.36-.22-.52-.35C11.06,11.37,11.28,11.35,11.33,11.55Z" transform="translate(-0.5 -0.51)"/><path class="cls-1" d="M11.93,12.21c.13.15.33.36.52.24,0-.25-.19-.15-.32-.15s-.14-.21,0-.23C12.11,12.12,11.93,12.09,11.93,12.21Z" transform="translate(-0.5 -0.51)"/><path class="cls-1" d="M12.43,12.77l.24,0-.09,0,.09-.11s-.26.15-.38,0C12.28,12.72,12.4,12.66,12.43,12.77Z" transform="translate(-0.5 -0.51)"/><path class="cls-1" d="M13.13,12.13c0,.16.12.17.27.24-.16-.14-.37-.35-.47-.34h0a2.11,2.11,0,0,0-.4-.07C12.81,12,12.94,12.42,13.13,12.13Z" transform="translate(-0.5 -0.51)"/><path class="cls-1" d="M13,11.93l.19,0Z" transform="translate(-0.5 -0.51)"/><polygon class="cls-1" points="12.38 12.63 12.22 12.38 12.22 12.48 12.38 12.63"/><path class="cls-1" d="M13,12.49c.15.19,0-.19.17,0s-.23-.23-.31-.18S13.14,12.36,13,12.49Z" transform="translate(-0.5 -0.51)"/><path class="cls-1" d="M13,13.29l.28.07Z" transform="translate(-0.5 -0.51)"/><path class="cls-1" d="M13.36,13.78l.11,0c.1.23.42.35.39.62.06-.12.25-.11.13-.29-.07,0-.12,0-.17,0s0-.13,0-.19c-.18,0-.29-.25-.44-.27,0,0,0,0,.07.09-.31-.05,0-.39-.32-.26C13.28,13.48,13.25,13.73,13.36,13.78Z" transform="translate(-0.5 -0.51)"/><path class="cls-1" d="M13.84,13.27l-.12-.17c.14,0,.18.17.3.11S14,13,14,13c-.24.21-.21-.19-.39.14-.21-.16.08-.2-.13-.38l-.17.06C13.63,13,13.56,13.11,13.84,13.27Z" transform="translate(-0.5 -0.51)"/><path class="cls-1" d="M14.36,13.87V14l.07-.14c.34.3.09.93.35,1.06s.4.54.67.76c.21,0-.06-.17,0-.23.21-.15,0,.21.23.12s-.12-.4-.15-.58-.15,0-.25,0c.05-.09,0-.21,0-.31-.3-.09-.21-.38-.51-.46,0-.16.16.12.12,0l-.11-.1v0c-.25,0-.41-.39-.44-.55,0,.1,0,.23-.11.18l0-.18-.35,0C14.19,13.67,14.13,14.05,14.36,13.87Z" transform="translate(-0.5 -0.51)"/><path class="cls-1" d="M14.37,13.46c-.16-.28-.15.2-.33-.09l.26.24Z" transform="translate(-0.5 -0.51)"/><path class="cls-2" d="M15.12,14.78l0,.18C15.25,14.75,14.87,14.79,15.12,14.78Z" transform="translate(-0.5 -0.51)"/><polygon class="cls-2" points="15.01 14.66 14.8 14.75 14.99 14.77 15.01 14.66"/><path class="cls-1" d="M15.69,15.71c.16,0,.13-.15,0-.23C15.78,15.57,15.76,15.68,15.69,15.71Z" transform="translate(-0.5 -0.51)"/><path class="cls-2" d="M16,16.58c-.18-.18.13.2-.13.2C16,16.74,16.13,16.75,16,16.58Z" transform="translate(-0.5 -0.51)"/><path class="cls-1" d="M16.24,17.52c-.09,0-.09-.09-.07-.14S16.25,17.48,16.24,17.52Z" transform="translate(-0.5 -0.51)"/><path class="cls-1" d="M14.44,14.8l-.06-.06Z" transform="translate(-0.5 -0.51)"/><path class="cls-1" d="M14.48,14.85l0,0Z" transform="translate(-0.5 -0.51)"/><path class="cls-1" d="M15.51,16.51h0s0,0,0,0Z" transform="translate(-0.5 -0.51)"/><path class="cls-1" d="M10.15,10.39a.36.36,0,0,1-.09-.08l.09.08Z" transform="translate(-0.5 -0.51)"/><path class="cls-1" d="M10.25,10.09c.25.05-.06.38.25.55l-.35-.25C10.16,10.1,10.33,10.42,10.25,10.09Z" transform="translate(-0.5 -0.51)"/><path class="cls-1" d="M12.44,11.92h0S12.46,11.93,12.44,11.92Z" transform="translate(-0.5 -0.51)"/><polygon class="cls-2" points="3.06 3.19 3.02 3.23 2.94 3.05 3.06 3.19"/><path class="cls-2" d="M3.51,3.8l.15.3L2.3,2.79l.1,0C2.45,2.68,3.49,3.9,3.51,3.8Z" transform="translate(-0.5 -0.51)"/><path class="cls-2" d="M3.64,3.8c.3,0,.15.27.43.32-.18,0-.35,0-.41-.16Z" transform="translate(-0.5 -0.51)"/><path class="cls-3" d="M4.41,3.92c0,.11.19.12.21.19C4.46,4.21,4.45,4,4.41,3.92Z" transform="translate(-0.5 -0.51)"/><path class="cls-1" d="M5.09,3.63l0,0H5.06Z" transform="translate(-0.5 -0.51)"/><path class="cls-1" d="M5.06,3.65,5,3.7S5,3.65,5.06,3.65Z" transform="translate(-0.5 -0.51)"/><path class="cls-1" d="M5.12,3.66l.15,0,0,0c.06,0,.18,0,.17.11-.07-.1-.12-.06-.2,0l.12.15C5.12,4.08,5.23,3.79,5.12,3.66Z" transform="translate(-0.5 -0.51)"/><path class="cls-3" d="M5.59,4,5.34,4C5.41,3.86,5.54,4,5.59,4Z" transform="translate(-0.5 -0.51)"/><path class="cls-1" d="M5.67,4.36c-.06,0-.19-.14-.16,0s-.06,0-.09-.06C5.54,4.36,5.58,4.14,5.67,4.36Z" transform="translate(-0.5 -0.51)"/><path class="cls-1" d="M5.42,4.29l0,0Z" transform="translate(-0.5 -0.51)"/><path class="cls-3" d="M3.5,3.33a0,0,0,0,1,0,0Z" transform="translate(-0.5 -0.51)"/><path class="cls-1" d="M5.83,4.76l0,0,0,0Z" transform="translate(-0.5 -0.51)"/><path class="cls-1" d="M.51,1.49a1.8,1.8,0,0,0,.62.61c.13-.15.14.06.3-.07-.29-.25,1.11.93,1,.66H2.25l.21-.08c.1.17.16.46.33.46,0,.07-1.11-1.09-1.11-1,.07-.27,1.67,1.35,1.79,1.32l-.07.1c.29.11.55.11.78.22l-.07.14c-.09-.16-.2-.12-.37-.2.24.2.21.31.4.45.13-.14-.07-.21.21-.08,0,.12-.29.13-.07.29s.35,0,.56.2l-.08-.18c.08.06.24.17.24.31-.08-.09-.36-.22-.49-.08.11.06.24.29.32.36L4.69,5c0,.17.17.08.19.26S5,5,5.06,5s.12.29.24.29c.16-.25-.28-.16-.2-.47l.14.21C5.55,5,5,4.79,5.17,4.69s.08.47.47.33c0-.13-.29-.4-.18-.43,0,.16.22.08.37.19L5.89,5C6,5,6,5,6,4.88c.11.34.62.58.79,1,.22.16.12-.07.27,0,0,.22.25.29.35.39s.2,0,.22-.1L7.25,6c.08-.06.15-.2,0-.28-.17.3-.23-.51-.51-.27l.12-.11-.41-.25v0s-.37-.2-.5-.44c.09,0,.36.37.31.06.2.07.34.42.64.62L7,5.2c.38.15.58.65.9.91l-.2,0c.06.14.1.36.29.36-.13-.11,0-.11.07-.14.23.11.4.42.68.61,0,0,0,0,0,0l.3.17c.1.13.07.24.07.38s.16.13.18,0a.13.13,0,0,0-.05-.07c.24,0,.05.12.28.2-.22,0-.11.19-.23.28.22.13.2-.17.27-.2.16.28.09.39.29.63.08,0-.11-.19,0-.29,0,.08.12.15.15.14l-.08-.19a1.84,1.84,0,0,0,.65.74V8.78l.15.16L10.43,9c.11.05.1.25.24.2l0,0,.14.07h-.23c.08.18.51.12.71.36-.11.21-.43-.32-.67-.14,0,.11.13.26.23.25s0-.12-.06-.17c.3.08.41.54.72.48l-.08-.21c.19.14.08.47.25.41l-.34.07c.27.07.47.31.71.39.12-.12-.24-.23-.2-.24H12c.18.31,0,.14.23.51l.08-.08c0,.23.48.26.16.37l0-.13-.09.1.41.28c-.1,0,.08.19-.06.24l.22,0c-.08.2-.4-.07-.52,0s0,.12,0,.14c-.26-.05-.09-.36-.24-.52H12l.13-.11a.41.41,0,0,0-.29,0c0-.32-.35-.28-.54-.55.26.12,0-.23.06-.23-.1-.11-.57-.15-.51-.38s.21,0,.1-.14-.24-.08-.24,0a7.2,7.2,0,0,1-.69-.67l.13,0c-.07-.21-.32-.24-.48-.22,0-.06,0,0,0-.07-.05-.31-.39-.07-.66-.4-.1.13,0,.28.17.32l-.15.1a2.91,2.91,0,0,0,.86.66H9.77c0,.36.29,0,.27.33.17.08,0-.15.12-.11s-.25.2-.1.35C9.43,9.82,8.8,9.17,8.2,8.6c0,0,0,.06,0,.1-.37,0-1.54-2.13-1.93-1.85,0-.08.17,0,0-.15s-.1,0-.12.09c-.13-.5-.74-.73-1-1.23-.05.07-.16,0-.21.05,0-.26-.36-.34-.4-.54l0,.11-.38-.39s0,.07,0,.11-.06-.15,0-.21l-.31,0c-.27-.74-1.26-1-1.68-1.72a.53.53,0,0,1-.48-.13l0,.1c-.25-.05,0-.06-.13-.14s-.19.14,0,.19c0,.12-.05.11-.13.08A3.85,3.85,0,0,1,.51,1.49Z" transform="translate(-0.5 -0.51)"/><path class="cls-1" d="M17.58,19.4c0-.1.24.15.23-.08-.16-.61-1-1.06-1.25-1.69a1.71,1.71,0,0,0-.13-.4s-.05,0-.06.07a1.94,1.94,0,0,1-.42-.48c-.06,0-.18.05-.09.09-.26-.11-.16-.49-.34-.52,0,.15-.17,0-.11.14-.21-.18.12-.47,0-.67,0,0-.07,0-.05.07,0-.3-.6-.45-.4-.68l-.16,0c0-.15.06-.18,0-.33s-.08.08-.14.08-.21-.3-.18-.52,0,.36.21.33c0,0,0,0,0-.07.49.56.5,1.34,1,1.66,0,.19.16.18.29.12,0-.12-.16-.43-.35-.24V16c-.06,0,.13-.24.14-.29.07.12.37,0,.31-.16.27.22-.49.33-.22.5L16,16c-.11,0,0,.29.13.31v-.05a17.47,17.47,0,0,0,2.05,2c-.19.51.6.36.47.79.11,0,0-.23.19-.13s0,.14,0,.16l.09,0A1.09,1.09,0,0,1,17.58,19.4Z" transform="translate(-0.5 -0.51)"/><line class="cls-1" x1="18.5" y1="0.49" x2="0.5" y2="18.49"/><path class="cls-2" d="M11.41,9.54c0,.16-.17.37-.29.25.12.12.12.12.08.34-.08-.09-.17,0-.24.13.12,0,.21-.08.4-.22,0-.33.55-.38.5-.71C11.71,9.39,11.49,9.37,11.41,9.54Z" transform="translate(-0.5 -0.51)"/><path class="cls-2" d="M10.2,9.69l0,.07.19-.34C10.4,9.51,10.27,9.74,10.2,9.69Z" transform="translate(-0.5 -0.51)"/><path class="cls-1" d="M9.49,10.66c-.07-.11-.25,0-.33-.11.19.17-.17.24-.26.38l.09.18c.21,0,.45-.33.7-.56Z" transform="translate(-0.5 -0.51)"/><path class="cls-2" d="M9.17,10.77l0,.17C9.23,10.85,9.36,10.69,9.17,10.77Z" transform="translate(-0.5 -0.51)"/><path class="cls-2" d="M9.81,11.09c.2-.17-.17.06,0-.16C9.76,11,9.7,11.1,9.81,11.09Z" transform="translate(-0.5 -0.51)"/><polygon class="cls-1" points="8.26 11.09 8.59 10.62 8.37 10.73 8.26 11.09"/><path class="cls-1" d="M8.45,11.33c.05-.05.18-.08.16,0-.25,0-.19.27-.41.31l.08-.17c-.13-.1-.15.38-.34.17,0,.31.3,0,.18.37a1.8,1.8,0,0,1,.58-.5c-.1,0-.11,0-.21.08.11-.13.22-.36.35-.52C8.63,11.06,8.65,11.28,8.45,11.33Z" transform="translate(-0.5 -0.51)"/><path class="cls-1" d="M7.79,11.93c-.15.13-.36.33-.24.52.25,0,.15-.19.15-.32s.21-.14.23,0C7.88,12.11,7.91,11.93,7.79,11.93Z" transform="translate(-0.5 -0.51)"/><path class="cls-1" d="M7.23,12.43l0,.24,0-.09.11.09s-.15-.26,0-.38C7.28,12.28,7.34,12.4,7.23,12.43Z" transform="translate(-0.5 -0.51)"/><path class="cls-1" d="M7.87,13.13c-.16,0-.17.12-.24.27.14-.16.35-.37.34-.47v0a2.11,2.11,0,0,0,.07-.4C8,12.81,7.58,12.94,7.87,13.13Z" transform="translate(-0.5 -0.51)"/><path class="cls-1" d="M8.07,13l0,.19Z" transform="translate(-0.5 -0.51)"/><polygon class="cls-1" points="6.35 12.37 6.6 12.21 6.51 12.21 6.35 12.37"/><path class="cls-1" d="M7.51,13c-.19.15.19,0,0,.17s.23-.23.18-.31S7.64,13.14,7.51,13Z" transform="translate(-0.5 -0.51)"/><path class="cls-1" d="M6.71,13l-.07.28Z" transform="translate(-0.5 -0.51)"/><path class="cls-1" d="M6.22,13.36l0,.11c-.23.1-.35.42-.62.39.12.06.11.25.29.13,0-.07,0-.12,0-.17s.13,0,.19,0c0-.18.25-.29.27-.44,0,0,0,0-.09.07,0-.31.39,0,.26-.32C6.52,13.28,6.27,13.25,6.22,13.36Z" transform="translate(-0.5 -0.51)"/><path class="cls-1" d="M6.73,13.84l.17-.12c0,.14-.17.18-.11.3S7,14,7,14c-.21-.24.19-.21-.14-.39.16-.21.2.08.38-.13l-.06-.17C7,13.63,6.89,13.56,6.73,13.84Z" transform="translate(-0.5 -0.51)"/><path class="cls-1" d="M6.13,14.36H6l.14.07c-.3.34-.93.09-1.06.35s-.54.4-.76.67c0,.21.17-.06.23,0,.15.21-.21,0-.12.23s.4-.12.58-.15,0-.15,0-.25c.09.05.21,0,.31,0,.09-.3.38-.21.46-.51.16,0-.12.16,0,.12l.1-.11h0c0-.25.39-.41.55-.44-.1,0-.23,0-.18-.11l.18,0,0-.35C6.33,14.19,6,14.13,6.13,14.36Z" transform="translate(-0.5 -0.51)"/><path class="cls-1" d="M6.54,14.37c.28-.16-.2-.15.09-.33l-.24.26Z" transform="translate(-0.5 -0.51)"/><path class="cls-2" d="M5.22,15.12l-.18,0C5.25,15.25,5.21,14.87,5.22,15.12Z" transform="translate(-0.5 -0.51)"/><polygon class="cls-2" points="4.33 15 4.24 14.79 4.22 14.98 4.33 15"/><path class="cls-1" d="M4.29,15.69c0,.16.15.13.23,0C4.43,15.78,4.32,15.76,4.29,15.69Z" transform="translate(-0.5 -0.51)"/><path class="cls-2" d="M3.42,16c.18-.18-.2.13-.2-.13C3.26,16,3.25,16.13,3.42,16Z" transform="translate(-0.5 -0.51)"/><path class="cls-1" d="M2.48,16.24c0-.09.09-.09.14-.07S2.52,16.25,2.48,16.24Z" transform="translate(-0.5 -0.51)"/><path class="cls-1" d="M5.2,14.44l.06-.06Z" transform="translate(-0.5 -0.51)"/><path class="cls-1" d="M5.15,14.48l0,0Z" transform="translate(-0.5 -0.51)"/><path class="cls-1" d="M3.49,15.51Z" transform="translate(-0.5 -0.51)"/><path class="cls-1" d="M9.61,10.15a.36.36,0,0,1,.08-.09l-.08.09Z" transform="translate(-0.5 -0.51)"/><path class="cls-1" d="M9.91,10.25c-.05.25-.38-.06-.55.25l.25-.35C9.9,10.16,9.58,10.33,9.91,10.25Z" transform="translate(-0.5 -0.51)"/><path class="cls-1" d="M8.08,12.44h0S8.07,12.46,8.08,12.44Z" transform="translate(-0.5 -0.51)"/><polygon class="cls-2" points="15.79 3.05 15.75 3.01 15.94 2.93 15.79 3.05"/><path class="cls-2" d="M16.2,3.51l-.3.15L17.21,2.3l0,.1C17.32,2.45,16.1,3.49,16.2,3.51Z" transform="translate(-0.5 -0.51)"/><path class="cls-2" d="M16.2,3.64c0,.3-.27.15-.32.43,0-.18,0-.35.16-.41Z" transform="translate(-0.5 -0.51)"/><path class="cls-3" d="M16.08,4.41c-.11,0-.12.19-.19.21C15.79,4.46,16,4.45,16.08,4.41Z" transform="translate(-0.5 -0.51)"/><path class="cls-1" d="M16.37,5.09l0,0a.13.13,0,0,0,0-.06Z" transform="translate(-0.5 -0.51)"/><path class="cls-1" d="M16.35,5.06,16.3,5S16.35,5,16.35,5.06Z" transform="translate(-0.5 -0.51)"/><path class="cls-1" d="M16.34,5.12a.77.77,0,0,0,0,.15l0,0c0,.06-.05.18-.11.17.1-.07.06-.12,0-.2l-.15.12C15.92,5.12,16.21,5.23,16.34,5.12Z" transform="translate(-0.5 -0.51)"/><path class="cls-3" d="M16,5.59l0-.25C16.14,5.41,16,5.54,16,5.59Z" transform="translate(-0.5 -0.51)"/><path class="cls-1" d="M15.64,5.67c0-.06.14-.19,0-.16s0-.06.06-.09C15.64,5.54,15.86,5.58,15.64,5.67Z" transform="translate(-0.5 -0.51)"/><path class="cls-1" d="M15.71,5.42l0,0Z" transform="translate(-0.5 -0.51)"/><path class="cls-3" d="M16.67,3.5a0,0,0,0,1-.05,0Z" transform="translate(-0.5 -0.51)"/><path class="cls-1" d="M15.24,5.83l-.05,0,0,0Z" transform="translate(-0.5 -0.51)"/><path class="cls-1" d="M18.51.51a1.8,1.8,0,0,0-.61.62c.15.13-.06.14.07.3.25-.29-.93,1.11-.66,1V2.25l.08.21c-.17.1-.46.16-.46.33-.07,0,1.09-1.11,1-1.11.27.07-1.35,1.67-1.32,1.79l-.1-.07c-.11.29-.11.55-.22.78l-.14-.07c.16-.09.12-.2.2-.37-.2.24-.31.21-.45.4.14.13.21-.07.08.21-.12,0-.13-.29-.29-.07s0,.35-.2.56l.18-.08c-.06.08-.17.24-.31.24.09-.08.22-.36.08-.49-.06.11-.29.24-.36.32L15,4.69c-.17,0-.08.17-.26.19S15,5,15,5.06s-.29.12-.29.24c.25.16.16-.28.47-.2l-.21.14c.09.31.28-.28.38-.07s-.47.08-.33.47c.13,0,.4-.29.43-.18-.16,0-.08.22-.19.37L15,5.89C15,6,15,6,15.12,6c-.34.11-.58.62-1,.79-.16.22.07.12.05.27-.22,0-.29.25-.39.35s0,.2.1.22L14,7.25c.06.08.2.15.28,0-.3-.17.51-.23.27-.51l.11.12.25-.41h0s.2-.37.44-.5c0,.09-.37.36-.06.31-.07.2-.42.34-.62.64l.13,0c-.15.38-.65.58-.91.9l0-.2c-.14.06-.36.1-.36.29.11-.13.11,0,.14.07-.11.23-.42.4-.61.68,0,0,0,0,0,0l-.17.3c-.13.1-.24.07-.38.07s-.13.16,0,.18a.13.13,0,0,0,.07-.05c0,.24-.12.05-.2.28,0-.22-.19-.11-.28-.23-.13.22.17.2.2.27-.28.16-.39.09-.63.29,0,.08.19-.11.29,0-.08,0-.15.12-.14.15l.19-.08a1.84,1.84,0,0,0-.74.65h.05l-.16.15L11,10.43c-.05.11-.25.1-.2.24l0,0-.07.14v-.23c-.18.08-.12.51-.36.71-.21-.11.32-.43.14-.67-.11,0-.26.13-.25.23s.12,0,.17-.06c-.08.3-.54.41-.48.72l.21-.08c-.14.19-.47.08-.41.25l-.07-.34c-.07.27-.31.47-.39.71.12.12.23-.24.24-.2V12c-.31.18-.14,0-.51.23l.08.08c-.23,0-.26.48-.37.16l.13,0-.1-.09-.28.41c0-.1-.19.08-.24-.06l0,.22c-.2-.08.07-.4,0-.52s-.12,0-.14,0c.05-.26.36-.09.52-.24V12l.11.13a.41.41,0,0,0,0-.29c.32,0,.28-.35.55-.54-.12.26.23,0,.23.06.11-.1.15-.57.38-.51s0,.21.14.1.08-.24,0-.24a7.2,7.2,0,0,1,.67-.69l0,.13c.21-.07.24-.32.22-.48.06,0,0,0,.07,0,.31-.05.07-.39.4-.66-.13-.1-.28,0-.32.17l-.1-.15a2.91,2.91,0,0,0-.66.86V9.77c-.36,0,0,.29-.33.27-.08.17.15,0,.11.12s-.2-.25-.35-.1c.49-.63,1.14-1.26,1.71-1.86,0,0-.06,0-.1,0,0-.37,2.13-1.54,1.85-1.93.08,0,0,.17.15,0s0-.1-.09-.12c.5-.13.73-.74,1.23-1-.07-.05,0-.16,0-.21.26,0,.34-.36.54-.4l-.11,0,.39-.38s-.07,0-.11,0,.15-.06.21,0l0-.31c.74-.27,1-1.26,1.72-1.68a.53.53,0,0,1,.13-.48l-.1,0c.05-.25.06,0,.14-.13s-.14-.19-.19,0c-.12,0-.11-.05-.08-.13A3.85,3.85,0,0,1,18.51.51Z" transform="translate(-0.5 -0.51)"/><path class="cls-1" d="M.6,17.58c.1,0-.15.24.08.23.61-.16,1.06-1,1.69-1.25a1.71,1.71,0,0,0,.4-.13s0-.05-.07-.06A1.94,1.94,0,0,1,3.18,16c0-.06-.05-.18-.09-.09.11-.26.49-.16.52-.34-.15,0,0-.17-.14-.11.18-.21.47.12.67,0,0,0,0-.07-.07-.05.3,0,.45-.6.68-.4l0-.16c.15,0,.18.06.33,0S5,14.69,5,14.63s.3-.21.52-.18-.36,0-.33.21c0,0,0,0,.07,0-.56.49-1.34.5-1.66,1-.19,0-.18.16-.12.29.12,0,.43-.16.24-.35H4c0-.06.24.13.29.14-.12.07,0,.37.16.31-.22.27-.33-.49-.5-.22L4,16c0-.11-.29,0-.31.13h0a17.47,17.47,0,0,0-2,2.05c-.51-.19-.36.6-.79.47,0,.11.23,0,.13.19s-.14,0-.16,0a.36.36,0,0,0,0,.09A1.09,1.09,0,0,1,.6,17.58Z" transform="translate(-0.5 -0.51)"/></svg>