<svg id="Layer_1" data-name="Layer 1" xmlns="http://www.w3.org/2000/svg" viewBox="0 0 984.6 143.43"><defs><style>.cls-1{opacity:0.45;}.cls-2{font-size:72px;fill:#d1c9ac;font-family:Anton-Regular, Anton;}.cls-3{fill:none;}.cls-4{opacity:0.8;}.cls-5{fill:#fff;opacity:0.2;}</style></defs><title>Untitled-3</title><rect class="cls-1" x="105.36" y="16.47" width="867.95" height="88.03"/><rect x="7.23" y="15.62" width="589.38" height="88.03"/><text class="cls-2" transform="translate(61.75 90.24)">SOME WORKS</text><rect class="cls-3" x="534.71" y="41.93" width="90.72" height="63.84" transform="translate(117.01 439.37) rotate(-45.83)"/><g class="cls-4"><path d="M564.88,52.62l.15.15c-.46-.25-.5.42-.66.27C564.42,52.78,564.57,52.52,564.88,52.62Z" transform="translate(-5.89 0.93)"/><path d="M534.48,76.43l.41.4c-.19.72-1,.37-1.32.43-.26-.25-.88-.14-.63-.71S534,76.13,534.48,76.43Z" transform="translate(-5.89 0.93)"/><path d="M546.19,74.87c.14-1,1.39.75,1.68-.79-.06-.36-.88-.24-.63-.81,1.92-2,2.28-5.46,2.7-8.29.21.61,1.29.75,1.3,1.57.13,1.33-1.43,3.45.73,3.83a7.91,7.91,0,0,1,3.81,4.82c2.83,1.13,3.64-2.93,6.58-2a1.87,1.87,0,0,1,.07,1.79c-.69,1.55-2.74,1.68-3.07,3.37.62.4,1.44.6,1.76,1.31.54,2.14,1.6,4.38,1.88,6.17-1,.17-2-.58-2.77-.16.32.71-.8,1.34.13,1.94-.14.77-1.11.74-1.73.75-.29,1,2.9,2.31,1,2.59-.4.73-.93-.49-1.24-.59a1.82,1.82,0,0,0,.1-.72c-2.27-.58-4-2.15-6.19-2.78-1.32,1.45-.36,3.59-1.21,5.4-.41-.41,0-1.44-.33-2l-1.25-1.11c-1.67,1.2-2.72-.52-4.2-.14.14-.36.75-.78.85-1.29,1-.94-.89-1.38-.34-2.36-.63-.6-1.75-.18-2.57-.37-.55.78-1.53.64-1.93,1.46-.76.48-.42-.81-.88-1,1.47-1,3.51-1.54,4.46-3.14-.93-.7,1-.78-.07-1.38l-1,0a.56.56,0,0,0,0-.87,8.82,8.82,0,0,0-2-.12c.2-.31.76-.68.59-1.24l-1.13-.6a3.79,3.79,0,0,0,3.21-.92c-.06-.56-1-.45-.93-.7.26,0,.87.24,1.13,0a5.74,5.74,0,0,0-2.92-3.24c.41.2.15-.36.3-.51A27.83,27.83,0,0,0,546.19,74.87Z" transform="translate(-5.89 0.93)"/><path d="M571.6,49.86c1.84-.44,2.73.73,3.87,2-.14,1,.29,2.19-.16,3-1.28-.34-1.51,2.07-2.6.7-.55,1.19-1.54-.18-2.21-.53a3.13,3.13,0,0,1-.86-2.45c.2-.51.6-.93.44-1.59C570.59,50.69,571.77,50.83,571.6,49.86Z" transform="translate(-5.89 0.93)"/><path class="cls-5" d="M571.37,51.56c0,.56-.46.26-.67.06C571,51.2,571.12,52.12,571.37,51.56Z" transform="translate(-5.89 0.93)"/><path class="cls-5" d="M571.38,52.27c-.66.78.47.87.74,1.63-.16-.56-.06-.46.35-.77.26.56-.45.77.32.91,0,0,.66-.47.14-.87.92,0,.23,1.64.74,1.63-.36-.46-.72-.4-1.19-.65-.36,0-.35.47-.6.63,0-.57-.22-.72-.89-.86.11.1.42.09.46-.06-.15,0-.31-.2-.41-.3.05-.16.1.1.26,0,.24-.88-.57-.46-.93-.5.1-.11.61,0,.71-.53s-.36-.25-.47-.45Z" transform="translate(-5.89 0.93)"/><path class="cls-5" d="M571.84,52.11c-.16-.15-.06-.36-.21-.41.57.46.6-.72.82.1-.11-.62.76-.78.55-1.19l.57.45c-.1.11-.16.06-.31,0,0,.46.82.39.87,0l0,1c.06.15,0-.57-.31-.3-.24.87.78.34,1,.49-.45.57-.8,1.35-.07,1.85-.57-.45-.68-.56-1.3-1.06-.06-.66.77.35.61-.42l-.36-.15c.1,0,.15,0,.2,0-.46-.15-.52-.71-1.08-.44.16.56-.15.46-.24,1,.81-.73-.63-1.11-1.25-1C571.63,51.91,571.49,52.48,571.84,52.11Z" transform="translate(-5.89 0.93)"/><path d="M572.8,51.12l.05.36Z" transform="translate(-5.89 0.93)"/><polygon points="566.34 55.13 565.72 54.84 565.87 54.68 566.34 55.13"/><path d="M539.7,86.86l.67.14Z" transform="translate(-5.89 0.93)"/><path class="cls-5" d="M572.54,54.61c-.09,1,.09-.72.62.3-.61,0-.4.83-.92,0Z" transform="translate(-5.89 0.93)"/><path d="M543.24,87.37c.52.2.07,1.28-.39.82C542.53,87.89,542.68,87.12,543.24,87.37Z" transform="translate(-5.89 0.93)"/><path d="M592.54,38c.82,0,1.72-1.26,2.4-.81-.15.47.16.77.62.82.46-.17.56-.78,1.12-.74.9,1.68,1.5.75,2.8,2,.71-.11.91-1,1.2-1.66.37.25-.2.42-.14.67,1.47-1.2,2-3.15,3.32-4.56-.15.37.57.66.62.61l-1.85,3.36c1.53,3.1,4.12,4.6,7.31,5.89.88.45,1.57-1.41,2-.08-.54,1.8-3.36,1.27-3.55,3a36.49,36.49,0,0,1,.76,5.88c-.39,1.24-2-.74-2,1.06.26.25.72.4.78.86-.61.31-1.55-.8-2,.23-.05.56.93.7.32,1.33-.71.32-.88-1.06-1.69-.44-1.64.23.07,1.38-.64,2a1.7,1.7,0,0,1-1.09-1,5.21,5.21,0,0,0-2.35.55,2.45,2.45,0,0,1,.17,1.48c-.82-.5-1.4-1.77-2.59-2-1.07.07.12,1.23-1,1.19-.32-.51-.07-1.48-.7-1.88l-1.48.38c-2.23-2.07-2.83-4.88-5.37-6.64a11.67,11.67,0,0,0-1.71-4.89c.71-.22,1.33-.33,1.57-1.1-.16-.46-.27-1-.43-1.43.25-.36.77-.17.92-.63l-.33-1.12c.77-.27,1.64-.23,2.09-.9.56-.47,0-1-.13-1.54C591.82,37.68,592.23,37.88,592.54,38Z" transform="translate(-5.89 0.93)"/><path d="M539.27,96a1,1,0,0,1-.55.88C538.41,96.61,538.81,96,539.27,96Z" transform="translate(-5.89 0.93)"/><path d="M587,55.53c.3-.82,1.08,0,1.43-.53.94.8,2.15-.34,2.83,1,1.45.8-.27,1.95,1.07,2.86-.9,1.14-1,3.44-3.38,3.48-1.17.58-1.41-1.47-2.36-.17a1.79,1.79,0,0,0-.38-1.38c-.26-.25-.92,0-1-.4.09-.71.49-1.64-.44-1.94.77-.26.65-1,.34-1.59C586.57,57.43,585.51,55.09,587,55.53Z" transform="translate(-5.89 0.93)"/><rect class="cls-5" x="586.49" y="57.35" width="0.07" height="0.36" transform="translate(130.66 439.05) rotate(-45.83)"/><path class="cls-5" d="M586.48,58.36c1,.14-.25.36.37.86-.47-.86-.09.41-.76.17-.11-.62.4-.11.55-.58l-.57-.65.46.14Z" transform="translate(-5.89 0.93)"/><polygon class="cls-5" points="582 58.03 581.65 58.09 581.8 57.94 582 58.03"/><path class="cls-5" d="M589.38,56.62c.16.26,0,.21-.25.26Z" transform="translate(-5.89 0.93)"/><polygon class="cls-5" points="580.97 60.87 581.22 60.4 581.18 60.86 580.97 60.87"/><polygon class="cls-5" points="582.1 60.95 581.59 60.86 582 60.85 582.1 60.95"/><path class="cls-5" d="M588,60.43l.36,0Z" transform="translate(-5.89 0.93)"/><path class="cls-5" d="M589.16,59.34l.06.46Z" transform="translate(-5.89 0.93)"/><path class="cls-5" d="M589.48,60l.41.1Z" transform="translate(-5.89 0.93)"/><path d="M590.9,80.22c-.15.47-.09,1.24-.76,1.09a.74.74,0,0,1-.42-1.12C590.07,79.82,590.74,79.76,590.9,80.22Z" transform="translate(-5.89 0.93)"/><path d="M594.1,82c1.61,1.36,3.47-.77,5.43-.18.87.35-.19,1.23.54,1.74.3-.32.76-.48,1-.79.11.41-.55,1.19.23,1.54a5.24,5.24,0,0,0,2.36.27c1,1.37-1.53,4.48,1.59,4.18-.5.31-1.33,0-1.58.59,0,.87,2.38,1.09,1.06,2.13-.31,0-.67.06-.56.47,0,1,1.55.7,1.36,1.52-1.23.12-2.14,1.16-3.38.56-.86.27-.49,1.44-.79,1.86-.86,1-1.85-.69-2.87,0a3.55,3.55,0,0,1-1.34,2.73c-.28-1.27-1.39-.44-2-.38-.33-2-2.87-.57-3.31-2.21-.2.32-.24.88-.7.73-.17-.76,1.16-1.19.17-1.95-.51-.2-.37-1.17-1.14-1.11-.36,0-.6.83-.92.32.45-1.08-.19-2.51-.41-3.73-.06-.77,1.22-.53.65-1.4-.37-.25-1,.07-1.24-.49,1.2-1.76,3.64-3.54,3.8-6.2A2.14,2.14,0,0,1,594.1,82Z" transform="translate(-5.89 0.93)"/><path d="M579.52,67.31a2,2,0,0,1,1.41,1.57c.16.67-.65,1-.29,1.65-.51-.3-.76.57-1.22.53-.67,0-1.43,0-1.9-.64-.22-.82-.75-2,.11-2.62C578.19,67.23,578.91,67.43,579.52,67.31Z" transform="translate(-5.89 0.93)"/><path class="cls-5" d="M578.32,69.28a.41.41,0,0,1-.77.06c.66-.37-.32-.71.34-1.08A1,1,0,0,1,578.32,69.28Z" transform="translate(-5.89 0.93)"/><path class="cls-5" d="M578.41,68.36l.11.3Z" transform="translate(-5.89 0.93)"/><path class="cls-5" d="M580.26,68.84l-.41-.09,0,.15c.1-.11-.42-.51-.42-.82C579.74,68.34,580.92,68.17,580.26,68.84Z" transform="translate(-5.89 0.93)"/><path class="cls-5" d="M579.36,70.39c-.1-.1-.32-1.22.39-1.34-1.12.53.68.56.43,1.23l-.37-.36c.33.92-.71.42-1.06.58,0,0,.1,0,.15,0a.45.45,0,0,0-.52-.4s0-.26-.15-.15C578.73,69.27,578.79,70.25,579.36,70.39Z" transform="translate(-5.89 0.93)"/><path class="cls-5" d="M578.34,70.51l-.26.16c.1-.21-.26-.36,0-.52Z" transform="translate(-5.89 0.93)"/></g><rect class="cls-3" x="545.16" y="21.93" width="90.72" height="63.84" transform="translate(134.52 440.8) rotate(-45.83)"/><g class="cls-4"><path d="M575.32,32.62l.16.15c-.46-.25-.51.42-.66.27C574.87,32.78,575,32.52,575.32,32.62Z" transform="translate(-5.89 0.93)"/><path d="M544.92,56.43l.42.4c-.19.72-1,.37-1.33.43-.26-.25-.87-.14-.62-.71S544.41,56.13,544.92,56.43Z" transform="translate(-5.89 0.93)"/><path d="M556.64,54.87c.14-1,1.39.75,1.67-.79,0-.36-.87-.24-.62-.81,1.92-2,2.28-5.46,2.7-8.29.21.61,1.29.75,1.3,1.57.12,1.33-1.44,3.45.72,3.83a7.84,7.84,0,0,1,3.81,4.82c2.84,1.13,3.65-2.93,6.58-2a1.84,1.84,0,0,1,.08,1.79c-.7,1.55-2.74,1.68-3.08,3.37.62.4,1.45.6,1.77,1.31.54,2.14,1.6,4.38,1.88,6.17-1,.17-2-.58-2.77-.16.32.71-.8,1.34.13,1.94-.14.77-1.12.74-1.73.75-.3,1,2.9,2.31,1,2.59-.4.73-.93-.49-1.24-.59a1.65,1.65,0,0,0,.09-.72c-2.26-.58-4-2.15-6.19-2.78-1.31,1.45-.35,3.59-1.2,5.4-.42-.41,0-1.44-.34-2L560,69.12c-1.68,1.2-2.73-.52-4.21-.14.15-.36.76-.78.86-1.29,1-.94-.9-1.38-.34-2.36-.63-.6-1.75-.18-2.57-.37-.56.78-1.53.64-1.93,1.46-.76.48-.42-.81-.88-1,1.47-1,3.51-1.54,4.46-3.14-.93-.7,1-.78-.07-1.38l-1,0c.26-.26.36-.57,0-.87a8.75,8.75,0,0,0-2-.12c.2-.31.76-.68.6-1.24l-1.14-.6a3.8,3.8,0,0,0,3.22-.92c-.06-.56-1-.45-.93-.7.25,0,.87.24,1.12,0a5.76,5.76,0,0,0-2.91-3.24c.41.2.15-.36.3-.51A27.83,27.83,0,0,0,556.64,54.87Z" transform="translate(-5.89 0.93)"/><path d="M582.05,29.86c1.84-.44,2.72.73,3.87,2.05-.14,1,.29,2.19-.16,3-1.29-.34-1.51,2.07-2.6.7-.55,1.19-1.54-.18-2.22-.53a3.16,3.16,0,0,1-.85-2.45c.2-.51.6-.93.44-1.59C581,30.69,582.22,30.83,582.05,29.86Z" transform="translate(-5.89 0.93)"/><path class="cls-5" d="M581.82,31.56c-.05.56-.46.26-.67.06C581.45,31.2,581.57,32.12,581.82,31.56Z" transform="translate(-5.89 0.93)"/><path class="cls-5" d="M581.83,32.27c-.66.78.47.87.74,1.63-.16-.56-.06-.46.35-.77.26.56-.45.77.32.91-.06,0,.65-.47.14-.87.92,0,.23,1.64.74,1.63-.37-.46-.72-.4-1.19-.65-.36,0-.35.47-.61.63,0-.57-.21-.72-.88-.86.11.1.41.09.46-.06-.15,0-.31-.2-.41-.3s.1.1.25,0c.25-.88-.57-.46-.93-.5.11-.11.62,0,.71-.53s-.36-.25-.46-.45Z" transform="translate(-5.89 0.93)"/><path class="cls-5" d="M582.29,32.11c-.16-.15-.06-.36-.22-.41.58.46.61-.72.83.1-.11-.62.75-.78.54-1.19l.57.45c-.1.11-.15.06-.3,0-.05.46.82.39.87,0l0,1c.06.15,0-.57-.31-.3-.25.87.77.34,1,.49-.45.57-.8,1.35-.07,1.85-.58-.45-.68-.56-1.3-1.06-.06-.66.77.35.61-.42l-.36-.15c.1,0,.15,0,.2,0-.46-.15-.52-.71-1.08-.44.16.56-.15.46-.24,1,.81-.73-.63-1.11-1.25-1C582.08,31.91,581.93,32.48,582.29,32.11Z" transform="translate(-5.89 0.93)"/><path d="M583.25,31.12l0,.36Z" transform="translate(-5.89 0.93)"/><polygon points="576.78 35.13 576.16 34.84 576.32 34.68 576.78 35.13"/><path d="M550.15,66.86l.67.14Z" transform="translate(-5.89 0.93)"/><path class="cls-5" d="M583,34.61c-.09,1,.09-.72.62.3-.62,0-.4.83-.93,0Z" transform="translate(-5.89 0.93)"/><path d="M553.69,67.37c.52.2.07,1.28-.4.82C553,67.89,553.12,67.12,553.69,67.37Z" transform="translate(-5.89 0.93)"/><path d="M603,18c.82,0,1.72-1.26,2.4-.81-.15.47.16.77.62.82.46-.17.55-.78,1.12-.74.89,1.68,1.5.75,2.8,2,.71-.11.9-1,1.2-1.66.36.25-.2.42-.14.67,1.47-1.2,2-3.15,3.31-4.56-.15.37.58.66.63.61l-1.85,3.36c1.53,3.1,4.11,4.6,7.31,5.89.88.45,1.57-1.41,2-.08-.54,1.8-3.37,1.27-3.55,3a36.4,36.4,0,0,1,.75,5.88c-.39,1.24-2-.74-2,1.06.26.25.72.4.78.86-.61.31-1.55-.8-2.05.23,0,.56.94.7.33,1.33-.71.32-.89-1.06-1.7-.44-1.63.23.08,1.38-.63,2a1.67,1.67,0,0,1-1.09-1,5.18,5.18,0,0,0-2.35.55,2.45,2.45,0,0,1,.17,1.48c-.82-.5-1.41-1.77-2.59-2-1.07.07.12,1.23-1,1.19-.31-.51-.07-1.48-.69-1.88l-1.48.38c-2.23-2.07-2.84-4.88-5.37-6.64a11.67,11.67,0,0,0-1.71-4.89c.71-.22,1.32-.33,1.57-1.1-.16-.46-.27-1-.43-1.43.25-.36.76-.17.91-.63L600,20.38c.76-.27,1.64-.23,2.09-.9.55-.47,0-1-.13-1.54C602.27,17.68,602.68,17.88,603,18Z" transform="translate(-5.89 0.93)"/><path d="M549.72,76a1,1,0,0,1-.55.88C548.85,76.61,549.26,76,549.72,76Z" transform="translate(-5.89 0.93)"/><path d="M597.45,35.53c.3-.82,1.08,0,1.43-.53.93.8,2.15-.34,2.83,1,1.45.8-.28,1.95,1.07,2.86-.91,1.14-1,3.44-3.38,3.48C598.23,43,598,40.9,597,42.2a1.83,1.83,0,0,0-.38-1.38c-.26-.25-.92,0-1-.4.09-.71.49-1.64-.44-1.94.76-.26.65-1,.33-1.59C597,37.43,596,35.09,597.45,35.53Z" transform="translate(-5.89 0.93)"/><rect class="cls-5" x="596.93" y="37.35" width="0.07" height="0.36" transform="translate(148.17 440.48) rotate(-45.83)"/><path class="cls-5" d="M596.93,38.36c1,.14-.25.36.37.86-.47-.86-.1.41-.77.17-.11-.62.41-.11.56-.58l-.57-.65.46.14Z" transform="translate(-5.89 0.93)"/><polygon class="cls-5" points="592.45 38.03 592.1 38.09 592.25 37.94 592.45 38.03"/><path class="cls-5" d="M599.82,36.62c.16.26,0,.21-.25.26Z" transform="translate(-5.89 0.93)"/><polygon class="cls-5" points="591.42 40.87 591.67 40.4 591.62 40.86 591.42 40.87"/><polygon class="cls-5" points="592.55 40.95 592.03 40.86 592.44 40.85 592.55 40.95"/><path class="cls-5" d="M598.45,40.43l.35,0Z" transform="translate(-5.89 0.93)"/><path class="cls-5" d="M599.61,39.34l.06.46Z" transform="translate(-5.89 0.93)"/><path class="cls-5" d="M599.92,40l.42.1Z" transform="translate(-5.89 0.93)"/><path d="M601.34,60.22c-.14.47-.08,1.24-.75,1.09a.75.75,0,0,1-.43-1.12C600.52,59.82,601.18,59.76,601.34,60.22Z" transform="translate(-5.89 0.93)"/><path d="M604.55,62c1.6,1.36,3.47-.77,5.43-.18.87.35-.19,1.23.53,1.74.31-.32.77-.48,1-.79.1.41-.55,1.19.22,1.54a5.26,5.26,0,0,0,2.36.27c1,1.37-1.52,4.48,1.6,4.18-.51.31-1.33,0-1.58.59,0,.87,2.37,1.09,1.06,2.13-.31,0-.67.06-.56.47,0,1,1.55.7,1.35,1.52-1.22.12-2.13,1.16-3.37.56-.87.27-.49,1.44-.79,1.86-.86,1-1.86-.69-2.87,0a3.53,3.53,0,0,1-1.35,2.73c-.27-1.27-1.39-.44-1.95-.38-.34-2-2.88-.57-3.31-2.21-.2.32-.24.88-.71.73-.16-.76,1.17-1.19.18-1.95-.51-.2-.37-1.17-1.14-1.11-.36,0-.61.83-.92.32.44-1.08-.19-2.51-.41-3.73-.07-.77,1.22-.53.64-1.4-.36-.25-1,.07-1.23-.49,1.2-1.76,3.63-3.54,3.8-6.2A2.14,2.14,0,0,1,604.55,62Z" transform="translate(-5.89 0.93)"/><path d="M590,47.31a2,2,0,0,1,1.4,1.57c.17.67-.65,1-.28,1.65-.52-.3-.76.57-1.22.53-.67,0-1.44,0-1.91-.64-.21-.82-.74-2,.12-2.62C588.63,47.23,589.35,47.43,590,47.31Z" transform="translate(-5.89 0.93)"/><path class="cls-5" d="M588.77,49.28a.41.41,0,0,1-.77.06c.66-.37-.32-.71.34-1.08A1.07,1.07,0,0,1,588.77,49.28Z" transform="translate(-5.89 0.93)"/><path class="cls-5" d="M588.86,48.36l.1.3Z" transform="translate(-5.89 0.93)"/><path class="cls-5" d="M590.71,48.84l-.41-.09.05.15c.1-.11-.42-.51-.42-.82C590.19,48.34,591.36,48.17,590.71,48.84Z" transform="translate(-5.89 0.93)"/><path class="cls-5" d="M589.81,50.39c-.11-.1-.33-1.22.39-1.34-1.12.53.67.56.43,1.23l-.37-.36c.32.92-.71.42-1.07.58.06,0,.11,0,.16,0a.46.46,0,0,0-.52-.4c-.05,0,0-.26-.16-.15C589.18,49.27,589.24,50.25,589.81,50.39Z" transform="translate(-5.89 0.93)"/><path class="cls-5" d="M588.78,50.51l-.25.16c.1-.21-.26-.36,0-.52Z" transform="translate(-5.89 0.93)"/></g><rect class="cls-3" x="580.55" y="55.81" width="90.72" height="63.84" transform="translate(120.95 476.45) rotate(-45.83)"/><g class="cls-4"><path d="M610.71,66.5l.16.15c-.46-.25-.51.42-.66.27C610.25,66.66,610.41,66.4,610.71,66.5Z" transform="translate(-5.89 0.93)"/><path d="M580.31,90.31l.42.4c-.2.72-1,.37-1.33.43-.26-.25-.87-.14-.62-.71S579.79,90,580.31,90.31Z" transform="translate(-5.89 0.93)"/><path d="M592,88.75c.14-1,1.4.75,1.68-.79-.05-.36-.87-.24-.62-.81,1.92-2,2.27-5.46,2.7-8.29.21.61,1.29.75,1.3,1.57.12,1.33-1.44,3.45.72,3.83a7.84,7.84,0,0,1,3.81,4.82c2.84,1.13,3.65-2.93,6.58-2a1.84,1.84,0,0,1,.08,1.79c-.7,1.54-2.74,1.68-3.08,3.37.62.4,1.45.6,1.76,1.31.55,2.14,1.6,4.38,1.89,6.17-1,.17-2-.59-2.77-.16.31.71-.8,1.34.13,1.94-.15.77-1.12.74-1.73.75-.3,1,2.9,2.31,1,2.59-.4.73-.93-.5-1.24-.59a1.81,1.81,0,0,0,.09-.72c-2.26-.58-4-2.15-6.19-2.78-1.31,1.45-.36,3.59-1.2,5.39-.42-.4,0-1.43-.34-2L595.35,103c-1.67,1.2-2.72-.52-4.2-.14.15-.36.76-.78.85-1.3,1-.93-.89-1.37-.34-2.35-.62-.61-1.74-.18-2.56-.37-.56.78-1.53.64-1.93,1.46-.76.47-.42-.81-.89-1,1.48-1,3.52-1.54,4.47-3.14-.94-.7,1-.78-.07-1.38l-1,0a.55.55,0,0,0,0-.87,8.22,8.22,0,0,0-2-.12c.2-.32.76-.68.6-1.24L587.2,92a3.8,3.8,0,0,0,3.22-.92c-.06-.56-1-.45-.94-.7.26,0,.88.24,1.13,0a5.76,5.76,0,0,0-2.91-3.24c.41.2.14-.36.3-.51A27.74,27.74,0,0,0,592,88.75Z" transform="translate(-5.89 0.93)"/><path d="M617.44,63.74c1.84-.44,2.72.73,3.87,2-.14,1,.29,2.2-.16,3-1.29-.34-1.51,2.07-2.61.7-.54,1.19-1.54-.18-2.21-.53a3.16,3.16,0,0,1-.85-2.45c.2-.51.6-.93.44-1.59C616.42,64.57,617.61,64.71,617.44,63.74Z" transform="translate(-5.89 0.93)"/><path class="cls-5" d="M617.2,65.43c0,.57-.45.27-.66.06C616.84,65.08,617,66,617.2,65.43Z" transform="translate(-5.89 0.93)"/><path class="cls-5" d="M617.22,66.15c-.66.78.47.86.74,1.63-.17-.56-.06-.46.34-.77.27.56-.45.77.33.91-.06,0,.65-.47.14-.87.92,0,.22,1.64.74,1.63-.37-.46-.73-.4-1.19-.65-.36,0-.35.47-.61.62,0-.56-.21-.71-.88-.85.1.1.41.09.46-.06-.15.05-.31-.2-.41-.3s.1.1.25,0c.25-.87-.57-.45-.93-.5.1-.1.62,0,.71-.52s-.36-.25-.47-.45Z" transform="translate(-5.89 0.93)"/><path class="cls-5" d="M617.67,66c-.15-.15,0-.36-.21-.41.57.46.61-.72.82.09-.11-.61.76-.78.55-1.18l.57.45c-.1.1-.15,0-.31,0,0,.47.83.4.88,0l0,1c.05.15,0-.57-.31-.31-.25.88.77.35,1,.5-.45.57-.8,1.35-.08,1.85l-1.29-1.06c-.06-.66.77.35.61-.42l-.37-.15c.11,0,.16,0,.21,0-.46-.15-.52-.71-1.08-.44.16.56-.15.46-.25,1,.81-.73-.63-1.12-1.24-1C617.47,65.79,617.32,66.35,617.67,66Z" transform="translate(-5.89 0.93)"/><path d="M618.63,65l.06.36Z" transform="translate(-5.89 0.93)"/><polygon points="612.17 69.01 611.55 68.72 611.7 68.56 612.17 69.01"/><path d="M585.54,100.73l.66.15Z" transform="translate(-5.89 0.93)"/><path class="cls-5" d="M618.38,68.49c-.09,1,.09-.72.62.3-.62,0-.4.82-.93,0Z" transform="translate(-5.89 0.93)"/><path d="M589.08,101.25c.51.2.07,1.28-.4.82C588.37,101.77,588.51,101,589.08,101.25Z" transform="translate(-5.89 0.93)"/><path d="M638.38,51.86c.82,0,1.72-1.26,2.39-.81-.14.47.17.77.63.81.46-.16.55-.77,1.12-.73.89,1.68,1.49.75,2.79,2,.72-.11.91-1,1.21-1.66.36.25-.2.42-.14.67,1.46-1.2,2-3.15,3.31-4.56-.15.36.57.66.62.61l-1.84,3.36c1.53,3.1,4.11,4.6,7.31,5.89.87.44,1.56-1.41,2-.08-.53,1.8-3.36,1.27-3.54,3a36.26,36.26,0,0,1,.75,5.88c-.39,1.24-2-.74-2,1.06.26.25.72.4.78.86-.61.31-1.55-.8-2.05.23,0,.56.94.7.33,1.33-.71.31-.89-1.06-1.7-.44-1.63.23.07,1.38-.63,2a1.67,1.67,0,0,1-1.09-1,5.18,5.18,0,0,0-2.35.55,2.45,2.45,0,0,1,.17,1.48c-.83-.5-1.41-1.77-2.59-2-1.08.06.12,1.23-1,1.19-.31-.51-.07-1.48-.69-1.89l-1.48.38c-2.23-2.06-2.84-4.87-5.37-6.63a11.77,11.77,0,0,0-1.71-4.9c.71-.21,1.32-.32,1.57-1.09-.16-.46-.27-1-.43-1.43.25-.36.76-.17.91-.63l-.32-1.12c.76-.27,1.63-.23,2.09-.91.55-.46,0-1-.13-1.53C637.66,51.56,638.07,51.76,638.38,51.86Z" transform="translate(-5.89 0.93)"/><path d="M585.1,109.91a1,1,0,0,1-.55.88C584.24,110.49,584.64,109.87,585.1,109.91Z" transform="translate(-5.89 0.93)"/><path d="M632.84,69.41c.3-.83,1.08,0,1.43-.53.93.8,2.15-.34,2.83,1,1.45.8-.28,2,1.07,2.86-.91,1.14-1,3.44-3.39,3.48-1.17.58-1.4-1.47-2.36-.17a1.78,1.78,0,0,0-.37-1.38c-.26-.25-.93,0-1-.4.1-.72.49-1.64-.43-1.94.76-.26.65-1,.33-1.59C632.41,71.31,631.35,69,632.84,69.41Z" transform="translate(-5.89 0.93)"/><rect class="cls-5" x="632.32" y="71.23" width="0.07" height="0.36" transform="translate(134.6 476.13) rotate(-45.83)"/><path class="cls-5" d="M632.32,72.24c1,.13-.25.36.37.86-.47-.86-.1.41-.77.17-.11-.62.41-.11.56-.58l-.57-.65.46.14Z" transform="translate(-5.89 0.93)"/><polygon class="cls-5" points="627.84 71.91 627.48 71.97 627.63 71.81 627.84 71.91"/><path class="cls-5" d="M635.21,70.5c.16.26,0,.21-.25.26Z" transform="translate(-5.89 0.93)"/><polygon class="cls-5" points="626.81 74.75 627.06 74.28 627.01 74.74 626.81 74.75"/><polygon class="cls-5" points="627.93 74.83 627.42 74.74 627.83 74.73 627.93 74.83"/><path class="cls-5" d="M633.83,74.31l.36,0Z" transform="translate(-5.89 0.93)"/><path class="cls-5" d="M635,73.22l0,.46Z" transform="translate(-5.89 0.93)"/><path class="cls-5" d="M635.31,73.83l.41.1Z" transform="translate(-5.89 0.93)"/><path d="M636.73,94.1c-.14.47-.08,1.23-.75,1.09a.75.75,0,0,1-.43-1.12C635.91,93.7,636.57,93.64,636.73,94.1Z" transform="translate(-5.89 0.93)"/><path d="M639.94,95.9c1.6,1.36,3.47-.77,5.42-.18.88.35-.18,1.23.54,1.73.3-.31.76-.47,1-.78.11.41-.54,1.19.23,1.54a5.26,5.26,0,0,0,2.36.27c1,1.37-1.52,4.48,1.6,4.18-.51.31-1.33,0-1.58.58,0,.88,2.37,1.1,1.06,2.14-.31,0-.67.06-.56.47,0,1,1.55.7,1.35,1.52-1.23.12-2.13,1.16-3.37.56-.87.27-.49,1.44-.8,1.86-.85,1-1.85-.7-2.86,0a3.53,3.53,0,0,1-1.35,2.73c-.27-1.28-1.39-.44-2-.38-.34-2-2.88-.57-3.31-2.21-.2.31-.24.88-.71.73-.16-.77,1.16-1.19.18-2-.52-.2-.38-1.17-1.14-1.11-.36,0-.61.83-.92.32.44-1.08-.19-2.51-.42-3.73-.06-.77,1.23-.53.65-1.4-.36-.25-1,.07-1.24-.49,1.21-1.76,3.64-3.54,3.81-6.21A2.14,2.14,0,0,1,639.94,95.9Z" transform="translate(-5.89 0.93)"/><path d="M625.36,81.19a2,2,0,0,1,1.4,1.57c.17.67-.65,1-.28,1.65-.52-.3-.76.57-1.22.53-.67,0-1.44,0-1.91-.64-.22-.82-.75-2,.12-2.62C624,81.11,624.74,81.31,625.36,81.19Z" transform="translate(-5.89 0.93)"/><path class="cls-5" d="M624.15,83.16a.4.4,0,0,1-.76.06c.66-.37-.32-.71.34-1.08A1,1,0,0,1,624.15,83.16Z" transform="translate(-5.89 0.93)"/><path class="cls-5" d="M624.24,82.24l.11.3Z" transform="translate(-5.89 0.93)"/><path class="cls-5" d="M626.1,82.72l-.42-.1.06.16c.1-.11-.42-.51-.42-.82C625.58,82.22,626.75,82,626.1,82.72Z" transform="translate(-5.89 0.93)"/><path class="cls-5" d="M625.2,84.27c-.11-.1-.33-1.22.39-1.34-1.12.53.67.56.42,1.23l-.36-.36c.32.92-.71.42-1.07.58,0,0,.11,0,.16,0a.46.46,0,0,0-.52-.4c-.05-.05,0-.26-.16-.16C624.56,83.15,624.63,84.12,625.2,84.27Z" transform="translate(-5.89 0.93)"/><path class="cls-5" d="M624.17,84.39l-.25.16c.1-.21-.26-.36,0-.52Z" transform="translate(-5.89 0.93)"/></g><path d="M990.33,112.6H8.18c-.34,0-2.2-.06-2,.11-.51-.53,0-4.16,0-4.86V10.93C6.14,10.39,6,7,6,7c.28-.25,2,0,2.32,0h974c1.24,0,7.47-.49,7.88,0,.63.73,0,4.77,0,5.69v100a.13.13,0,0,0,.25,0V6.9a.13.13,0,0,0-.13-.12H46c-12.66,0-25.63-.82-38.28,0-.55,0-1.12,0-1.67,0a.13.13,0,0,0-.13.12V112.72a.13.13,0,0,0,.13.13H950.38c12.67,0,25.63.79,38.28,0,.55,0,1.12,0,1.67,0A.13.13,0,0,0,990.33,112.6Z" transform="translate(-5.89 0.93)"/></svg>