<svg id="Layer_1" data-name="Layer 1" xmlns="http://www.w3.org/2000/svg" viewBox="0 0 330.17 108.33"><defs><style>.cls-1,.cls-4,.cls-5{stroke:#050505;}.cls-1,.cls-5{stroke-miterlimit:10;}.cls-2{fill:#fff;}.cls-3{fill:#050505;}.cls-4,.cls-5{fill:none;}.cls-4{stroke-linecap:round;stroke-linejoin:round;stroke-width:0;}.cls-5{stroke-width:0.5px;}.cls-6,.cls-7{fill:#d1c9ac;}.cls-7{font-size:36px;font-family:CormorantGaramond-Italic, Cormorant Garamond;font-style:italic;}.cls-8{letter-spacing:-0.02em;}.cls-9{letter-spacing:-0.02em;}.cls-10{letter-spacing:0em;}</style></defs><title>Untitled-1</title><rect class="cls-1" x="9.03" y="8.35" width="312.96" height="91.55"/><rect x="4.94" y="4.58" width="321.13" height="99.1"/><path class="cls-2" d="M9.33,52.56c0-2-.05-5.17-.05-7.84s0-4.8.07-4.71c-.11-.17-.11-.17-.19-6.13,0,.06.05-1.24.05-3V25.26c-.06,2.81-.07,6.66-.09,14.38.17,7-.08,21.64.1,28.23C9.26,63.09,9.38,58.44,9.33,52.56Z" transform="translate(-4.85 -4.32)"/><path class="cls-2" d="M9.84,20.94l0-1,.07,12.21C9.83,29.63,9.79,21.33,9.84,20.94Z" transform="translate(-4.85 -4.32)"/><path class="cls-3" d="M37.15,8.82c-1.1.08,5.11.13,5,.21A53.7,53.7,0,0,1,47.59,9l9.64,0,2.15-.13C54.19,8.75,41.06,8.79,30,8.78Z" transform="translate(-4.85 -4.32)"/><path class="cls-2" d="M47.16,8.92l3.51-.09C47.74,8.85,41,8.87,47.16,8.92Z" transform="translate(-4.85 -4.32)"/><path class="cls-2" d="M39.65,8.46c-8.69,0,5.24,0-3.51.08C39.07,8.52,42.47,8.51,39.65,8.46Z" transform="translate(-4.85 -4.32)"/><polygon class="cls-3" points="71.18 4.4 52.69 4.46 60.34 4.52 71.18 4.4"/><path class="cls-3" d="M77,9c-2.42,0-6.22-.05-2.76-.1C80.89,9,85,8.86,91.15,9L85.27,9c.8.11,12.28-.11,12,.08,8-.13-6-.16,4.29-.26-9.74,0-16.93,0-25.11,0l6.67.07-20.44.07C66.32,9,71.34,8.93,77,9Z" transform="translate(-4.85 -4.32)"/><path class="cls-3" d="M106.52,9c6.27,0,16,0,17.62-.13-6.61-.1-7.78,0-10.76.08-1.91,0-8.18,0-5.64-.11C108.67,8.89,103.69,9,106.52,9Z" transform="translate(-4.85 -4.32)"/><path class="cls-3" d="M131.15,9.05l4.58-.13-2.95,0-.34-.09c-.52,0-2.72.19-9,.18C126.71,9.1,127.83,9,131.15,9.05Z" transform="translate(-4.85 -4.32)"/><path class="cls-3" d="M132.66,8.41c4.25.06,6.74,0,11.63,0-6.8,0-16.46,0-18.5.06l.54,0-10.91.16C122.35,8.51,134.71,8.64,132.66,8.41Z" transform="translate(-4.85 -4.32)"/><path class="cls-3" d="M124,8.4l5-.08Z" transform="translate(-4.85 -4.32)"/><polygon class="cls-3" points="145.72 4.7 136.11 4.66 138.46 4.7 145.72 4.7"/><path class="cls-3" d="M139.09,8.63c7.71,0-4.2-.1,3-.1,2,0-10.64,0-11.23.06C132.81,8.62,138.3,8.52,139.09,8.63Z" transform="translate(-4.85 -4.32)"/><path class="cls-3" d="M156.84,9l7.9-.1Z" transform="translate(-4.85 -4.32)"/><path class="cls-3" d="M176.59,9.09,178.15,9c7.65.06,18,0,23.54.11-1.31-.08,3.19-.17-3.55-.2-1,.05-3.45.05-3.06.1-2.88,0-2.29-.08-4.2-.1L174.3,9h3.85c-8.42.12-9.89-.17-13.58,0C167.55,9,172.67,9.12,176.59,9.09Z" transform="translate(-4.85 -4.32)"/><path class="cls-3" d="M175.9,8.62l-6.76,0c2.1-.09,8.25,0,9.35-.08-.4-.06-7.12-.08-4.66-.12-.82.21-9.22,0-5.72.25-8.75,0-2.7-.13-11.91-.12l-2.6.11Z" transform="translate(-4.85 -4.32)"/><path class="cls-3" d="M202,8.65l3.27.07-1.77-.1c15,0,23.86.4,32.95.34,11.35-.13,21.91.07,33.48,0,5.65-.09-5.42,0-6-.11,1.63-.17,5.5.09,8.13-.05.74-.12-11.86-.13-16.83-.21-4.33,0-4.26.06-5.58.13-1.09-.07-5.49-.09-6.59-.16-9,.1-13.74-.08-22.61,0-2.77-.09,6.64,0,3.7,0h-4.84l.51,0c-6.58.09-18.74,0-23-.06,3.32,0,5.63.11,1.71.14l-3.22-.11-8.48.16C193.27,8.64,200.7,8.85,202,8.65Z" transform="translate(-4.85 -4.32)"/><path class="cls-3" d="M192.6,8.46c-10.08-.06,1.2.16-9.85.11h11.64Z" transform="translate(-4.85 -4.32)"/><path class="cls-2" d="M240.82,8.73l5,.07C243.09,8.65,235.25,8.86,240.82,8.73Z" transform="translate(-4.85 -4.32)"/><polygon class="cls-2" points="254.36 4.41 251.72 4.55 256.42 4.47 254.36 4.41"/><path class="cls-3" d="M276,8.9c3.74-.07-.73-.13-5.07-.12C274.83,8.79,276.87,8.85,276,8.9Z" transform="translate(-4.85 -4.32)"/><path class="cls-2" d="M303.63,9.17c-8.45,0,7.49,0,1.42.16C306.15,9.27,310.43,9.19,303.63,9.17Z" transform="translate(-4.85 -4.32)"/><path class="cls-3" d="M330.31,9.52v0h-2.7c-.73,0-1.14,0-1.35,0h4.05Z" transform="translate(-4.85 -4.32)"/><path class="cls-3" d="M225.54,9.07h0Z" transform="translate(-4.85 -4.32)"/><path class="cls-3" d="M227.47,9.07h0Z" transform="translate(-4.85 -4.32)"/><path class="cls-3" d="M290.23,9.37h0Z" transform="translate(-4.85 -4.32)"/><path class="cls-3" d="M22.33,9h0Z" transform="translate(-4.85 -4.32)"/><path class="cls-3" d="M17.78,8.81C24.72,8.72,25.2,9,36.45,9L22.29,9C15.85,8.86,27.27,8.93,17.78,8.81Z" transform="translate(-4.85 -4.32)"/><path class="cls-3" d="M111.57,8.64h0Z" transform="translate(-4.85 -4.32)"/><polygon class="cls-2" points="202.99 103.61 203.06 103.57 209.26 103.62 202.99 103.61"/><path class="cls-2" d="M207,107.85l-10.53-.07,62.44,0-2,0Z" transform="translate(-4.85 -4.32)"/><path class="cls-2" d="M204,107.91c-6.06.16-10.07-.06-17.5.06,5-.08,8.48-.16,13.26-.12Z" transform="translate(-4.85 -4.32)"/><path class="cls-4" d="M183.16,108.22H174C175.12,108.11,180.3,108.2,183.16,108.22Z" transform="translate(-4.85 -4.32)"/><path class="cls-3" d="M174.19,108.69h-1.54l1.58,0Z" transform="translate(-4.85 -4.32)"/><path class="cls-3" d="M174.23,108.67l.09-.06C175.41,108.63,175.11,108.65,174.23,108.67Z" transform="translate(-4.85 -4.32)"/><path class="cls-3" d="M172.65,108.69l-3.86.06h1.43c-2,0-5.42.06-6.34,0,3.86,0,3.92,0,4-.11h-6.27C162.83,108.48,167.07,108.68,172.65,108.69Z" transform="translate(-4.85 -4.32)"/><path class="cls-4" d="M152.84,108.73l6.45-.1C161.07,108.73,155.25,108.74,152.84,108.73Z" transform="translate(-4.85 -4.32)"/><path class="cls-3" d="M143.34,108.61c1.5,0,7.78,0,4-.06l3.53,0C146.61,108.56,150.59,108.68,143.34,108.61Z" transform="translate(-4.85 -4.32)"/><path class="cls-3" d="M150.85,108.53h0Z" transform="translate(-4.85 -4.32)"/><path class="cls-4" d="M218.25,108.07c-.78,0-.76,0-.41,0Z" transform="translate(-4.85 -4.32)"/><path class="cls-3" d="M130.45,108.5h0Z" transform="translate(-4.85 -4.32)"/><path class="cls-3" d="M330.92,107.52c-8.43,0-16.43-.06-28.6,0,.28.13-4.89,0-5.6.17,12.61,0-47.52.08-37.45.14l3-.06-3.13.14c-6,0-14.32-.14-18.42-.07l49.54,0c4.66.16-70.5.15-72.43.22L217,108l-23.19.27-1.77-.1c5.75,0,7.32,0,13.2-.08l-19.8,0c.27.13,6.67.07-3.12.14-2.82-.05,3.69-.2-5.06-.17-10.59,0-8.47.16-17.7.17l6.22,0c-3.4,0-9.74,0-13,0,3.85,0,13.65-.06,13.37-.19l-15.95,0,2.08-.09c-3.73-.09-5.87,0-10.58,0-4.45,0,2.69.13.21.17-.92,0-9.55-.08-12.55,0,2.11.19,10.25-.06,15.76.13l-8.17,0c-5.14.19,13.07,0,10.42.15-6.14.2-12.79-.19-18.49.06,3.79,0,15.88.06,14.33.13-4.27-.08-7.33.06-13.22.09l-7.12-.09c-3,.06-.58.06,1.78.1-10.48-.12-28.11,0-42.9-.12-8.75,0-1.1.08-5.08.15-4.66-.12-12.54,0-17.38,0-1.44,0-4.05.11-2.66.15l12.2-.07c-.58.06,1.2.16,5.57.15-3-.23,17.21.14,18.09-.12l-.17.12,15.61-.08-.46,0,21.83,0c-2.48,0-16.92,0-8.42.12l-29.53,0,2.28.07c-12.27.11-28.5,0-42.09,0l4-.1c-4.78,0-10.93-.13-15.43,0,5.82,0,2.82.06,1.78.1l-30.07,0s.52,0,.06,0H9l-.05-9.91c0-5.31.08-7.13.15-10.4,0-2,0-6.82-.08-5v2.78c-.12-5.68,0-4,0-11.08.1,5.49.14-1.71.24-1.06,0-8.31-.18-.77-.22-1.81,0-10.09.14-11.39.16-21.52-.06-.58,0,7.19-.11,8,0-2.88,0-6.26,0-6.79l0,6.22c.07-10.53.09-20.67,0-32.37l0,.92V19.59l.12,2.6c0-3.91.07-8.11,0-10.2v1.44l0-5.28h0l.11,5.42c0-1.63,0-3.4,0-5.32l10-.1c3.4,0,7.07-.07,11-.06,2.18.16-17.49.05-18.79.25,3.34,0,9.08.07,11.12,0C22,8.3,19.58,8.3,17.15,8.3c8.88-.1,22.17.06,27.78-.11l-6.68-.07C46,8.1,51,8.31,53.62,8.2l-6.12.2,25.4-.15c.19-.12-10.65,0-10.13,0l3.52-.09,17.21.14.12-.08c4.66.12,17.11-.1,12.42.1l-3.78-.05.32.1,16.09-.07c-1.57.07,6.2.05,4.12.14l5.94-.08c2.7.13-10.9.16-11.54.26.21.06,3,.05,4.38,0-7.15.1-10.67-.13-17.78-.13l-3.54.08.2-.11c-3,0-5.48.1-6.52.14-7-.16-14.57,0-25.17,0,8.81-.07-5.63-.11-4.13-.14-4.83,0-16.78.2-20.91.06-2.82-.06,5.93-.08-.8-.11-4.38,0-7.39.08-4.56.13l-18.88,0c0,4.59,0,9.22,0,13.7l-.08-2.54c-.06,6.67,0,13.14.13,16.65,0,.92,0,1.44-.06.41-.12,8.5.16,10.89.13,24.87.11-.79.12-7.06.07-11.49l.12,1.16c0-12.1,0-25.69-.09-35.48l.09,4.5c.14-7.41-.09-6.47,0-11.5l2.56.05c5.89,0-4.25-.06.18-.12,4.17,0-1.06.22,5.91.22L9.93,9c0,23.82,0,50.15.06,74.57,0,.53,0-.92,0-2.35,0,1.58,0,5,0,9.72s0,10.42,0,16.77l39.4.09c12,0,20.91,0,21.73-.12,1.37.05-3.07.1,2.75.1.53,0,2-.06.65-.1,14.72.17,34.38,0,52.1.1-.4,0,3.52-.08,3.58-.12,6.08.13,16.46,0,22.16.06l-1.84-.06h17.92c.52,0-1.91,0-3.34,0a46.28,46.28,0,0,1,5.16.09l8-.13c23.35.22,52.47-.13,79.35,0,4-.1,7.49-.15,14.3-.16l-3.34,0c6.92-.09.4,0,6.28,0,4-.07,1.21-.17-4.2-.11-3.39,0-1.3-.07,1.12-.1C293.36,107.26,313.45,107.33,330.92,107.52Z" transform="translate(-4.85 -4.32)"/><path class="cls-3" d="M330.05,84.14c.05-2.34,0,9.27.15,3.59.21-18,0-47.37.21-68.74,0-4.45.07-6.24.1-9.69l-1.85,0c-.09,0-.11,0,.14.06l-21.05,0c-1.66,0-2.87.1.3.08-8.85.08-15.27-.15-20.25-.09,4.3.06-4.28.08.86.13-9.27,0-8.44-.29-15.77-.32-.43,0-.88.05.59.05-8-.13-24.55.08-25.43-.13l-3.22.08c-3.52-.06-2.64-.11-8.5-.14-3.82,0,.15.08-1.25.11C233.47,9,223.23,9,218.57,8.92c-.27-.14,8.3.17,12.92.05a11.54,11.54,0,0,0-1.46,0c24.27,0,42.76.4,62.72.3,4.38.09,7.75,0,9.71-.09-3.6,0-13.88-.13-14.12.06l-6.24-.12a27.26,27.26,0,0,1-3.34-.21c4.4,0,9.38-.16,3.45-.22,11.58,0-3.74.39,6.52.34l1.5-.13c-1.94.07,6.93.13,10.25.08l-1.38,0,31.76,0c0,20.49,0,42.55.06,62-.33,7.41.12,22.14-.15,29.11.05,3.32.12-4.73.16,1.65,0,3.19-.07,3.47-.09,3.33l0,2.92C330.55,110.32,330.26,104.73,330.05,84.14Z" transform="translate(-4.85 -4.32)"/><rect class="cls-5" x="4.94" y="4.58" width="321.13" height="99.1"/><path class="cls-2" d="M5.25,50.42c0-2.07-.06-5.37-.06-8.13s0-5,.08-4.89c-.12-.18-.12-.18-.2-6.36,0,.07,0-1.29.06-3.1s0-4.08,0-5.84C5.06,25,5.05,29,5,37c.16,7.3-.09,22.46.09,29.29C5.17,61.35,5.29,56.52,5.25,50.42Z" transform="translate(-4.85 -4.32)"/><path class="cls-2" d="M5.75,17.62l0-1.08L5.78,29.2C5.74,26.64,5.7,18,5.75,17.62Z" transform="translate(-4.85 -4.32)"/><path class="cls-3" d="M34.09,5.05c-1.15.08,5.3.13,5.17.21a55.75,55.75,0,0,1,5.66-.09l10,0,2.23-.13C51.76,5,38.15,5,26.62,5Z" transform="translate(-4.85 -4.32)"/><path class="cls-2" d="M44.47,5.14l3.65-.08C45.07,5.08,38,5.09,44.47,5.14Z" transform="translate(-4.85 -4.32)"/><path class="cls-2" d="M36.68,4.68c-9,0,5.43.06-3.65.09C36.08,4.75,39.6,4.74,36.68,4.68Z" transform="translate(-4.85 -4.32)"/><polygon class="cls-3" points="69.57 0.63 50.39 0.69 58.32 0.75 69.57 0.63"/><path class="cls-3" d="M75.47,5.22c-2.51,0-6.45,0-2.87-.09,6.87.1,11.12,0,17.51,0l-6.1,0c.83.11,12.73-.11,12.41.08,8.26-.13-6.26-.16,4.45-.26-10.1,0-17.56,0-26,0l6.92.06-21.21.08C64.35,5.27,69.56,5.15,75.47,5.22Z" transform="translate(-4.85 -4.32)"/><path class="cls-3" d="M106.05,5.25c6.51,0,16.54,0,18.28-.13-6.85-.1-8.07,0-11.17.08-2,0-8.48,0-5.84-.11C108.28,5.12,103.12,5.2,106.05,5.25Z" transform="translate(-4.85 -4.32)"/><path class="cls-3" d="M131.6,5.28l4.75-.13-3,0-.36-.09c-.54,0-2.82.19-9.33.18C127,5.33,128.16,5.24,131.6,5.28Z" transform="translate(-4.85 -4.32)"/><path class="cls-3" d="M133.17,4.64c4.41.06,7,0,12.06,0-7,0-17.07,0-19.18.06l.55,0-11.32.16C122.47,4.73,135.3,4.87,133.17,4.64Z" transform="translate(-4.85 -4.32)"/><path class="cls-3" d="M124.15,4.63l5.15-.08Z" transform="translate(-4.85 -4.32)"/><polygon class="cls-3" points="146.89 0.93 136.93 0.89 139.37 0.93 146.89 0.93"/><path class="cls-3" d="M139.84,4.86c8,0-4.36-.11,3.16-.1,2,0-11,0-11.64.06C133.32,4.84,139,4.75,139.84,4.86Z" transform="translate(-4.85 -4.32)"/><path class="cls-3" d="M158.25,5.26l8.2-.1Z" transform="translate(-4.85 -4.32)"/><path class="cls-3" d="M178.74,5.32l1.62-.07c7.93.06,18.65,0,24.42.11-1.36-.09,3.31-.18-3.68-.2-1.08,0-3.58,0-3.18.1-3,0-2.37-.08-4.35-.11l-17.2.09h4c-8.73.12-10.26-.17-14.09,0C169.37,5.21,174.67,5.35,178.74,5.32Z" transform="translate(-4.85 -4.32)"/><path class="cls-3" d="M178,4.85l-7,0c2.17-.09,8.55,0,9.7-.09-.43-.05-7.4-.08-4.84-.12-.85.22-9.56,0-5.94.26-9.07,0-2.79-.14-12.35-.12l-2.7.11Z" transform="translate(-4.85 -4.32)"/><path class="cls-3" d="M205.07,4.88l3.4.07-1.84-.1c15.6,0,24.75.4,34.18.34,11.78-.14,22.73.07,34.74,0,5.85-.09-5.63-.06-6.24-.11,1.69-.17,5.71.09,8.43,0,.77-.12-12.3-.13-17.45-.21-4.49,0-4.43.06-5.8.13-1.13-.07-5.69-.09-6.84-.16-9.35.1-14.25-.09-23.45,0-2.87-.1,6.89,0,3.84,0h-4.49c-6.83.1-19.44,0-23.84,0,3.44,0,5.84.11,1.77.14l-3.34-.11L189.35,5C196.05,4.87,203.75,5.08,205.07,4.88Z" transform="translate(-4.85 -4.32)"/><path class="cls-3" d="M195.35,4.68c-10.45,0,1.25.17-10.22.12l12.08,0Z" transform="translate(-4.85 -4.32)"/><path class="cls-2" d="M245.37,5l5.17.07C247.73,4.88,239.6,5.08,245.37,5Z" transform="translate(-4.85 -4.32)"/><polygon class="cls-2" points="259.6 0.64 256.86 0.78 261.74 0.7 259.6 0.64"/><path class="cls-3" d="M281.86,5.12c3.88-.07-.76-.13-5.26-.11C280.66,5,282.77,5.08,281.86,5.12Z" transform="translate(-4.85 -4.32)"/><path class="cls-2" d="M310.53,5.39c-8.76,0,7.77,0,1.48.17C313.15,5.5,317.59,5.42,310.53,5.39Z" transform="translate(-4.85 -4.32)"/><path class="cls-3" d="M334.4,9c0-1.84,0-3.4,0-3.28l-.39,0h.42C334.42,7.26,334.4,8.46,334.4,9Z" transform="translate(-4.85 -4.32)"/><path class="cls-3" d="M229.52,5.29h0Z" transform="translate(-4.85 -4.32)"/><path class="cls-3" d="M231.53,5.3h0Z" transform="translate(-4.85 -4.32)"/><path class="cls-3" d="M296.63,5.6h0l-.68,0Z" transform="translate(-4.85 -4.32)"/><path class="cls-3" d="M18.71,5.23h0Z" transform="translate(-4.85 -4.32)"/><path class="cls-3" d="M14,5c7.19-.09,7.69.21,19.35.14l-14.68.05C12,5.09,23.84,5.16,14,5Z" transform="translate(-4.85 -4.32)"/><path class="cls-3" d="M111.29,4.87h0Z" transform="translate(-4.85 -4.32)"/><polygon class="cls-2" points="202.48 107.38 202.54 107.34 208.98 107.39 202.48 107.38"/><path class="cls-2" d="M206.44,111.63l-10.93-.08,64.77,0-2.1,0Z" transform="translate(-4.85 -4.32)"/><path class="cls-2" d="M203.32,111.69c-6.29.16-10.45-.06-18.16,0,5.15-.07,8.8-.16,13.76-.12Z" transform="translate(-4.85 -4.32)"/><path class="cls-4" d="M181.72,112l-9.55,0C173.38,111.88,178.75,112,181.72,112Z" transform="translate(-4.85 -4.32)"/><path class="cls-3" d="M172.42,112.46h-1.61l1.65,0Z" transform="translate(-4.85 -4.32)"/><path class="cls-3" d="M172.46,112.44l.09-.06C173.68,112.41,173.37,112.42,172.46,112.44Z" transform="translate(-4.85 -4.32)"/><path class="cls-3" d="M170.81,112.46l-4,.06h1.49c-2,0-5.63.06-6.59,0,4,0,4.07,0,4.19-.11h-6.5C160.63,112.26,165,112.45,170.81,112.46Z" transform="translate(-4.85 -4.32)"/><path class="cls-4" d="M150.26,112.51l6.7-.11C158.8,112.5,152.76,112.51,150.26,112.51Z" transform="translate(-4.85 -4.32)"/><path class="cls-3" d="M140.41,112.39c1.56,0,8.07,0,4.13-.07l3.66,0C143.8,112.33,147.94,112.45,140.41,112.39Z" transform="translate(-4.85 -4.32)"/><path class="cls-3" d="M148.2,112.3h0Z" transform="translate(-4.85 -4.32)"/><path class="cls-4" d="M218.12,111.85c-.81,0-.78,0-.43,0Z" transform="translate(-4.85 -4.32)"/><path class="cls-3" d="M127,112.27h0Z" transform="translate(-4.85 -4.32)"/><path class="cls-3" d="M335,111.3c-8.75,0-17-.07-29.67,0,.29.13-5.08,0-5.81.18,13.08,0-49.3.08-38.86.14l3.13-.06-3.25.13c-6.27,0-14.85-.14-19.11-.06l51.39,0c4.84.16-73.13.15-75.14.23l-.87-.09-24,.27-1.84-.1c6,0,7.6,0,13.7-.08l-20.55,0c.29.13,6.92.06-3.23.13-2.93,0,3.82-.19-5.25-.17-11,0-8.79.16-18.36.17l6.45,0c-3.53,0-10.11,0-13.5,0,4,0,14.17-.07,13.88-.2H147.52l2.16-.1c-3.87-.08-6.1.05-11,0-4.61.05,2.8.13.23.17-1,0-9.91-.08-13,0,2.19.19,10.63-.06,16.35.13l-8.48,0c-5.33.2,13.56,0,10.81.16-6.37.19-13.26-.2-19.18.06,3.93,0,16.47,0,14.86.12-4.42-.07-7.6.06-13.71.09l-7.39-.09c-3.12.06-.6.06,1.85.1l-44.5-.12c-9.08,0-1.14.09-5.27.15-4.84-.11-13,0-18,0-1.5,0-4.2.11-2.77.16l12.67-.08c-.61.06,1.24.17,5.77.15-3.14-.22,17.85.14,18.77-.11l-.18.11,16.2-.08h-.48l22.64,0c-2.57,0-17.55,0-8.73.12H86.47l2.36.08c-12.73.11-29.57,0-43.66,0l4.19-.11c-5,0-11.34-.13-16,0,6,0,2.93.06,1.85.11l-30.32,0v-2.52s0,.54,0,.06L4.85,98.47c0-5.5.08-7.4.15-10.79,0-2,0-7.07-.07-5.15v2.88c-.12-5.89,0-4.12,0-11.49.1,5.69.14-1.78.24-1.1,0-8.62-.17-.8-.22-1.88C5,60.48,5,59.13,5.06,48.61,5,48,5,56.07,5,57c0-3,0-6.5,0-7.05l-.05,6.45C5,45.44,5,34.92,4.93,22.78l0,1V16.21L5,18.92c0-4.06.07-8.42,0-10.59v1.5L5,4.37H5L5.07,10c0-1.69,0-3.51,0-5.49l10.31-.1c3.52,0,7.33-.07,11.37-.06,2.27.15-18.15,0-19.49.25,3.47,0,9.42.07,11.53,0-.42,0-2.92,0-5.44,0,9.21-.11,23,.06,28.81-.11l-6.92-.07c8.06,0,13.24.19,15.94.08l-6.35.2,26.36-.16c.19-.11-11.06,0-10.52,0l3.65-.08,17.86.14.13-.08c4.82.12,17.74-.11,12.88.1l-3.93,0,.34.09,16.69-.06c-1.63.07,6.44,0,4.28.14l6.16-.08c2.8.13-11.31.16-12,.26.22.06,3.12,0,4.54,0-7.42.1-11.07-.13-18.44-.13l-3.67.08.2-.12c-3.06,0-5.69.1-6.76.15-7.28-.16-15.12,0-26.11,0,9.13-.07-5.85-.11-4.29-.14-5,0-17.41.2-21.69.06-2.93-.06,6.15-.09-.83-.11-4.54,0-7.67.07-4.73.13H5.39c0,4.76,0,9.57,0,14.21l-.07-2.64c-.07,6.92,0,13.63.12,17.28,0,1,0,1.49,0,.42-.13,8.82.15,11.3.13,25.81.1-.83.11-7.33.06-11.93l.13,1.2c0-12.55,0-26.64-.1-36.81L5.69,17c.15-7.69-.08-6.72,0-11.93l2.66,0c6.11,0-4.42-.07.19-.12,4.32,0-1.11.21,6.12.22l-8.8,0c0,24.71,0,52,.06,77.36,0,.55,0-1,0-2.44,0,1.8,0,5.93,0,11.5s0,12.4,0,19.84l38.81.08c11.51,0,20,0,20.79-.12,1.42,0-3.18.1,2.85.1.55,0,2.09-.06.67-.1,15.28.17,35.67,0,54.05.1-.41,0,3.65-.08,3.72-.12,6.31.13,17.08,0,23,.06l-1.91-.06H166.5c.54,0-2,0-3.47,0a50,50,0,0,1,5.36.09l8.27-.13c24.22.22,54.43-.13,82.31,0,4.19-.11,7.78-.16,14.84-.17l-3.47,0c7.18-.09.42.05,6.52,0,4.13-.07,1.26-.16-4.36-.1-3.52,0-1.35-.08,1.17-.1C296.05,111,316.88,111.1,335,111.3Z" transform="translate(-4.85 -4.32)"/><path class="cls-3" d="M334.14,87c.05-2.43,0,9.62.15,3.73.21-18.73,0-49.14.21-71.32.05-5.93.07-7.49.12-12.82,0-.1,0-.11-.06.15V5.56l-19.75,0c-1.72,0-3,.1.31.08-9.18.07-15.84-.15-21-.09,4.46.06-4.44.08.89.13-9.62,0-8.75-.29-16.35-.32-.45,0-.92,0,.61,0-8.29-.13-25.47.07-26.38-.14l-3.35.09c-3.64-.07-2.74-.11-8.81-.14-4,0,.15.08-1.3.11-1.67-.09-12.29,0-17.13-.17-.28-.13,8.61.18,13.41.06a10.57,10.57,0,0,0-1.52,0c25.18,0,44.36.4,65.06.31,4.56.09,8.05,0,10.08-.09-3.74,0-14.4-.13-14.65,0l-6.47-.11a32.23,32.23,0,0,1-3.47-.21c4.57,0,9.74-.16,3.58-.23,12,0-3.87.39,6.77.35l1.55-.14c-2,.07,7.2.14,10.64.09l-1.43,0,29.1,0c0,22.32.05,46.76.07,68.18-.33,7.69.12,23-.15,30.21,0,3.44.12-4.91.16,1.7,0,3.31-.07,3.61-.09,3.46,0,1,0,2,0,3C334.63,114.18,334.35,108.38,334.14,87Z" transform="translate(-4.85 -4.32)"/><path class="cls-6" d="M74.52,85.26c-2.6.56-7.29.62-6.52.33l-.56-.13c1.16,0,4.12-.18,6.15-.43S76.79,84.62,74.52,85.26Z" transform="translate(-4.85 -4.32)"/><path class="cls-2" d="M75.35,86.24c-2.35.31-.57,0-.18-.21a31.09,31.09,0,0,0,3.15-.7C79.3,85.19,76.71,86,75.35,86.24Z" transform="translate(-4.85 -4.32)"/><path class="cls-6" d="M74.33,88.81l1-.11-3.45.37a19.35,19.35,0,0,1,3.71-.7C75.21,88.56,73.28,88.83,74.33,88.81Z" transform="translate(-4.85 -4.32)"/><path class="cls-6" d="M99,94.53c.66-.48-2.55-.51-6.47-.84L94,93a30.5,30.5,0,0,0,6-.41,49.71,49.71,0,0,0,7.1-1.69c1.63-.62-4.11,1,.14-.41.51-.07.2.2,1.13,0a17.61,17.61,0,0,0,3.16-1.63c.9-.57,2.44-1.18,6.11-3.44.86-.43,1.71-.9,2.53-1.41a40.33,40.33,0,0,0,13.07-18,44.28,44.28,0,0,0,2.54-10.83c.07-.92.13-1.83.2-2.73l0-2.72c0-.9-.09-1.8-.13-2.69,0-.23-.05-.51-.05-.82A4.86,4.86,0,0,1,136,45a3.48,3.48,0,0,1,1.32-1.95c.32-.3.62-.51.88-.73l.93-.75a25.12,25.12,0,0,0,2.17-2l.29-.29.22-.24.07-.11a1,1,0,0,0,.12-.19c.07-.12.12-.23.09-.27a1.26,1.26,0,0,0-.31.14l.26-.28a3.07,3.07,0,0,1-.38.24l-.12,0s0,0-.09,0l-.58.21A23.78,23.78,0,0,0,136.52,41l-2.1-2.91.31-.26a21.52,21.52,0,0,0,2.07-1.75c.47-.28-.77,1.18-2.11,2.34l1.61,2.22c1.52-1,3-1.81,1.79-1.45a20.29,20.29,0,0,0-2,1.1L135,38.74a18.61,18.61,0,0,0,2.45-2.4c.35-.42.68-.84,1-1.27l.45-.64c.14-.22.31-.47.34-.54.53-.93.77-1.5,1.45-2.84.09-.18,0,0-.08,0s-.12.12-.18.18-.25.19-.36.28-.44.29-.62.39c-.39.22-.65.35-.91.47a1.94,1.94,0,0,1-.41.17,8.39,8.39,0,0,1-1.51.24c-.94.26,1.21.1.85.33a10.82,10.82,0,0,1-4.53-.34,17.66,17.66,0,0,1-3.14-1.29c-1.71-.91-2.91-1.7-4.12-2.3a17.15,17.15,0,0,0-4-1.47,14.35,14.35,0,0,0-5.82-.12c-.08.06-.6.2-1.21.44a12,12,0,0,0-1.75.82c-.45.28-.67.48-.4.43s1-.39,2.69-.75a14.83,14.83,0,0,1,3.2-.6,18.42,18.42,0,0,1,2.23.32,15.13,15.13,0,0,0-4.44.12c-1.36.25-2.29.67-2,.68a8.17,8.17,0,0,0-3.55,1.57,10.59,10.59,0,0,0-3.14,3.61A17,17,0,0,0,106.34,37c-.12.35-.2-.11.22-1.82a13,13,0,0,1,2.75-3.67,18.13,18.13,0,0,1,2.8-2.22,12.69,12.69,0,0,0-4,3.07,12.33,12.33,0,0,0-2.37,4.26,18.7,18.7,0,0,0-.86,4.81c0,.81,0,1.63,0,2.43l.07,1.25a4.08,4.08,0,0,1-.23,1.73,3.1,3.1,0,0,1-.9,1.21,3.72,3.72,0,0,1-1.26.68,7.6,7.6,0,0,1-2.28.34A20,20,0,0,1,98.16,49l-1-.1c-.34,0-.68-.07-1-.12a23.34,23.34,0,0,1-2.76-.23,16.2,16.2,0,0,0-2.74-1.26,53,53,0,0,1-5.38-2.79c-1.67-.83-3.67-2.14-3.26-1.71a36.93,36.93,0,0,0,5.67,3.41c1.38.72,2.64,1.25,3.06,1.48s0,.21-1.94-.45a64.7,64.7,0,0,1-12.68-8.06c-.93-.73-1.81-1.45-2.67-2.17a24,24,0,0,1-2.39-2.32,15.16,15.16,0,0,1-3-5A16.12,16.12,0,0,0,72,35a36.8,36.8,0,0,0,5.39,3.85,71.8,71.8,0,0,0,12.47,7.17,26.1,26.1,0,0,0,7.06,1.86,22.33,22.33,0,0,0,3.66.17,5.67,5.67,0,0,0,1.81-.37,2.28,2.28,0,0,0,1.34-1.26,3.43,3.43,0,0,0,.12-1.42c0-.47-.08-.93-.1-1.39a25.6,25.6,0,0,1,0-2.77,19.25,19.25,0,0,1,1-5.38,13.34,13.34,0,0,1,2.74-4.65,14.77,14.77,0,0,1,4.26-3.2c.32,0,1.48-.46,2.44-.64s1.71-.23,1.11,0a23.78,23.78,0,0,1,3.43-.25,8.67,8.67,0,0,1,3.1.5,19.45,19.45,0,0,1,4.49,1.26c1.47.6,2.92,1.4,4.46,2.09a12.86,12.86,0,0,0,5,1.26c.44,0,.87,0,1.31-.06a9.29,9.29,0,0,0,1.19-.21,7.8,7.8,0,0,0,1.89-.7,7.61,7.61,0,0,0,1.49-1c.11-.09.23-.19.33-.29s.24-.26.28-.26c-.11.28-.2.56-.31.84a19.94,19.94,0,0,1-1.58,3.13c-.15.24-.3.48-.46.71l-.24.35-.3.41q-.62.83-1.29,1.59a24.19,24.19,0,0,1-2.83,2.73l.57.78c.46-.28.9-.55,1.35-.8-1.47.56-.11-.46,2.14-1.53A28.72,28.72,0,0,1,143,36.13c1.28-.4,2.51-.67,3.41-.88l.49,0h0l0,.07-.09.13-.17.28-.36.56q-.37.57-.78,1.14c-.54.75-1.13,1.51-1.76,2.24a25.25,25.25,0,0,1-4.27,3.88c-.13.16-.7.56-1.11.92s-.52.78-.33.59a4.14,4.14,0,0,1,1.29-1.08c.44-.3.83-.58,1.22-.86a21.54,21.54,0,0,0,2.59-2.18,9.93,9.93,0,0,1-3,2.78c-.39.28-.85.56-1.27.82a1.84,1.84,0,0,0-.88,1,3.73,3.73,0,0,0-.07,1.44l.08,1.63c-.13-.74-.24-1.48-.37-2.19a40,40,0,0,1-.6,11.07,71.13,71.13,0,0,1-2.86,10.14,43.49,43.49,0,0,0,2.12-5,39,39,0,0,1-5,11.38,63.5,63.5,0,0,1-6.74,8.6,40,40,0,0,0,5.85-6.8c1.59-2.36,2.61-4.27,2.82-4.07a13.05,13.05,0,0,1-1.7,3.34,27.35,27.35,0,0,1-1.74,2.5,24.27,24.27,0,0,1-1.71,2,48.61,48.61,0,0,1-13.67,10.61A38.6,38.6,0,0,1,99,94.53Z" transform="translate(-4.85 -4.32)"/><path class="cls-6" d="M115.79,90.32a29.4,29.4,0,0,0,4.64-2.94,13.53,13.53,0,0,0,1.82-1.66c.43-.48.91-.89,1.67-1.68.39-.4.86-.86,1.47-1.44l2.15-2.27c-.3.57.38,0,1.43-1.14a24.06,24.06,0,0,0,1.65-2A23.44,23.44,0,0,0,132.19,75a60,60,0,0,0,4.35-9.1c.33-.92.56-1.3.55-1a11.13,11.13,0,0,1-1,3.15,57.32,57.32,0,0,1-8.3,13.11,39.8,39.8,0,0,1-5.78,5.42A32,32,0,0,1,115.79,90.32Z" transform="translate(-4.85 -4.32)"/><path class="cls-2" d="M106.82,92.24a28.84,28.84,0,0,1,4-1.08,13.15,13.15,0,0,0,3.83-1.52,9.84,9.84,0,0,1-2.51,1.3c-1,.36-2.24.82-4.49,1.53.84-.34,1.68-.68,2.51-1.07C109.08,91.73,108,92,106.82,92.24Z" transform="translate(-4.85 -4.32)"/><path class="cls-6" d="M136.46,64.63c.54-1.57,1.21-4.25,1.73-6.58.21-1.17.4-2.24.55-3.06a3.86,3.86,0,0,1,.34-1.39c0-.5.22.37.23-1.54,0,.75-.16,1.85-.27,3.1-.08.63-.19,1.29-.3,2a19.8,19.8,0,0,1-.39,2c-.16.66-.29,1.31-.47,1.91l-.53,1.64A7.45,7.45,0,0,1,136.46,64.63Z" transform="translate(-4.85 -4.32)"/><path class="cls-2" d="M128.51,76.8c.5-.76,1.06-1.48,1.58-2.37L131,73l.92-1.68a26.51,26.51,0,0,1-1.4,2.64c-.28.46-.56,1-.89,1.42S128.9,76.33,128.51,76.8Z" transform="translate(-4.85 -4.32)"/><path class="cls-6" d="M136.94,60.29c-.41.56.52-2.73.57-3.68.11-.64.28-1.28.35-1.93,0,.93-.19,2-.31,3A22.46,22.46,0,0,1,136.94,60.29Z" transform="translate(-4.85 -4.32)"/><path class="cls-6" d="M148.34,34.79l.31-.53.13-.22c.05-.07.08-.13.07-.15-1.22.15-.72,0,.27-.19a9.58,9.58,0,0,1-.52,1.12l-.43.88c-.14.31.1,0,1.39-2.27-.78,1.43-1.5,2.72-2.31,4.06-.51.54-1.05,1-1.54,1.49A43.3,43.3,0,0,0,148.34,34.79Z" transform="translate(-4.85 -4.32)"/><path class="cls-6" d="M140.05,35.64c-1.28.62-2.6,1.21-4.79,2.42.36-.28.73-.56,1.11-.83A26.71,26.71,0,0,1,140.05,35.64Z" transform="translate(-4.85 -4.32)"/><path class="cls-6" d="M147.33,34.76a32,32,0,0,1-3.68.53,21.31,21.31,0,0,1,4.21-.72s0,0,0,0l0,.07-.09.12a.58.58,0,0,1-.1.13s0,0,0,0l0-.1s.06-.1,0-.09Z" transform="translate(-4.85 -4.32)"/><path class="cls-6" d="M138.26,33.4c.16-.1.23-.1.24-.06s0,0,0,.09l0,.06,0,0-.1.14a24.77,24.77,0,0,1-3.75,4.13,20.38,20.38,0,0,0,3.1-3.5c.2-.27.45-.64.59-.85a0,0,0,0,0,0,0S138.24,33.42,138.26,33.4Z" transform="translate(-4.85 -4.32)"/><path class="cls-6" d="M73.68,75.11c-.62-.66-1.29-1.3-2-2S70,71.83,69,71.12l-2.81-2L64,67.56c.14.14.41.36.64.55l.72.6,4.77,3.4A33.75,33.75,0,0,1,73.68,75.11Z" transform="translate(-4.85 -4.32)"/><path class="cls-6" d="M79.73,83.46c-.87.5-.51.45.52.13a35.52,35.52,0,0,0,4.32-1.78,6.08,6.08,0,0,0,.59-.37,4,4,0,0,0,.37-.34,1.64,1.64,0,0,0,.28-.37,1.08,1.08,0,0,0,.08-.19l0-.09s-.07,0-.1,0c-.5,0-.92.17-1.25.21h-.18c-.21,0-.42,0-.65,0-.45,0-.87-.09-1.31-.14s-.86-.19-1.28-.3-.83-.27-1.23-.45a13.94,13.94,0,0,1-3.2-1.69,12.58,12.58,0,0,0,5.88,2.8l.93.13c.33,0,.69.05.93.05h.05l0,0,0,0v0h0l-.1.08-.42.25c-.2.12-.4.24-.6.34l-1.22.63C81.32,82.81,80.51,83.16,79.73,83.46Z" transform="translate(-4.85 -4.32)"/><path class="cls-2" d="M76.6,86.43a23.85,23.85,0,0,0,5.91-1.88A20.85,20.85,0,0,0,87,81.79a23.17,23.17,0,0,1-6.58,3.37,33.28,33.28,0,0,1-6.29,1.51C73.75,86.83,75.64,86.6,76.6,86.43Z" transform="translate(-4.85 -4.32)"/><path class="cls-6" d="M70.68,53h-.05l-.22-.08-.35-.12-.09,0-.16-.07-.32-.15-.64-.31c-.23-.14-.5-.34-.75-.52s-.48-.32-.8-.59l-1-.85-5-4.31c.36,1.07.73,2.15,1.11,3.25l1.37,3.93c.46,1.31.95,2.67,1.5,4l.44,1,.22.51.2.42c.16.36.35.73.53,1.09a22,22,0,0,0,2.69,4.08,15,15,0,0,0,3.62,3.15,14.39,14.39,0,0,1-2.89-2.83A25.25,25.25,0,0,1,67.2,60a47.78,47.78,0,0,0,3.86,5.21,13.82,13.82,0,0,0,6.13,4,4.75,4.75,0,0,1-1.43-.63,5.8,5.8,0,0,1,1,.27,12.3,12.3,0,0,0,5.49.34c.3,0,.61-.12.94-.19l-1.07-2.28a15,15,0,0,1-4.59,2,11.81,11.81,0,0,1-1.42.29c-.43,0-.84.1-1.28.13s-.9,0-1.43,0c-2.07-.2-5.15-.68-7.49-1l.25.26.14.14.27.2,1.08.79,2.37,1.77c.82.61,1.5,1.17,2.21,1.73s1.21,1.11,1.77,1.68l1.2,1.16c.37.35.73.7,1.13,1a15.06,15.06,0,0,0,2.54,1.83,12.19,12.19,0,0,0,4.95,1.42l.39,0h.29l.31,0,.61-.06A8.25,8.25,0,0,1,86.64,80c.23,0,.1.12.06.22a2.72,2.72,0,0,1-.16.3c-.1.18-.21.32-.27.44s-.14.33.18.19a6.79,6.79,0,0,1-1.55,1.11,15.68,15.68,0,0,1-1.9.86c-1.17.43-2.22.73-4,1.24A26.84,26.84,0,0,1,71,86c-2.66.16-5.29.06-8,0l-7.28-.24,6.63,3.4a51.68,51.68,0,0,0,15.43,5.36c-.41.07.9.45,2.63.81s3.89.66,5.1.78,3.11.28,5,.34a54.34,54.34,0,0,0,5.63-.18c3.48-.33,5.86-1,4.45-1-1.82.09-4.51.47-7.48.59a38.21,38.21,0,0,1-8.89-.56c-2.33-.47-2.85-.71-2.37-.67s2,.25,3.82.41c3.64.41,8.51.23,8.57,0-1.36.1-2.12-.22-6.26-.3a13.69,13.69,0,0,0,3.22-.07c.15-.07-.44-.14-1.16-.24-1.43-.21-3.37-.52-1.14-.54a47.06,47.06,0,0,1-8.72-1.47,36.51,36.51,0,0,1-4.87-1.79,27.11,27.11,0,0,0-4.47-1,4.92,4.92,0,0,1-1.47,0A45.55,45.55,0,0,1,63.33,87l-.25,1.23a63.11,63.11,0,0,0,10.47-.37c-1,.34-1,.47-.17.47a22.38,22.38,0,0,0,4.22-.58,31.18,31.18,0,0,0,6.06-2c.5-.23,1-.48,1.49-.74l.71-.41.35-.2.48-.32a16.6,16.6,0,0,0,1.81-1.38,9.64,9.64,0,0,0,.72-.7,6,6,0,0,0,.61-.68l.5-.65c.15-.21.25-.41.37-.6.22-.37.42-.73.6-1.06s.34-.67.49-1a3.17,3.17,0,0,0,.18-.4v-.25a16.86,16.86,0,0,0-2.42.08c-.55.06-1,.13-1.53.21s-1.34.23-2.57.39c-.3,0-.66.07-1,.08a7.12,7.12,0,0,1-.79,0,8.27,8.27,0,0,1-2-.44c-1.8-1,.12-.08,2,0a7.94,7.94,0,0,0,1.59-.07c.72-.09,1.33-.21,1.67-.28.68-.17.36-.15-2.32-.07a8.38,8.38,0,0,1-3.37-.55,11.71,11.71,0,0,1-3.06-1.41c-.51-.32-1-.68-1.55-1.09L75.12,73c-.47-.46-1.08-1-1.57-1.43-.24-.21-.46-.36-.58-.47s.1,0,.16,0l.2.06c-.11,0-.29-.06-.09,0l.32.21.48.31a1.52,1.52,0,0,0,.5.25c.08,0,.09,0,.06-.13a.66.66,0,0,0-.08-.13l-.06-.08.3.07.57.11a3.34,3.34,0,0,0,1-.3,6.46,6.46,0,0,1-1.47-.24c-.12-.06.22-.06.85-.12l.52-.06.29,0L77,71a16.93,16.93,0,0,0,2-.49,15.85,15.85,0,0,0,4.28-2.09L86.74,66l-4,1.16a10.51,10.51,0,0,1-5.21-.06,11.68,11.68,0,0,1-4-2,11.93,11.93,0,0,1-2.17-2.17,11.44,11.44,0,0,1-1.74-3.17c-.17-.44-.31-.88-.47-1.36-.08-.23-.18-.55-.24-.74l-.11-.48c-.08-.33-.17-.67-.3-1.09l-.23-.69c-.11-.23.07,0,.17,0l.39.27a4,4,0,0,0,.77.34c-.6-.45-.8-.66-.33-.53l.44.12.3.08.49.11a11.48,11.48,0,0,0,3.15.2,4,4,0,0,1,1-.73c-.07,0-.13,0-.19-.11a5.36,5.36,0,0,1-.54-1l-.25-.58c0-.1-.15-.2.08-.28l.11-.06s.08,0,0-.08l-.1-.18c-.26-.48-.52-1-.73-1.42l-.54-1.1c-.7-1.42-1.22-2.72-1.6-3.66a23,23,0,0,1-1-4.64,29.09,29.09,0,0,1-.12-3.8,24.42,24.42,0,0,1-.14-2.63c0-1,0-1.91,0-2.16-.58,1-1.35,3.76-1.22,7.83a30.24,30.24,0,0,0,1.06,6.89c.34,1.24.83,2.6,1.32,3.86l.19.48a.4.4,0,0,1,0,.13.71.71,0,0,1,0,.16q0,.13-.09.12h0a.66.66,0,0,1-.24-.13h0S70.66,52.93,70.68,53Z" transform="translate(-4.85 -4.32)"/><text class="cls-7" transform="translate(143.92 65.6)">@<tspan class="cls-8" x="25.88" y="0">r</tspan><tspan x="37.3" y="0">aah</tspan><tspan class="cls-9" x="84.56" y="0">r</tspan><tspan class="cls-10" x="96.16" y="0">oo</tspan></text></svg>