<svg id="Layer_1" data-name="Layer 1" xmlns="http://www.w3.org/2000/svg" viewBox="0 0 47.8 48.35"><defs><style>.cls-1{fill:#fff;}.cls-2{fill:#d1c9ac;}</style></defs><title>Untitled-2</title><path class="cls-1" d="M32.46,8.72c-.83-.32.45.29,0,.06a17.12,17.12,0,0,0-1.84-.59C32.11,8.63,30.06,7.59,32.46,8.72Z" transform="translate(-1.11 -0.91)"/><path class="cls-1" d="M29.47,8.31h-.35L28.28,8c-.22-.06-.3-.11,0-.09A9.44,9.44,0,0,0,29.47,8.31Z" transform="translate(-1.11 -0.91)"/><path class="cls-2" d="M30.74,10.62l-.56-.25a6.62,6.62,0,0,1,.9.23Z" transform="translate(-1.11 -0.91)"/><path class="cls-2" d="M9.11,29.77a1.84,1.84,0,0,0,0,.35c-.14,0-.25-.23-.49-.86s-.34-2-.2-1.74l0,.15a3.81,3.81,0,0,0,.11-1.51c-.09-.17-.2.47-.36-.26a5.8,5.8,0,0,1,0-1.44,5.72,5.72,0,0,1,.23-1.3l-.11-.72A8.25,8.25,0,0,1,9,20.75l0,.48c.18-.3.22,0,.58-1.07a8.42,8.42,0,0,1,.56-1.84c.32-.52.76-1.22,1.2-1.95a12.58,12.58,0,0,1,1.51-1.93,6.68,6.68,0,0,1,2-2,12.82,12.82,0,0,0,2.06-1.57c1.07-.48,1.63-.81,2.1-1a10.49,10.49,0,0,1,1.36-.76c.93-.12.36.11-.3.35s-1.38.65-.89.58a21,21,0,0,1,4-.94,16.13,16.13,0,0,1,4.11.08c.7-.05-.45-.39,1-.21-.49,0,0,.25.48.39-.52-.16,0-.06.11-.1l-.39-.13c-.1-.22.37-.08,1,.11s1.33.55,1.82.61c.36.26-.48-.18-.6-.09s.31.44,1.42,1.08a9.63,9.63,0,0,1,2.9,1.83c.43.34.79.78,1.22,1.18s.83.91,1.28,1.44c0-.19.45.47.74.82-.22-.19-.19,0-.07.21s.27.63.4.86c.42.51.7.47,1.12,1.42l-.07-.75a4.91,4.91,0,0,0-.6-1,8,8,0,0,0-.85-1.1,4,4,0,0,0-1.13-1.53c-.52-.59-1.07-1-.81-1.06l.3.34c1,1.28,1.87,1.66,2.83,2.93A8.93,8.93,0,0,1,40,18.88a6.91,6.91,0,0,0,.71,1.64A5,5,0,0,1,41,22.3c.06.3,0-.15.11.15a11.48,11.48,0,0,0,.1,1.15c.24.13.09-1.56-.16-2.55a3,3,0,0,1,.25.65c.09.29,0,.24,0,.3l.12.61c.08,0,.19-.15.33.67a4.54,4.54,0,0,1-.09.51c0,1.63.42,2.45.34.29l-.16-.17c0-.69,0-1.37-.06-2.07.1-.37.26.94.41.95s.12-.24.1-.77A13.93,13.93,0,0,0,42,20.46c-.31-.79,0,.54.11,1.11l-.55-1.08c-.08-.31-.21-.76-.13-.77-.05-.37.29,0,0-.66-.3-.9-.41-.88-.46-.84s-.12.12-.47-.58c0,.48.87,2.91.86,3.75,0,.22.13.43.16.66S41.29,21,41.45,22c-.28-.81-.48-1.81-.77-2.75a13.26,13.26,0,0,0-.42-1.34c-.15-.42-.25-.81-.39-1.1.14-.09-.47-1.4.3-.55a6.84,6.84,0,0,0-.85-1.51c-1.57-1.61-2-2.51-3.66-3.7.19.19-.16,0-.24,0-1.07-.88-.85-.85-.67-1S35,9.87,33.2,9c-.63-.27-1-.35-.83-.18.41.28.81.54,1.49.92,0,0,1,.7.32.45a7.37,7.37,0,0,0-1.88-.93c-.55-.23-1.1-.35-1.74-.62l-.46-.05c-.52-.13-1.81-.39-2.52-.54-2.1-.4.18-.22.29-.33a15.18,15.18,0,0,0-1.77-.29,9.87,9.87,0,0,1-1.44,0c-.45,0-.87,0-1.28,0a5.61,5.61,0,0,0-1.23,0,4,4,0,0,0-1.24.31l.16-.12c.49-.15.4-.2.09-.22A6.56,6.56,0,0,0,20,7.58l-.54.21a14,14,0,0,1-2.13,1c-.45.23-.95.43-1.39.69s-.87.54-1.24.79-.48.26-.22.05c-.54.36-1.13.68-1.65,1.1-.21.61-1.09,1-1.83,1.9-.46.68-.45,1-1,1.89a18.13,18.13,0,0,0-1,1.53c-.25.51-.47,1-.69,1.47-.37,1-.7,1.92-1.09,3.08.09.41,0,1.88.4.8a16.87,16.87,0,0,0-.36,7.1l.23.48a9.63,9.63,0,0,0,1.27,1.12C9.13,31,9.33,30.93,9.11,29.77Z" transform="translate(-1.11 -0.91)"/><path class="cls-2" d="M40.61,22.6a5.37,5.37,0,0,0-.19-1l0,.15C40.38,22.16,40.54,22.11,40.61,22.6Z" transform="translate(-1.11 -0.91)"/><path class="cls-1" d="M22.05,44.52a6.92,6.92,0,0,0,1.54,0c.37-.06.51-.13.15-.2-.73,0-1.37-.08-2-.16a7.1,7.1,0,0,1-2-.44c0,.09.41.27.91.45S21.78,44.42,22.05,44.52Z" transform="translate(-1.11 -0.91)"/><path class="cls-2" d="M29.12,7.43a11.1,11.1,0,0,0-1.61-.29l.33.2C29.13,7.64,28.23,7.24,29.12,7.43Z" transform="translate(-1.11 -0.91)"/><path class="cls-1" d="M27.51,42.59c0-.09.31-.23-.35-.09a6.47,6.47,0,0,1-1,.28C26.35,42.77,27.87,42.67,27.51,42.59Z" transform="translate(-1.11 -0.91)"/><path class="cls-1" d="M30.8,41.35l-.25-.21a3.63,3.63,0,0,1-1.2.51A4.52,4.52,0,0,0,30.8,41.35Z" transform="translate(-1.11 -0.91)"/><path class="cls-1" d="M23.85,42.36a3.52,3.52,0,0,0,1.84,0,5,5,0,0,1,1.6-.11c1.06-.18,1.39-.39,1.41-.49s-.29-.15-.54-.21c-.79.13.07.32-1.21.61A5,5,0,0,1,25,42C22.9,41.94,25,42.32,23.85,42.36Z" transform="translate(-1.11 -0.91)"/><polygon class="cls-1" points="29.47 39.83 28.57 40.16 29.08 40.17 29.47 39.83"/><polygon class="cls-1" points="22.78 40.65 21.99 40.72 23.41 40.81 22.78 40.65"/><path class="cls-1" d="M25.74,41l-.61,0c-.45.11-.76.15-.3.25C25.6,41.22,25.44,41.09,25.74,41Z" transform="translate(-1.11 -0.91)"/><path class="cls-2" d="M10.7,35.88a14.3,14.3,0,0,0,5.48,5.91c.59.17,1.17.41,1.85.58a18.33,18.33,0,0,0,1.8.82,13.34,13.34,0,0,0,1.48.33l1.5.18a8.39,8.39,0,0,0,2.47-.22c.35,0,.36.08.71.11a4.89,4.89,0,0,1,.63-.08l.76-.13A4.72,4.72,0,0,0,28.74,43a5.5,5.5,0,0,1,1.48,0c1.81-.69,4.25-1.53,5.68-2.93a2.16,2.16,0,0,0,.76-.4c.24-.22.49-.49.74-.76a8.05,8.05,0,0,1,1.47-1.42,8.91,8.91,0,0,0,2.48-4.32c.06,0-.08.75.39,0a3.57,3.57,0,0,0,.17-.52,9.5,9.5,0,0,0,.77-2.2c0-.22,0-.3,0-.26-.41,1-.51.27-.54-.82A17.31,17.31,0,0,0,41.71,26l-.05-.68c-.11.82-.15,1.72-.34,2.77.17-.3-.13,1.3.13.52l0-.49c.1-.38.21-.75.3-1.13a14.58,14.58,0,0,1-.3,2.08,15.7,15.7,0,0,0-.37,1.83,5.57,5.57,0,0,1-.6,1.13c-.2.26-.38.45-.58.71a27.71,27.71,0,0,1-3.1,4.37,8,8,0,0,1-1.37,1.16,4.3,4.3,0,0,1-.8.3c-.56.59-1.88,1.2-2.07,1.5a7.24,7.24,0,0,1-1.56.42c-.4,0-.7,0-1,0a6,6,0,0,0-1.75.64c-2.16.32.35-.49-2.07-.15a7.91,7.91,0,0,0-1.4.14c-.42,0-.73.11-.73.17-.27,0-.56-.07-.85-.09l-.87-.13c-.29-.05-.56-.08-.81-.14a4.82,4.82,0,0,1-.65-.23A6,6,0,0,1,18.21,40c-.9-.46-1.76-1-2.69-1.43A21.17,21.17,0,0,1,11,34.36C10.47,34.14,10.18,34.65,10.7,35.88Z" transform="translate(-1.11 -0.91)"/><path class="cls-1" d="M33,7.53c-.89-.34.48.31,0,.07A15.6,15.6,0,0,0,31,7c.81.22.67.08.64,0S31.74,6.88,33,7.53Z" transform="translate(-1.11 -0.91)"/><path class="cls-1" d="M29.82,7.05h-.38l-.9-.29c-.24-.06-.33-.11,0-.09A10,10,0,0,0,29.82,7.05Z" transform="translate(-1.11 -0.91)"/><path class="cls-2" d="M31.23,9.41l-.61-.27a8.62,8.62,0,0,1,1,.26Z" transform="translate(-1.11 -0.91)"/><path class="cls-2" d="M7.85,30.12a2.53,2.53,0,0,0,0,.38c-.14,0-.25-.25-.51-.93,0-.16-.08-.37-.13-.59l-.09-.67c-.06-.42-.09-.73,0-.61l0,.16a4.55,4.55,0,0,0,.1-1.64c-.09-.18-.2.51-.36-.27a6.8,6.8,0,0,1,0-1.56A5.89,5.89,0,0,1,7.18,23l-.1-.78a9.57,9.57,0,0,1,.63-1.83l0,.52a2.33,2.33,0,0,0,.61-1.16,8.43,8.43,0,0,1,.62-2l1.28-2.12a14.64,14.64,0,0,1,1.64-2.08,4,4,0,0,1,.88-1.08A10.13,10.13,0,0,1,14,11.43a16.45,16.45,0,0,0,2.23-1.68c1.16-.53,1.77-.88,2.27-1.12A11.58,11.58,0,0,1,20,7.83c1-.13.38.1-.33.36s-1.48.69-1,.61a21.12,21.12,0,0,1,4.27-1,16.88,16.88,0,0,1,4.44.08c.76,0-.49-.4,1.05-.2-.52,0,0,.25.53.41-.57-.18,0-.07.11-.1l-.42-.14c-.11-.22.4-.08,1.06.12s1.43.59,1.95.66c.4.28-.52-.19-.63-.1s.34.44,1.54,1.13a10.92,10.92,0,0,1,3.13,2c.46.38.86.85,1.33,1.28s.89,1,1.38,1.55c0-.2.48.52.79.9-.23-.21-.2-.06-.06.21s.3.68.44.93C40,17,40.3,17,40.76,18l-.1-.8A5.69,5.69,0,0,0,40,16.17,9.38,9.38,0,0,0,39.11,15a4.72,4.72,0,0,0-1.23-1.64c-.56-.64-1.16-1.1-.88-1.14l.32.36c1.12,1.38,2,1.81,3,3.19a9.63,9.63,0,0,1,.85,2.62A8.32,8.32,0,0,0,42,20.15a5.67,5.67,0,0,1,.32,1.91c.06.32,0-.16.1.16s.06.91.12,1.24c.14.06.13-.35.09-.92,0-.28-.05-.61-.1-.93l-.19-.89a3.13,3.13,0,0,1,.26.69c.1.32,0,.27,0,.33l.13.66c.07,0,.19-.16.34.73a5.07,5.07,0,0,1-.09.54c0,1.76.43,2.64.34.32l-.16-.19c0-.74,0-1.48-.08-2.23.1-.39.27,1,.42,1s.12-.26.09-.82a15.57,15.57,0,0,0-.3-1.68c-.32-.84,0,.58.13,1.19l-.57-1.16c-.08-.34-.22-.82-.15-.83,0-.4.3,0,0-.7-.32-1-.44-1-.49-.91s-.11.12-.49-.63c0,.51,1,3.12,1,4,.05.24.14.47.17.71s-.31-1.14-.13-.05c-.3-.87-.51-1.95-.83-3-.13-.52-.31-1-.47-1.44A11.5,11.5,0,0,0,41,16.17c.14-.1-.52-1.5.29-.57A7.33,7.33,0,0,0,40.37,14c-1.66-1.74-2.18-2.69-3.92-4,.21.21-.17,0-.26,0-1.14-.94-.91-.89-.73-1s.21-.24-1.67-1.19c-.66-.29-1-.38-.88-.2.44.29.88.56,1.61,1-.05.05,1.11.75.35.47a9.88,9.88,0,0,0-1.07-.62l-.95-.38c-.59-.25-1.17-.39-1.86-.67l-.5-.06c-.56-.15-1.93-.43-2.7-.59-2.26-.42.19-.22.31-.32a15.2,15.2,0,0,0-1.91-.31,13.17,13.17,0,0,1-1.54,0c-.48,0-.93,0-1.38,0a5.75,5.75,0,0,0-1.31,0,5.14,5.14,0,0,0-1.33.32l.17-.12c.53-.15.44-.21.1-.22a6.76,6.76,0,0,0-1.26.21l-.58.22a17.58,17.58,0,0,1-2.29,1.09c-.48.24-1,.45-1.49.73s-.93.57-1.33.84-.51.29-.23.06c-.58.4-1.21.74-1.76,1.19-.24.64-1.16,1-2,2-.5.71-.5,1-1.13,2-.44.57-.78,1.13-1.11,1.65S7.26,17.2,7,17.71c-.39,1.05-.75,2.06-1.16,3.31.07.44,0,2,.38.85a18.32,18.32,0,0,0-.35,7.62l.24.51a9.75,9.75,0,0,0,1.31,1.22C7.9,31.48,8.1,31.38,7.85,30.12Z" transform="translate(-1.11 -0.91)"/><path class="cls-2" d="M41.9,22.37a6.18,6.18,0,0,0-.21-1l0,.16C41.66,21.9,41.82,21.84,41.9,22.37Z" transform="translate(-1.11 -0.91)"/><path class="cls-1" d="M21.86,45.81a7.38,7.38,0,0,0,1.65,0c.4,0,.55-.12.16-.2-.78,0-1.47-.09-2.15-.17a8,8,0,0,1-2.1-.47c0,.09.43.28,1,.47S21.57,45.71,21.86,45.81Z" transform="translate(-1.11 -0.91)"/><path class="cls-2" d="M29.42,6.16a12.39,12.39,0,0,0-1.72-.31l.36.21c.69.14.79.14.84.1S29,6.05,29.42,6.16Z" transform="translate(-1.11 -0.91)"/><path class="cls-1" d="M27.72,43.88c0-.09.33-.24-.38-.09a7.53,7.53,0,0,1-1.06.29C26.46,44.07,28.1,44,27.72,43.88Z" transform="translate(-1.11 -0.91)"/><path class="cls-1" d="M31.26,42.57l-.26-.2a4.22,4.22,0,0,1-1.3.54A5.38,5.38,0,0,0,31.26,42.57Z" transform="translate(-1.11 -0.91)"/><path class="cls-1" d="M23.77,43.66a4,4,0,0,0,2,0,6,6,0,0,1,1.72-.12c1.14-.19,1.5-.41,1.52-.51s-.3-.15-.58-.2c-.85.14.07.32-1.3.62A5.42,5.42,0,0,1,25,43.34C22.75,43.24,25,43.62,23.77,43.66Z" transform="translate(-1.11 -0.91)"/><polygon class="cls-1" points="29.93 41.05 28.96 41.41 29.5 41.4 29.93 41.05"/><polygon class="cls-1" points="22.71 41.95 21.85 42.02 23.39 42.12 22.71 41.95"/><path class="cls-1" d="M25.82,42.3l-.66,0c-.49.11-.82.15-.33.25C25.66,42.52,25.49,42.39,25.82,42.3Z" transform="translate(-1.11 -0.91)"/><path class="cls-2" d="M9.65,36.66a15.66,15.66,0,0,0,5.92,6.28c.63.19,1.25.46,2,.64a16,16,0,0,0,1.93.86c.51.12,1,.29,1.58.37l1.61.18c.52,0,1,0,1.47,0a4.72,4.72,0,0,0,1.17-.18c.38,0,.39.07.77.1a5.32,5.32,0,0,1,.68-.08l.81-.13A5.72,5.72,0,0,0,29,44.31a7.07,7.07,0,0,1,1.57,0c1.95-.72,4.55-1.64,6.08-3.13a2.42,2.42,0,0,0,.81-.44c.26-.23.53-.52.8-.8a9.65,9.65,0,0,1,1.56-1.53c1.64-1.66,2.71-4,2.67-4.61.07,0-.1.8.41,0a4.59,4.59,0,0,0,.18-.54,10.6,10.6,0,0,0,.82-2.36c0-.24,0-.32,0-.27-.43,1.05-.52.29-.53-.88A18.3,18.3,0,0,0,43,26.1l0-.74c-.12.89-.16,1.85-.37,3,.18-.33-.14,1.4.13.55l.05-.53c.11-.4.23-.8.32-1.21a14.59,14.59,0,0,1-.33,2.24,19.42,19.42,0,0,0-.4,2,7.23,7.23,0,0,1-.64,1.22l-.61.77a28.79,28.79,0,0,1-3.34,4.7,8.6,8.6,0,0,1-1.47,1.25,4.67,4.67,0,0,1-.85.34c-.6.64-2,1.3-2.24,1.61a7.84,7.84,0,0,1-1.67.47c-.43,0-.75,0-1.1.05a7.42,7.42,0,0,0-1.9.68c-2.33.35.39-.49-2.23-.12a9.21,9.21,0,0,0-1.52.15c-.45,0-.79.1-.79.17a8.64,8.64,0,0,0-.92-.1l-.94-.14c-.31-.05-.61-.09-.88-.15a5.57,5.57,0,0,1-.7-.25,6.59,6.59,0,0,1-2.9-.88c-1-.49-1.91-1.1-2.91-1.56A22.2,22.2,0,0,1,10,35.08c-.31-.12-.51-.07-.58.2A2.32,2.32,0,0,0,9.65,36.66Z" transform="translate(-1.11 -0.91)"/><path class="cls-1" d="M27.8,18.83c-.34-.09.16.15,0,.06a4.74,4.74,0,0,0-.75-.15C27.64,18.83,26.88,18.32,27.8,18.83Z" transform="translate(-1.11 -0.91)"/><path class="cls-1" d="M26.52,19l-.14.06c-.17-.08-.54-.21-.27-.23A1.21,1.21,0,0,0,26.52,19Z" transform="translate(-1.11 -0.91)"/><path class="cls-2" d="M26.57,21l-.16-.11c.09,0,.17-.06.3,0Z" transform="translate(-1.11 -0.91)"/><path class="cls-2" d="M19.82,26.75a.86.86,0,0,0,0,.13c-.12,0-.19,0-.32-.23s-.12-.65,0-.59v.05a.52.52,0,0,0,.2-.5c-.08-.05-.21.16-.35-.07a1.26,1.26,0,0,1,.16-.89l-.18-.26c.07-.3.22-.34.33-.53l.06.17c.11-.08.24,0,.35-.28a1.6,1.6,0,0,1,.06-.63c.31-.26.54-.9.9-1.19,0-.29.3-.51.58-.68s.56-.31.6-.59c.72-.26.7-.52,1.06-.84.33,0,.15.16-.05.28s-.42.31-.24.36a5.8,5.8,0,0,1,2.59-.3c.24-.11-.12-.33.36-.3-.18.07,0,.25.12.3-.17-.06,0-.07.05-.11L26,20c0-.39.61.19,1,.14.09.17-.16-.06-.23.05s0,.37.35.61c.81.19,1.06.85,1.64,1.44.09-.12.19.12.29.22-.2-.07-.12.28-.07.43s.43,0,.54.34l.14-.32a2,2,0,0,0-.55-.62c.17-.33-.84-.77-.5-1l.08.14c.26.49.74.43,1.15.83a1.92,1.92,0,0,1,0,1c0,.34.17.38.29.52a.66.66,0,0,1,0,.6c0,.1.06-.05.09,0a1.24,1.24,0,0,0,0,.38c.24,0,.19-.53.16-.88.05.08.11.09.13.21s0,.09,0,.11l.05.2c.08,0,.21-.07.26.22l-.12.18c0,.56.34.85.33.09l-.16-.06c.06-.24.08-.49.12-.75s.17.32.31.31.19-.6.13-.91-.09.23-.06.45l-.37-.36c0-.11-.05-.28,0-.3s.29-.08.18-.3c-.22-.68-.26.06-.51-.46-.15.26.12,1.13,0,1.44a1.89,1.89,0,0,1,0,.23c-.1.12-.13-.36-.12,0a6.82,6.82,0,0,1-.35-1.9c.15-.08,0-.62.41-.37-.1-.2,0-.38-.26-.62-.73-.5-.74-1-1.4-1.4.06.09-.1.05-.15.08-.82-.68.73-.45-.67-1.1-.25-.09-.41-.07-.38,0a1.56,1.56,0,0,0,.55.42c0,.06.37.31,0,.29-.54-.39-.94-.26-1.4-.49l-.19.05a5,5,0,0,1-.93-.18c-.77-.19.08-.23.15-.35a5,5,0,0,0-.67-.15c-.77.21-1.35-.37-2,.08l.05-.09c.37-.18-.18-.28-.46-.19l-.21.13c-.23.4-1.27.59-1.8,1.09-.12.08-.21.06-.11,0-.23.12-.48.23-.7.37,0,.38-.42.38-.69.77a8,8,0,0,1-.23.86c-.77.75-.7,1.47-1.17,2.29.17.19.17.74.49.37a5.59,5.59,0,0,0-.42,2.66l.15.17a5.91,5.91,0,0,0,1,.24C19.58,27.25,19.82,27.14,19.82,26.75Z" transform="translate(-1.11 -0.91)"/><path class="cls-2" d="M29.65,24.51a1.59,1.59,0,0,0-.06-.3l-.05.06C29.47,24.4,29.63,24.36,29.65,24.51Z" transform="translate(-1.11 -0.91)"/><path class="cls-1" d="M23.62,33.5c.49,0,1-.2.74-.32A4.25,4.25,0,0,1,22.7,33C22.65,33.15,23.39,33.4,23.62,33.5Z" transform="translate(-1.11 -0.91)"/><path class="cls-2" d="M26.5,18.25a4.5,4.5,0,0,0-.64-.11l.12.18C26.47,18.49,26.15,18.18,26.5,18.25Z" transform="translate(-1.11 -0.91)"/><path class="cls-1" d="M25.78,31.6c0-.09.09-.2-.14-.12a2.43,2.43,0,0,1-.35.2C25.35,31.65,25.92,31.71,25.78,31.6Z" transform="translate(-1.11 -0.91)"/><path class="cls-1" d="M26.88,30.93l-.15-.24c-.13.1-.2.25-.38.25C26.58,30.93,26.62,31.05,26.88,30.93Z" transform="translate(-1.11 -0.91)"/><path class="cls-1" d="M24.46,31.25a.57.57,0,0,0,.64,0,.52.52,0,0,1,.56,0c.72-.19.42-.42.23-.59-.26,0,.06.31-.36.47-.28,0-.62-.05-.67-.2C24.16,30.85,24.85,31.18,24.46,31.25Z" transform="translate(-1.11 -0.91)"/><polygon class="cls-1" points="25.55 29.42 25.26 29.52 25.47 29.64 25.55 29.42"/><polygon class="cls-1" points="23.4 29.54 23.14 29.64 23.59 29.69 23.4 29.54"/><path class="cls-1" d="M25.06,29.9h-.17c-.13.08-.23.15-.09.23S25,30,25.06,29.9Z" transform="translate(-1.11 -0.91)"/><path class="cls-2" d="M19.61,29.22a4.27,4.27,0,0,0,1.74,2.71l.79.1c.22.14.43.31.67.44A2.87,2.87,0,0,0,25,32.36c.13,0,.14.09.28.12s.82-.09,1-.31c.35,0,.39.14.64.22.68-.35,1.76-.49,2.25-1.17.56.1.71-.9,1.25-1,.68-.57,1-1.52.84-1.8.07,0,.11.36.35.07,0-.07.05-.21,0-.22s.37-.64.31-.89q0-.14-.09-.12c-.25.37-.45,0-.64-.43a6.47,6.47,0,0,0-.65-1.27l-.07-.23a6.91,6.91,0,0,0-.19.93c.14-.09,0,.45.18.2a1,1,0,0,0,0-.17l.2-.38c.06.36-.24,1.12-.12,1.4-.2.38-.42.41-.65.55-.29.55-.85,1-1.06,1.48-.41.46-.64.36-.86.32-.15.25-.63.38-.64.58a1.32,1.32,0,0,1-1-.25c-.34,0-.3.11-.51.29-.67.07,0-.46-.68-.35-.26,0-.62.16-.63.28-.32-.14-.76,0-.95-.27a.8.8,0,0,1-.84-.16,1.52,1.52,0,0,0-.85-.39,18.77,18.77,0,0,1-1.58-1.16A.88.88,0,0,0,19.61,29.22Z" transform="translate(-1.11 -0.91)"/><path class="cls-1" d="M4.59,32.45a.18.18,0,0,0,0,.13c.11.25.08.13,0,0s.12-.43,0-.15a.17.17,0,0,0,0,.14A3,3,0,0,0,4.9,33c.13.26.28.51.42.75l.44.72.22.36.16.24-.38-.55a1.44,1.44,0,0,0-.2-.25c-.08-.07-.06,0-.06.08s0,.05-.17-.21-.18-.33-.34-.63L4.74,33a2.08,2.08,0,0,1-.15-.4A.33.33,0,0,1,4.59,32.45Z" transform="translate(-1.11 -0.91)"/><path class="cls-1" d="M6.46,36.34l-.37.49-1,1c.37.56.6,1,0,.24l-.16-.25.75-.68Z" transform="translate(-1.11 -0.91)"/><path class="cls-2" d="M7.21,32.45l.56,1.1A13.47,13.47,0,0,1,6.83,32Z" transform="translate(-1.11 -0.91)"/><path class="cls-2" d="M41.71,34.47c.08-.08.19-.2.35-.39l0,0a.2.2,0,0,1,0,.1,3.16,3.16,0,0,1-.28.52l-.12.2-.23.34L41,36l-.4.52c0,.1-.19.2-.18.3l.27.27,1.25,1.24.16.15,0,0,0,0,.07.08c.08.09.14.16.14.19s-.06,0-.07,0l-.1-.1s0,0,0,.1a3.39,3.39,0,0,0-.43.27l-.11.07-.14.14-.3.3-.13.13c0,.08.07.07.14.09s.11.07-.12.4l-.3.33-2-1.89-1.15,1-.54.44-.24.19-.17.13c-.3.36-.61.72-.91,1l-.29.21a3.21,3.21,0,0,1-.46.22,5,5,0,0,1-.8.78l-.1.07s0,.09,0,.14l0,.28-.12.55.32.84.15.41a3.37,3.37,0,0,1-.2-.36L34,44.42l-.12-.25-.25-.52v-.06l0,.06c.12.34.18.54.23.73l0,.14v.06s0,.08,0,.14,0,.13.05.21l0,.07v0l-.06-.1-.06-.12v.05a1.31,1.31,0,0,0,.05.15l0,0a1.53,1.53,0,0,1-.4.27c-.31.14-.33.16-.43.21l-.38.2,0,0,0-.18c0-.06,0-.14,0-.1s.07.11,0-.15l-.43-1.06-.41-1c0-.26-.26-.1-.42-.09l-.54.1-2,.42L26.9,44l-1.08.24s-.12,0-.11.05v2.83a1.4,1.4,0,0,1-.6.11H23.94l0-.48-.11-1.28c0-.41-.06-.84-.12-1.23L21.8,44.1,21.1,44,20.66,44a1.62,1.62,0,0,1-.6-.16,6.38,6.38,0,0,0-.64-.23l-.5-.27L18,42.8l-.51.88-.88,1.52c-.11.21-.2.4-.29.58l-.44-.11a5.73,5.73,0,0,1-.6-.16l-.85-.27c-.19,0-.41-.1-.67-.18a2.09,2.09,0,0,1-.38-.25c.09-.12.11-.11.11,0s.39.11.65.19l.39.13.72.27.34.12.16.05.19,0c.09,0,.08,0,0-.14L14,44.58l1.4-2.91c-.88-.43-1.79-.86-2.61-1.3l-.73-.4-.31-.2a.47.47,0,0,1-.13-.11,3.62,3.62,0,0,1-.37-.56l-.61-1.2-1.08.78L8,39.78l-.7-1c-.47-.52-.39-.27-.4-.18s-.06,0-.16-.07A4.71,4.71,0,0,1,6.29,38c.3.3.29.13.22-.07l.33-.26c-.36.31,0,0-.08-.1l-.3.25c-.2,0-.14-.07.06-.28l1.7-1.63-1.15-2c-.27-.47-.52-.9-.72-1.22-.28-.8.45.88.65.95,0,0,0-.22-.08-.57,0-.17-.13-.39-.23-.65l-.08-.21,0-.11,0-.09,0-.17L7.11,30a1.07,1.07,0,0,1-.64-.09s0,0-.11,0l-.26,0L5.57,30l-2.14.37H3.35l.12,0,.26,0-.09,0-.2,0L3.38,30l-.09-.48c-.07-.42-.06-.39-.08-.52l0-.3.2,0s.11,0,0,0l-.06,0,2.17-.63c0-.63,0-1.29,0-2l0-.69,0-.54a4.35,4.35,0,0,1,.06-.52.39.39,0,0,1,0-.14l0-.23a3.62,3.62,0,0,1,.16-.51l.77-2.18c-.48-.13-1.06-.23-1.6-.34.08.05,0,.05-.24,0L4,20.85l-.13,0-.31-.06-.37-.08s-.17,0,.15,0l.31.06.08,0h0l-.06,0-.23,0v0h0c.16,0,.18,0,.17-.1l.18-.24.07-.1,0-.05L3.93,20,4,19.65a1.47,1.47,0,0,0,0-.23l0-.14a1.2,1.2,0,0,1,0-.44l.16,0,.08,0L4,18.82l-.08,0,.1,0c-.19-.08,0,0,.12,0h.07l0,0-.07-.05-.31-.22,0,0c0,.06-.07.19-.12.34l-.18.67-.17.58-.07.28-.1.47.25,0A.19.19,0,0,0,3.5,21H3.43l-.33-.07h0l.07,0,.31.08.35.09,1,.22c.39.1.88.16,1.26.3-.26.75-.57,1.55-.78,2.32a5,5,0,0,0-.11.75l0,.6L5.1,26.39c0,.29-.07.38-.13.2l0-.66,0-.47.08-.81,0-.36a3,3,0,0,1,.1-.49l.67-2.08a8.08,8.08,0,0,0-1.15-.22l-.29-.05-.31-.06-.31-.06h0l-.38-.05-.39,0H3l.28.07H3.13l-.57-.05c.06-.33.14-.72.26-1.2l.29-.76c.1-.25.15-.34.22-.49a4.91,4.91,0,0,1,.32-.62l.33.17c.08.05.29.14.13.11A6.44,6.44,0,0,0,5.54,19c.37.13.72.26,1,.34l.9-2.43c.15-.42.25-.75.4-1.16A3.47,3.47,0,0,1,8.26,15l.49-.54.6-.65-.7-.63c-.27-.24-.49-.45-.71-.66l-.31-.31-.14-.16c-.22-.17,0,.13-.19-.05L7,11.69a4.51,4.51,0,0,0,.39-.42c-.06-.09-.29.09-.65.45.17.16.39.37.64.59l1.19,1,.58.5-.49.53-.41.43.35-.48L9,13.76l-.49-.35a5.09,5.09,0,0,1-.61-.47c-.48-.38-.36-.34-.42-.42L6.81,12c-.08,0-.09.14-.62-.25l.33-.43.6-.48C9.2,8.47,10,7,7.25,10.19l-.12.38L6,11.78,7.23,13c.39.52-1.46-1.06-1.71-1.09s0,.13.47.62l.93.85.93.83,0-.51-.51.54a3.36,3.36,0,0,0-.31.44c-.21.47-.22.57-.14.46a5.74,5.74,0,0,1,.54-.82l.51-.55,0,.35-.66-.58L8,14v-.17l-.42.62a3,3,0,0,0-.28.57,6.12,6.12,0,0,1-.72,1.31c-.32.58-.25-.18-.6.79l-.22.55c-.92-.25-.72-.14-.77-.08s0,.15-1.38-.27a8.08,8.08,0,0,0,.86.41L5.2,18a8.84,8.84,0,0,0,.87.3c.26-.61.61-1.43.9-2.05a8.33,8.33,0,0,1,.89-1.57l.52-.52.26-.28-.31-.3-.17-.16-1-.82c-.37-.48,1.66,1.32.17,0,.36.27.73.57,1.11.88l.46.37-.39.45L8,14.85a10,10,0,0,0-.84,1.59l-.47,1.09-.48,1.14c-.31-.08-.63-.21-.93-.32l-.57-.2L4.39,18l-1-.41-.5,1.19c-.08,0-.37.6-.58,1-.11.19-.2.33-.23.28a2.54,2.54,0,0,1,.11-.85c-.14.4-.31.84-.48,1.29s-.36.94-.57,1.58l.87.18,1.62.27s0,0,0,0H3.55c-.08,0,0,0,0,0l.12,0,.23,0,.23,0,.11,0s.08,0,0,.06c-.1.33-.23.65-.32,1a9.55,9.55,0,0,0-.17,1.12c0,.38-.07.8-.09,1.13s0,.59,0,.88a2.19,2.19,0,0,1-.41.13L2.85,27,2,27.28l-.8.25h0c.34-.08.25,0,.09,0,.06.18.13.4.16.47.11.65.19,1.16.23,1.52a4.76,4.76,0,0,1,0,.68c0,.33-.07.3-.16.23s-.36-.53.15,2.3l1.23-.19,1-.16.28,0,.14,0H4.2l.12,0,.21-.05c.07,0,.13,0,.1,0l0,.1c0,.11,0,.13.07,0a1,1,0,0,1,.08-.23s0-.08,0-.11H4.13l-.43,0c-.61.09-1,.15-1.46.24,0,0-.07,0-.22,0-.08-.7-.37-2.37,0-1.09l.16.88,1.27-.2L4,31.85l.34-.07L5,31.64c.19-.08.08.09.06.18a.44.44,0,0,0,0,.32,3.77,3.77,0,0,0,.27.58l.36.66.79,1.41.53.66.2.32c-.46.49-1.26,1.31-2,2,.37.49.7.95.95,1.34,2.39,3.39-.34,0-.61-.21L7.68,42l.17-.11c.54-.43,1-.79,1.48-1.13s.77-.55,1.15-.8l-.61-.15a6,6,0,0,0,.57.93,2.21,2.21,0,0,0,.42.39l.39.28.76.49c.35.22.67.42,1,.59-.07.19-.25.51-.28.62s-.27.64-.5,1.22l.15-.48a3.85,3.85,0,0,0,.21-.54c0-.1.06-.17,0-.17s0-.05-.15.13a2.87,2.87,0,0,0-.21.33l-.38.7-.7,1.33.86.38,1.47.56.64.19.67.23c.57.22,1.38.56,2.17.89L19,44.52l-.88.23.86.46.43.22.22.11a1.42,1.42,0,0,0,.29.1,8.26,8.26,0,0,0,1.6.26c.47.05.58.12.19.1l.25,0a2.42,2.42,0,0,1,0,.47L22,47l.16,2.29h.18a13.14,13.14,0,0,1,2.38-.14l1.32.05,1.78,0V48l-.05-.8c0-.26,0-.47-.05-.59s-.06-.26-.09-.49l-.05-.32c0-.09.17-.09.27-.14l.38-.12.55-.15,1.2-.19.48-.08c.1,0,.12,0,.15.12l.08.22,1,2.47L36.38,46l-.55-1.32L35.55,44l-.08-.22,0-.08-.11-.32-.06-.15s0-.06,0-.08l.1,0h0a2.78,2.78,0,0,1,.45-.37L36,42.6l.24-.24a2.47,2.47,0,0,0,.31-.35c.1-.16,0-.11-.72.28.51-.36,1-.74,1.46-1.12l1.28-1,2.11,2,3.53-3.43-2-2c-.09,0,0-.09,0-.13l.08-.15.16-.31a1.9,1.9,0,0,1,.12-.54l.31-.86A2.32,2.32,0,0,0,43,34a4.74,4.74,0,0,0-.09-.87c0-.37,0-.53-.37-.25-.06.15-.12.41-.24.75l0,.13,0,.06a.75.75,0,0,1-.07.12.63.63,0,0,1-.13.17Z" transform="translate(-1.11 -0.91)"/><path class="cls-2" d="M7.76,11.77l1.05.86-.18-.23a2.83,2.83,0,0,0-.6-.51c-.13-.08-.1,0-.15-.06Z" transform="translate(-1.11 -0.91)"/><path class="cls-1" d="M44.52,10.07l-.41-.46-.76-.89L42,7.18l-.94.7-.71.54c-.2.15-.24.2-.08.12L41,8.11l.93-.6,4.9,6-1.33.87-.74.48L44.5,15h0l-.08,0a.37.37,0,0,0,.15,0l2.56-1.59-1.59-2.1-.71-.94Z" transform="translate(-1.11 -0.91)"/><path class="cls-2" d="M5,36.71l-1,1L5.66,40a7.44,7.44,0,0,0-.32-.7,13.08,13.08,0,0,0-1.17-1.56C4.32,37.51,3.89,37.8,5,36.71Z" transform="translate(-1.11 -0.91)"/><path class="cls-1" d="M35.93,7.58s0-.17,0-.18,0,0-.13.17l-.16.28c0,.1.19.16.31.28l1.75,1.15c-.14-.08-.77-.61-1.31-1C35.52,7.87,36.26,7.28,35.93,7.58Z" transform="translate(-1.11 -0.91)"/><path class="cls-1" d="M33.31,4.16c.1.15.19.29.27.43l.77.27a8.1,8.1,0,0,1,1,.49L34.85,5l-.48-.3A6.78,6.78,0,0,0,33.31,4.16Z" transform="translate(-1.11 -0.91)"/><path class="cls-1" d="M41.16,10.33l-.16.08a1.46,1.46,0,0,0-.21.11l-.28.17-.41.25-.49.17c-.15,0-.34.2-.4,0a2.91,2.91,0,0,0-.74-.6,2.06,2.06,0,0,0-.35-.33l-.31-.2-.65-.45-.34-.26-.47-.38c-.33-.28-.68-.59-1-.93-.09,0,0-.11,0-.17l.11-.19.2-.37.19-.37.24-.46.11-.2-.09.15,0,0a2.16,2.16,0,0,0,.2-.52c-.31-.08-.33,0-.31.1l-.43.36,0,.06v0h0l.07-.12c.26-.46.11-.19.11-.19l-.07.13a3.24,3.24,0,0,0-.15.35.48.48,0,0,0,0,.3.62.62,0,0,1,0,.17s0,.06,0,0L35.52,7l0-.06-.06.15c-.09.2-.22.46-.38.79s.1.23.21.35l.48.35,1.44,1.18.57.48a1.46,1.46,0,0,1,.22.2,2.26,2.26,0,0,1,.28.35,3.23,3.23,0,0,1,.82.68h0s.06.07.11.07h.15l.29,0,.47-.05.65-.45.24-.16c.17-.13,0-.07,0-.08s0-.08,0-.11-.26.07-.26,0,0-.06.12-.14S40.93,10.49,41.16,10.33Z" transform="translate(-1.11 -0.91)"/><path class="cls-1" d="M33.52,5l.92.45c-.11-.09-.31-.22-.35-.27L33.91,5A1.59,1.59,0,0,0,33.52,5Z" transform="translate(-1.11 -0.91)"/><path class="cls-1" d="M41.22,11.26l.17-.17.24.19L41.4,11l-.15.09-.07.05,0,0,.1-.07.1-.07-.07.05-.2.13-.83.54C41.57,10.92,41.27,11.17,41.22,11.26Z" transform="translate(-1.11 -0.91)"/><path class="cls-1" d="M37.08,11.09l.18.14a2.76,2.76,0,0,1,.43.54l1,.27.36.08.65.12a2.09,2.09,0,0,0,.39,0c.13,0,0-.08-.62-.22a2.08,2.08,0,0,1-.39-.09,10.33,10.33,0,0,0-1.27-.34,2.59,2.59,0,0,0-.44-.44C37.23,11.15,37.27,11.21,37.08,11.09Z" transform="translate(-1.11 -0.91)"/><path class="cls-2" d="M46,28.13l-.59-.21-.45-.15-.21-.08c-.06,0,0,0,0-.08l.06-.13a4.06,4.06,0,0,0,.24-.72c0-.23.08-.44.13-.75.08-.58.17-1.24.24-1.59l0-.31c0-.05,0-.12.05-.14l.17,0,.65-.09,2.63-.49-.52-2.89-.25-1.41-.33-1.72-2.31.35-.35.09h.06l-.22.08-.13,0s-.08,0-.08,0-.11-.26-.19-.41l-.12-.25a3.74,3.74,0,0,0-.23-.44l-.35-.85-.09-.21,0-.12-.08-.22-.14-.4c0-.05,0,0,0,0l0,0v0l.44-.29L46,13.34l-2.21-2.7-2-2.37-1.36,1-.31.21L40,9.58s-.17.12-.15.12l.08,0-.25.21c-.08,0-.19.22-.22.1a1.89,1.89,0,0,0-.2-.2l-.16-.25a2.17,2.17,0,0,0-.15-.22c-.12-.12-.23-.23-.4-.38s-.6-.42-1-.69l-.71-.52-.09-.07s0,0,0,0v0h0l.07-.14L37,7.16l.1-.19.09-.18.24-.45.09-.18c.12-.22.21-.43.29-.61L38,5.27a16.45,16.45,0,0,1-1.52-.91l-1.06-.72-.57-.26L34.06,3l-1.69-.81L31.23,4.75h0l.08-.2,0,.1-.1.19c0,.1-.11,0-.17,0l-.21-.09-.2-.08-.28-.1-.94-.24-.59-.14-.4-.07a1.27,1.27,0,0,1,0-.2c0-.06,0-.16,0-.1s0,.05,0,0V3.58l0-.73.05-.48,0-.45c0-.31,0-.65,0-1-.56,0-1.19,0-1.84,0l-1,0-.67,0-.64,0-1,0c-.64,0-1.25,0-1.86,0,0,.61-.05,1.11-.11,1.65V3.89s0,.23,0,.34l-.68.13-.4.08-.29.08-.21-.33A2.3,2.3,0,0,1,19.59,4l-.32-.55q-.64-1.12-1.05-1.74c-.33.19-.58.34-.75.46,0,0,.44-.32.63-.48s.12-.2-1.08.31c-.45.23-1.47.73-1.34.7l-1,.45c-.81.37-1.86.83-2.7,1.25.4.76.76,1.43,1,1.83l.2.35a.73.73,0,0,0,.1.14c0,.06.06.07.06,0L13,5.88a1.29,1.29,0,0,1-.1-.39c0-.12.17,0,.41.34s.56.81.75,1.09a2.46,2.46,0,0,1,.32.67c.05.15-.1.21-.18.31l-.29.3-1,1-1.17,1.09-.32.29c-.06.09-.11,0-.16,0l-.16-.1-.64-.4c-.46-.29-.77-.47-1-.63L8.25,8.65l1,.82,1.23,1,.77.62.1.08.1-.08.21-.15.41-.3,1.45-1.07c-.17.09-.06,0,.14-.19l.87-.71c.29-.28.4-.4-.06,0l-.2.13-.85.66-1,.67-.58.39-.29.19-.14.09c0,.06-.09,0-.14-.07.1.15.21,0,.32-.09l.36-.28.8-.6,1.61-1.2.49-.42A.69.69,0,0,0,15,7.86a1.14,1.14,0,0,0,0-.32,5,5,0,0,0-.38-1.17,10.65,10.65,0,0,0-.71-1.31c0-.1.19-.14.24-.21.47-.2.85-.34,1.16-.46l1-.35c.51-.16.8-.21,1.17-.3l.07,0L19,6.52l4.21-.73V3.59l0-.89.57,0c.47,0,1.77,0,2,0a5.22,5.22,0,0,1,.81.11c-.06.32-.13.67-.2.66V4.3l0,1.44c1,.19,2.37.46,2.79.56l.8.18a5.35,5.35,0,0,0,.74.19L31.7,7l.46.18a3.22,3.22,0,0,0,.2-.37l.36-.71.22-.48c.07-.14.06-.1.09-.16l.12-.21.11-.2.06-.1s0,.06,0,.08l0,.13s0,.09,0,.06l0,0a.39.39,0,0,1,.17-.1,2.82,2.82,0,0,1,.36.41.85.85,0,0,0,.17.12l.49.25c.38.19.28.13.37.16s.21,0,.44.06a.25.25,0,0,1,0,.08l-.06.1,0,0h0L35.4,6l.1-.17,0,0,0,.06L35,6.67l-.18.3.14-.26L35,6.59l0,0-.33.51c-.33.51-.26.27-.2,0s.1-.4-.4.4L33.81,8l-.12.22a.67.67,0,0,0-.07.11l.07.05.66.54,2,1.57L37,11l.28.21,0,.05a.67.67,0,0,1,.14.15,2.27,2.27,0,0,1,.26.35l1.3.34.12,0,.19,0,.35.06.63.11.66-.46.16-.11,0,0,.07,0,.23-.2c.23-.19-.12,0-.08,0l-.16.11c-.08.06,0,0,0,0h0l.07,0a1.25,1.25,0,0,0,.12.17l.53.66.25.31.08.13-.1,0h-.05l.16-.11.3-.21c.24-.16.08,0,.06,0l-.13.1-.26.2-.54.39s-.38.27.23-.13l0,0-.1.08-.22.15-.86.59-.43.3.17.31.31.63.63,1.25.75,1.56c.06.13.27.72.41,1.18.39.3.67.56.89.76s.68.44,1,.66l1.18-.2.27,0-.18,0c-.18,0-.08,0-.07,0l.08,0a1.28,1.28,0,0,0,.09.22c0-.06.3,1.12.3.94l.07.31-.56.15-1.58.39-.38.09-.2,0a1.41,1.41,0,0,0,0,.2l0,.8-.08,1.48,0,.89,0,.44,0,.4c0,.12-.07.26,0,.37a5.83,5.83,0,0,1,.33,1.08c0,.09,0,.15.07.24l.2.26.41.52,1.14.23.29.06s0,0,0,0,0,0,0,0l.12,0,.25,0,0,.14c.26.13.52.27,1-.78A4.55,4.55,0,0,0,46,28.13Z" transform="translate(-1.11 -0.91)"/></svg>