
<svg id="Layer_1" data-name="Layer 1" xmlns="http://www.w3.org/2000/svg" viewBox="0 0 46.71 46.97"><defs><style>.cls-1{fill:#fff;}</style></defs><title>Ausrüstung</title><path class="cls-1" d="M32.22,9.24c-.78-.35.45.24,0,0a13.8,13.8,0,0,0-1.76-.66C31.9,9.11,29.86,8.22,32.22,9.24Z" transform="translate(-1.55 -1.69)"/><path class="cls-1" d="M29.44,8.42l-.34-.06-.83-.22c-.23-.05-.32-.07,0,0Z" transform="translate(-1.55 -1.69)"/><path d="M31.17,9.54l-.61-.24c.31.12.48.13.94.32C31.39,9.58,31.28,9.57,31.17,9.54Z" transform="translate(-1.55 -1.69)"/><path d="M8.26,30l.07.35A4.67,4.67,0,0,1,8,29.41a10.58,10.58,0,0,1-.3-1.79l0,.16S7.68,27,7.66,26.2c0-.17,0,.49-.11-.27a9.55,9.55,0,0,1,0-1.51,6.68,6.68,0,0,1,.16-1.36l0-.73a13.78,13.78,0,0,1,.48-1.79l-.1.48c.13-.33,0-.05.43-1.18a11.76,11.76,0,0,1,.72-1.9c.27-.57.73-1.32,1.2-2.09a17.08,17.08,0,0,1,1.61-2,12.59,12.59,0,0,1,2.15-2c.86-.68,1.77-1.18,2.23-1.53,1.1-.54,1.71-.85,2.21-1a10.69,10.69,0,0,1,1.48-.57c.93-.21.33,0-.37.17s-1.47.57-1,.42a18.72,18.72,0,0,1,4.16-1,17.79,17.79,0,0,1,4.32.1c.71.07-.5-.16,1,.05-.49-.05,0,.07.55.22-.56-.15,0,0,.08,0l-.4-.11c-.13-.09.35,0,1,.21s1.39.51,1.87.64-.5-.19-.58-.18a14.7,14.7,0,0,0,1.61.83,14.4,14.4,0,0,1,3.06,1.93c.47.36.87.8,1.34,1.21s.89.95,1.36,1.52a7.11,7.11,0,0,1,.72.92c-.19-.23-.12-.11,0,.13s.36.63.51.88a7.9,7.9,0,0,1,1,1.62l-.26-.69a6.53,6.53,0,0,0-.6-1.05,10.48,10.48,0,0,0-.82-1.19,8.72,8.72,0,0,0-1.24-1.55c-.54-.63-1.11-1.08-.94-1l.34.33a21.71,21.71,0,0,1,2.69,3.21,14.4,14.4,0,0,1,1.1,2.36c.34,1,.48,1.23.66,1.74a11.55,11.55,0,0,1,.4,1.83c.05.31,0-.15.05.16l.16,1.19a11.39,11.39,0,0,0-.4-2.6c.07.26.1.32.19.68s.06.25.06.3l.1.63s0-.12.18.72a2.79,2.79,0,0,1,0,.5c.07,1.68.21,2.5.11.32l0-.18c0-.7-.15-1.39-.22-2.08,0-.35.18,1,.23,1s0-.23-.06-.74-.25-1.14-.33-1.53c-.24-.79.08.51.22,1.07l-.36-1.12c-.07-.31-.24-.76-.21-.75-.1-.35.1,0-.13-.58a4.77,4.77,0,0,0-.31-.77c-.06-.11-.07-.11-.07-.1s0,.07-.36-.63a22.39,22.39,0,0,1,1.18,3.67c0,.22.13.44.16.67s-.26-1.09,0-.07a27.23,27.23,0,0,0-.81-2.8,10.08,10.08,0,0,0-.53-1.32,8.91,8.91,0,0,0-.5-1.06s-.66-1.27,0-.35A9.34,9.34,0,0,0,39,15a18.73,18.73,0,0,0-3.57-3.64c.2.17-.13-.05-.18-.08-1.08-.83-.92-.69-.81-.71s.09-.08-1.57-1c-.59-.28-.91-.4-.74-.29.41.24.84.4,1.49.81,0,0,1,.65.39.31a10.59,10.59,0,0,0-1.83-1,17.76,17.76,0,0,0-1.7-.67l-.43-.12a23.68,23.68,0,0,0-2.51-.57c-2.1-.34.16-.05.24-.07a14.43,14.43,0,0,0-1.75-.23A17.32,17.32,0,0,0,21,8.09L21.16,8c.49-.1.41-.1.11-.08s-.78.17-1.12.25l-.54.16c-.39.19-1.23.46-2.12.87-.43.22-.92.41-1.35.67l-1.22.75c-.3.22-.43.3-.17.1-.51.38-1.07.72-1.55,1.15s-1.06.93-1.79,1.81c-.52.6-.58.85-1.2,1.69-.37.55-.68,1.06-1,1.54l-.69,1.43a26.21,26.21,0,0,0-1,3c-.07.37-.21,1.83,0,.72a17.42,17.42,0,0,0,0,7l.16.49C7.91,30.18,9,32.4,8.26,30Z" transform="translate(-1.55 -1.69)"/><path d="M41.64,22.42a6.83,6.83,0,0,0-.21-1v.14C41.52,21.93,41.56,21.9,41.64,22.42Z" transform="translate(-1.55 -1.69)"/><path class="cls-1" d="M22.23,43.21a7.74,7.74,0,0,0,1.43.1c.35,0,.48,0,.14-.06a13.63,13.63,0,0,1-1.9-.18A10,10,0,0,1,20,42.66a5.61,5.61,0,0,0,.89.29C21.41,43.09,22,43.15,22.23,43.21Z" transform="translate(-1.55 -1.69)"/><path d="M29,8.07a11.45,11.45,0,0,0-1.55-.29l.34.1C29,8.1,28.11,7.89,29,8.07Z" transform="translate(-1.55 -1.69)"/><path class="cls-1" d="M27.52,42.64s.33-.11-.34,0a6.72,6.72,0,0,1-1,.16A8.54,8.54,0,0,0,27.52,42.64Z" transform="translate(-1.55 -1.69)"/><path class="cls-1" d="M30.91,41.64l-.19,0a6.09,6.09,0,0,1-1.26.45A8.66,8.66,0,0,0,30.91,41.64Z" transform="translate(-1.55 -1.69)"/><path class="cls-1" d="M23.83,42.71a7,7,0,0,0,1.88,0c.46,0,.88-.07,1.63-.15a4.77,4.77,0,0,0,1.47-.34s-.26,0-.51,0c-.82.14,0,.09-1.3.32a11.08,11.08,0,0,1-2,.08C22.83,42.56,25,42.73,23.83,42.71Z" transform="translate(-1.55 -1.69)"/><polygon class="cls-1" points="29.3 39.77 28.36 40.12 28.85 39.99 29.3 39.77"/><polygon class="cls-1" points="22.29 40.78 21.46 40.77 22.95 40.86 22.29 40.78"/><path class="cls-1" d="M25.82,42.31l-.66,0c-.49.06-.82,0-.33.08A5.69,5.69,0,0,0,25.82,42.31Z" transform="translate(-1.55 -1.69)"/><path d="M10.74,35.85a16.43,16.43,0,0,0,5.78,5.29c.54.22,1.07.5,1.72.71a16.4,16.4,0,0,0,1.77.66c.46.1.94.26,1.43.33l1.44.21a13.33,13.33,0,0,0,2.39,0H26l.61,0,.74-.11a8.05,8.05,0,0,0,1.34-.27c.84-.18.85-.15,1.37-.24a17.75,17.75,0,0,0,5.47-2.81A17.24,17.24,0,0,0,38.28,37,13.48,13.48,0,0,0,40.82,33s-.23.64.17-.13l.21-.47a17.19,17.19,0,0,0,.73-2.11c0-.21,0-.27,0-.23-.3,1-.22.35,0-.68a17,17,0,0,0,.2-3.29v-.7a23.85,23.85,0,0,1-.28,2.86c.09-.33-.2,1.32,0,.5l.07-.5c.07-.38.15-.77.21-1.16-.06.5-.16,1.34-.33,2.11s-.37,1.52-.48,1.83c-.21.55-.35.91-.49,1.19l-.46.79a19.68,19.68,0,0,1-3.16,4.5c-.65.65-1.09,1-1.37,1.23s-.5.32-.72.46a22.5,22.5,0,0,1-2.21,1.46,16,16,0,0,1-1.53.64l-1,.26c-1.1.36-1.11.32-1.89.58-2.28.37.45-.17-2.15.2-.5,0-1.07,0-1.52.09a4.44,4.44,0,0,0-.78,0l-.91-.07c-.31,0-.62-.09-.93-.13l-.87-.14-.7-.2a16.66,16.66,0,0,1-5.68-2.54,18.37,18.37,0,0,1-4.54-4.56C10,34.39,10,34.77,10.74,35.85Z" transform="translate(-1.55 -1.69)"/><path class="cls-1" d="M32.77,8.06c-.84-.38.48.25,0,0a17.87,17.87,0,0,0-1.89-.71C32.43,7.92,30.23,7,32.77,8.06Z" transform="translate(-1.55 -1.69)"/><path class="cls-1" d="M29.78,7.16l-.35-.06-.91-.24c-.24-.05-.33-.07,0,0Z" transform="translate(-1.55 -1.69)"/><path d="M31.66,8.33,31,8.07c.34.13.52.15,1,.35A3.58,3.58,0,0,0,31.66,8.33Z" transform="translate(-1.55 -1.69)"/><path d="M7,30.36l.08.38a6.27,6.27,0,0,1-.33-1,9.66,9.66,0,0,1-.33-1.93l0,.17s-.07-.84-.09-1.7c0-.18,0,.53-.11-.29a8.8,8.8,0,0,1,0-1.62,8.45,8.45,0,0,1,.16-1.46l.06-.78A13.52,13.52,0,0,1,7,20.17l-.11.52a12.48,12.48,0,0,0,.45-1.27,13,13,0,0,1,.78-2c.29-.62.79-1.42,1.3-2.25a17.25,17.25,0,0,1,1.73-2.19,7.23,7.23,0,0,1,1-1.07,13.39,13.39,0,0,1,1.32-1.12c.92-.73,1.91-1.27,2.4-1.64C17,8.52,17.7,8.2,18.24,8a12.35,12.35,0,0,1,1.59-.61c1-.22.36,0-.4.18s-1.58.61-1.06.45A19.84,19.84,0,0,1,22.84,7a19,19,0,0,1,4.65.1c.77.08-.54-.17,1,.06-.52,0,0,.07.59.23-.59-.16,0,0,.09,0l-.43-.12c-.14-.1.38,0,1.06.23s1.5.54,2,.68-.53-.2-.62-.19.45.2,1.74.88a15.67,15.67,0,0,1,3.29,2.08c.51.38.94.85,1.45,1.3s1,1,1.46,1.63a7.81,7.81,0,0,1,.78,1c-.21-.25-.13-.11,0,.15s.39.68.55.94a8.44,8.44,0,0,1,1,1.75l-.28-.75a7.55,7.55,0,0,0-.64-1.12,10.19,10.19,0,0,0-.89-1.29,9.6,9.6,0,0,0-1.33-1.66c-.58-.68-1.19-1.16-1-1.09l.36.34a23.68,23.68,0,0,1,2.89,3.46,15.36,15.36,0,0,1,1.19,2.54c.37,1.05.51,1.32.71,1.87a11.73,11.73,0,0,1,.43,2c.06.34,0-.15,0,.18l.18,1.28a3.3,3.3,0,0,0-.08-.93c0-.29-.07-.62-.14-.95l-.22-.91c.08.28.11.34.21.73s.06.27.06.32l.11.68s0-.14.18.77a3.25,3.25,0,0,1,0,.54c.08,1.81.22,2.69.11.35l0-.2c0-.75-.16-1.49-.24-2.23,0-.38.19,1,.24,1.06s0-.24-.06-.79-.28-1.23-.37-1.65c-.25-.85.1.55.25,1.16l-.39-1.21c-.07-.34-.25-.82-.22-.81-.11-.37.1,0-.15-.62a4.88,4.88,0,0,0-.33-.83c-.06-.12-.07-.12-.08-.11s0,.08-.38-.67A23.57,23.57,0,0,1,43,21a6,6,0,0,1,.17.73c0,.31-.28-1.18,0-.08a30.5,30.5,0,0,0-.87-3,11.83,11.83,0,0,0-.58-1.43,10.25,10.25,0,0,0-.53-1.13s-.72-1.37,0-.37a10.34,10.34,0,0,0-1-1.55,19.86,19.86,0,0,0-3.85-3.91c.22.18-.12-.06-.18-.08-1.16-.9-1-.75-.88-.76s.1-.08-1.68-1c-.64-.3-1-.44-.8-.32.44.26.91.43,1.61.87,0,0,1.11.7.42.33-.39-.23-.73-.46-1.05-.62l-.92-.42C32.2,8,31.64,7.78,31,7.52l-.47-.14c-.56-.14-1.92-.51-2.7-.61-2.25-.36.18,0,.27-.06a13.46,13.46,0,0,0-1.88-.25,18.11,18.11,0,0,0-5.46.36l.18-.07c.53-.11.44-.11.12-.08s-.84.18-1.2.27l-.58.17c-.42.2-1.32.49-2.27.93-.47.24-1,.45-1.46.72l-1.31.81c-.32.23-.46.32-.18.1-.55.42-1.15.78-1.66,1.24s-1.14,1-1.93,1.95c-.55.63-.62.91-1.29,1.81-.4.58-.73,1.14-1,1.64l-.74,1.54a27.68,27.68,0,0,0-1.08,3.26c-.08.39-.24,2,0,.77a18.72,18.72,0,0,0,0,7.53l.16.52C6.65,30.54,7.78,32.94,7,30.36Z" transform="translate(-1.55 -1.69)"/><path d="M42.92,22.19a6.91,6.91,0,0,0-.22-1.1l0,.16C42.8,21.67,42.84,21.64,42.92,22.19Z" transform="translate(-1.55 -1.69)"/><path class="cls-1" d="M22.05,44.51a8.84,8.84,0,0,0,1.53.1c.38,0,.51,0,.14,0a17.67,17.67,0,0,1-2-.2,11.2,11.2,0,0,1-2-.44,5.94,5.94,0,0,0,.95.31C21.17,44.37,21.77,44.44,22.05,44.51Z" transform="translate(-1.55 -1.69)"/><path d="M29.27,6.81a10.69,10.69,0,0,0-1.67-.32l.37.1.81.13S28.81,6.69,29.27,6.81Z" transform="translate(-1.55 -1.69)"/><path class="cls-1" d="M27.73,43.93s.35-.11-.37,0a7.69,7.69,0,0,1-1.07.17A9.69,9.69,0,0,0,27.73,43.93Z" transform="translate(-1.55 -1.69)"/><path class="cls-1" d="M31.37,42.86h-.2a7.05,7.05,0,0,1-1.36.47A7.71,7.71,0,0,0,31.37,42.86Z" transform="translate(-1.55 -1.69)"/><path class="cls-1" d="M23.75,44a8.2,8.2,0,0,0,2,0c.5,0,.95-.06,1.75-.16a5.16,5.16,0,0,0,1.58-.36s-.27,0-.54,0c-.89.14,0,.09-1.4.34a11.76,11.76,0,0,1-2.15.08C22.68,43.86,25,44,23.75,44Z" transform="translate(-1.55 -1.69)"/><polygon class="cls-1" points="29.76 41 28.75 41.37 29.27 41.23 29.76 41"/><polygon class="cls-1" points="22.22 42.09 21.33 42.07 22.93 42.16 22.22 42.09"/><path class="cls-1" d="M25.9,43.62l-.71,0c-.53.06-.88,0-.35.09C25.72,43.68,25.54,43.65,25.9,43.62Z" transform="translate(-1.55 -1.69)"/><path d="M9.69,36.63a18,18,0,0,0,6.22,5.67c.58.23,1.15.54,1.85.76a14.43,14.43,0,0,0,1.9.7,15.47,15.47,0,0,0,1.53.36l1.55.22c.5,0,1,0,1.42,0a5.83,5.83,0,0,0,1.14,0H26l.67-.05.79-.12a10.34,10.34,0,0,0,1.43-.28c.9-.21.92-.17,1.47-.27a19,19,0,0,0,5.87-3,18,18,0,0,0,3-2.74A14.62,14.62,0,0,0,42,33.53s-.25.68.18-.14l.22-.51a17.72,17.72,0,0,0,.79-2.26c0-.22.05-.29,0-.25-.32,1.05-.23.38,0-.73a18,18,0,0,0,.23-3.53l0-.75a25.64,25.64,0,0,1-.3,3.08c.09-.36-.22,1.42,0,.53l.08-.53c.07-.42.16-.83.22-1.25-.07.53-.17,1.44-.36,2.27s-.39,1.62-.52,2c-.23.6-.37,1-.52,1.28l-.48.86a21.1,21.1,0,0,1-3.41,4.83c-.7.7-1.16,1.06-1.47,1.33s-.54.35-.77.49a24.43,24.43,0,0,1-2.38,1.58,17.55,17.55,0,0,1-1.64.68l-1.07.29c-1.19.39-1.2.35-2,.62-2.46.41.49-.17-2.32.23-.53,0-1.14.06-1.63.1a4.44,4.44,0,0,0-.83,0l-1-.07c-.33,0-.67-.1-1-.14L21,43.37l-.75-.22a18,18,0,0,1-6.11-2.73A19.78,19.78,0,0,1,9.3,35.51c-.2-.22-.28-.23-.23,0A4.59,4.59,0,0,0,9.69,36.63Z" transform="translate(-1.55 -1.69)"/><path class="cls-1" d="M27.56,19.35c-.3-.12.16.1,0,0a5.16,5.16,0,0,0-.66-.23C27.44,19.31,26.69,19,27.56,19.35Z" transform="translate(-1.55 -1.69)"/><path class="cls-1" d="M26.49,19.15h-.13c-.17-.07-.54-.15-.29-.12A3.82,3.82,0,0,0,26.49,19.15Z" transform="translate(-1.55 -1.69)"/><path d="M27,19.86l-.21-.09a3.43,3.43,0,0,1,.33.1Z" transform="translate(-1.55 -1.69)"/><path d="M19,27a1.23,1.23,0,0,1,0,.13s-.08-.09-.16-.32a1.94,1.94,0,0,1-.08-.64v.05a2,2,0,0,0,0-.56c0-.06-.05.18-.1-.09a3.24,3.24,0,0,1,.08-1l0-.27a3.55,3.55,0,0,1,.21-.63l0,.18a1,1,0,0,0,.2-.4,2.94,2.94,0,0,1,.22-.68,6.8,6.8,0,0,1,1-1.44c.26-.49,1.21-1,1.51-1.3.79-.36.86-.44,1.29-.63s.12,0-.12.1-.51.23-.33.2a6,6,0,0,1,3-.32c.26,0-.17-.12.36-.05-.18,0,0,.07.18.13-.19-.06,0,0,0,0l-.14-.05c-.08-.13.69.18,1,.28.14.09-.17-.07-.21,0s.12.13.54.36a5.42,5.42,0,0,1,2,1.65c0-.06.16.18.26.31-.15-.15.06.2.15.38a1.83,1.83,0,0,1,.39.54l-.05-.26a4,4,0,0,0-.52-.78c0-.21-.88-1-.74-.94l.12.12c.38.46.67.63,1,1.1a3.91,3.91,0,0,1,.31.88,3.63,3.63,0,0,0,.25.62,2.15,2.15,0,0,1,.12.65c0,.11,0-.06,0,.06a2.55,2.55,0,0,0,.05.42,2.23,2.23,0,0,0-.09-.94,1.67,1.67,0,0,1,.08.24c0,.11,0,.09,0,.11l.05.23s.05-.05.1.25c0,.06,0,.12,0,.18,0,.6.13.9.1.11L31,24.83c0-.25,0-.5,0-.76s.09.35.13.35,0-.56-.09-.84,0,.19.05.4l-.18-.4c0-.11-.07-.28-.05-.28s.08,0,0-.23c-.24-.64-.07,0-.31-.53,0,.17.34,1.06.35,1.36a2,2,0,0,1,.05.24c0,.11-.1-.39,0,0a15,15,0,0,0-.61-1.89s-.19-.49.07-.17a2.92,2.92,0,0,0-.31-.55,8.88,8.88,0,0,0-1.33-1.34c.07.07-.05,0-.08,0-.82-.59.41,0-.83-.71-.22-.1-.35-.13-.29-.08l.55.33s.37.25.12.14a6,6,0,0,0-1.31-.57l-.17,0c-.19-.05-.65-.16-.91-.21-.77-.14.06-.06.1-.09-.22,0-.43-.09-.65-.1a6,6,0,0,0-1.88.12l.06,0c.36-.1-.13-.07-.39,0l-.19.08a12.31,12.31,0,0,0-1.73.88c-.12.08-.17.1-.08,0-.19.13-.4.25-.59.4s-.39.35-.66.69-.18.34-.39.66a6.76,6.76,0,0,0-1,2.21c0,.15,0,.68.11.29a6.2,6.2,0,0,0-.1,2.57l.08.18C18.65,27.13,19.19,27.85,19,27Z" transform="translate(-1.55 -1.69)"/><path d="M30.67,24.33A2.29,2.29,0,0,0,30.6,24V24C30.6,24.17,30.65,24.15,30.67,24.33Z" transform="translate(-1.55 -1.69)"/><path class="cls-1" d="M23.81,32.2c.4,0,.86,0,.6-.05A4.89,4.89,0,0,1,23,31.93,2.76,2.76,0,0,0,23.81,32.2Z" transform="translate(-1.55 -1.69)"/><path d="M26.35,18.89c-.19-.05-.39-.08-.58-.11l.12.07C26.36,19,26,18.82,26.35,18.89Z" transform="translate(-1.55 -1.69)"/><path class="cls-1" d="M25.78,31.65s.12-.07-.12,0a2.33,2.33,0,0,1-.36.08C25.36,31.72,25.91,31.67,25.78,31.65Z" transform="translate(-1.55 -1.69)"/><path class="cls-1" d="M27,31.22l-.08,0a1.77,1.77,0,0,1-.45.18A2,2,0,0,0,27,31.22Z" transform="translate(-1.55 -1.69)"/><path class="cls-1" d="M24.44,31.6a1.63,1.63,0,0,0,.68,0,2.43,2.43,0,0,1,.59,0c.77-.15.5-.21.32-.21s0,.09-.45.19a2.45,2.45,0,0,1-.72,0C24.09,31.48,24.86,31.59,24.44,31.6Z" transform="translate(-1.55 -1.69)"/><polygon class="cls-1" points="25.38 29.36 25.05 29.48 25.23 29.47 25.38 29.36"/><polygon class="cls-1" points="22.91 29.68 22.61 29.7 23.14 29.73 22.91 29.68"/><path class="cls-1" d="M25.14,31.21h-.22c-.17,0-.29,0-.12.07A.7.7,0,0,0,25.14,31.21Z" transform="translate(-1.55 -1.69)"/><path d="M19.65,29.19a5.44,5.44,0,0,0,2,2.09c.21.07.41.16.66.23a6.36,6.36,0,0,0,.65.28,4.44,4.44,0,0,0,2,.13l.25,0a4.9,4.9,0,0,0,1-.19,2.72,2.72,0,0,1,.53,0,6.28,6.28,0,0,0,2-1.05c.35-.1.74-.72,1.07-.94a3.62,3.62,0,0,0,.91-1.54s-.05.26.12,0A.93.93,0,0,0,31,28a4.12,4.12,0,0,0,.28-.79c0-.08,0-.11,0-.09-.27.7,0-1-.21-1.5v-.25c0,.3-.05.63-.12,1,.05-.11-.06.48,0,.19l0-.18L31,26a13.3,13.3,0,0,1-.26,1.43,2.47,2.47,0,0,1-.41.69,8.83,8.83,0,0,1-1.14,1.61,1.72,1.72,0,0,1-.78.55c-.21.22-.69.45-.77.55a2.49,2.49,0,0,1-.94.21,2.67,2.67,0,0,0-.65.23c-.8.12.14-.15-.76,0a4.07,4.07,0,0,0-.8.09,4.23,4.23,0,0,1-1.18-.21,5.56,5.56,0,0,1-2-.85,7.38,7.38,0,0,1-1.64-1.56C19.52,28.59,19.44,28.76,19.65,29.19Z" transform="translate(-1.55 -1.69)"/><path class="cls-1" d="M5,31.66a.93.93,0,0,0,.07.54l0,.12s0-.13-.1-.32a.93.93,0,0,1,.06-.53l-.06.2a1.83,1.83,0,0,0,.26,1c.13.27.27.54.42.8.29.52.59,1,.89,1.54C5.82,33.73,6,34,6,34.1s0,0-.17-.27l-.36-.69c-.08-.16-.17-.34-.27-.57a3,3,0,0,1-.15-.36A1,1,0,0,1,5,31.66Z" transform="translate(-1.55 -1.69)"/><path class="cls-1" d="M6.58,36.39l-.45.47-1,1c.42.57.64.9.15.25l-.18-.26Z" transform="translate(-1.55 -1.69)"/><path d="M6.18,33l.61,1.12a17.84,17.84,0,0,1-.93-1.67Z" transform="translate(-1.55 -1.69)"/><path d="M42.42,35c.08-.11.25-.3.41-.53A12.41,12.41,0,0,1,41.76,36l-.33.44c-.06.1-.2.2-.18.3l.28.27.83.83.68.67.19.2s0,0,0,0l-.09-.09s0,0,.06.09l-.15.13-.46.45-1.13,1.16c-.22.27.69-.63-.31.46l-.44.46-2.08-1.88-.93.83-.68.57c-.34.32-.68.64-1,.94a3.64,3.64,0,0,1-.67.44,4.34,4.34,0,0,1-.69.29,1.87,1.87,0,0,1-.24.21,1.54,1.54,0,0,0,0,.31l.62,1.53-.4-.87c.12.31.12.35.19.56l.19.49.29.7,0,0-3,1.27v0l-.08-.2-.19-.48L31.44,45l-.33-.78c0-.26-.26-.1-.43-.09l-.46.09-1.31.27-1.29.28-.88.19s-.12,0-.11,0v3H23.18l-.28-3L22,45l-.54-.06c-.36,0-.7-.09-1-.15a2.31,2.31,0,0,1-.78-.26l-.65-.31c-.18-.07-.6-.37-.82-.37l-.43.74-.52.9-.68,1.2-3.4-1.37-.38-.17-.16-.08c.07-.11.07-.09,0,0l.25.09.57.24L15,46c.92.38,1.58.65.92.34l-3-1.33,1.43-2.94L13,41.41l-1-.53a6.53,6.53,0,0,1-.89-.57,2.76,2.76,0,0,1-.31-.38,6.94,6.94,0,0,1-.45-.79L7.86,40.9,6.68,39.3c-.43-.55-.29-.33-.27-.27s0,0-.13-.13l-.73-1c.11.12.22.26.18.18l-.17-.27.15-.13.34-.33c-.8.78,0,0,.09-.13l-.52.49c-.27.17.49-.54,1.91-1.92l-1-1.61L5.87,33c-.37-.79.47.9.59,1a2.89,2.89,0,0,0-.27-.62L5.8,32.5c-.08-.17-.16-.36-.23-.55s0-.12,0-.16l.12-.37.19-.55L5.28,31,4.79,31l-2.06.33L2.14,28.1l2.35-.7c0-.77,0-1,0-1.41s0-.77.06-1.16a7.08,7.08,0,0,1,.17-1.15c0-.15.12-.37.19-.57l.37-1L4,21.79c.12,0-.2,0-.66-.11L2.2,21.44v0h0c.12,0,.1,0,0,0l0-.1.17-.5.39-1.16.33-1.16.21-.8.21.06.71.22-.62-.23-.2-.08-.14-.06,0,0-1.2,3.83.24.05c.16.05.49.13.92.22l1.85.4-.37,1.05a4.15,4.15,0,0,0-.2.7,11.92,11.92,0,0,0-.14,1.35c0,.8,0,1.3-.08,1.09l0-.9a12.29,12.29,0,0,1,.18-1.63,3.77,3.77,0,0,1,.21-.68l.32-.95L3.3,21.82,2,21.57,2.45,20,3,18.44l.22-.6.12-.34.82.29,1.09.38.92.29.69-1.82c.16-.4.29-.74.48-1.15a4,4,0,0,1,.44-.81l.7-.8-1.6-1.37c-.47-.39.21.19-.27-.2L6,11.78l.61-.71c0-.06,0,0-.19.17l-.49.55,2.49,2.1-.53.6.5-.6-.74-.61c-.48-.39-.38-.32-.45-.39l-1-.78s0,.07-.46-.31l.39-.46.66-.72c2.1-2.48,3-3.74.33-.54l-.2.3L5.67,11.81l1.48,1.27c.47.45-1.46-1.17-1.55-1.19-.44-.32,1.28,1.15,2.33,2l-.36.41a2.62,2.62,0,0,0-.34.47c-.28.56-.25.55-.11.27a6.48,6.48,0,0,1,.34-.56c.19-.23.35-.4.52-.59l-.62-.52.67.52A4.87,4.87,0,0,0,7.26,15c-.28.55-.64,1.39-.64,1.35-.29.63,0-.13-.5,1L5.89,18l-.84-.25c-.13,0-.11,0-.1,0s0,0-.17,0l-1.16-.35c.32.13,1.17.42,2.36.81.34-.87.66-1.66,1-2.44a9.05,9.05,0,0,1,.55-1c.18-.25.48-.55.69-.79L8,13.72,7,12.82c-.41-.39,1.67,1.37.13.07l1.23,1-.49.56a3.28,3.28,0,0,0-.32.44c-.19.33-.35.69-.52,1.06l-.47,1.1L6,18.26l-2.81-.92-.48,1.4c-.06,0-.93,2.58-.34.53l-.85,2.54.84.18,2.23.45L4.43,23c-.07.2-.14.4-.2.61a8.71,8.71,0,0,0-.18,1.2q0,.58-.06,1.17c0,.37,0,.84,0,1.1l-2.4.73h0c.33-.1.21-.05,0,0l.1.44c.41,2.29.36,2.22.29,2.09s-.07-.16-.05,0a3.52,3.52,0,0,0,.06.46l.24,1.3,2.14-.34,1-.16-.26-.31-.1.33a.62.62,0,0,0,0,.28c0,.12,0,.1,0-.07a3.41,3.41,0,0,1,.16-.53l.2.24-1.19.16-1.61.25-.24,0L2.14,30.8c-.05-.26-.05-.32.07.23l.16.83,3-.47-.08-.1-.14.45a1,1,0,0,0,.1.46,7.77,7.77,0,0,0,.4.82c.28.55.59,1.1,1,1.72l.47.72.19.32-2,2,1,1.33c2.38,3.29-.24-.2-.35-.3l2,2.69.17-.12,1.28-.92.56-.41a3.77,3.77,0,0,1,.44-.28c.08.14.14.25.25.41a2.16,2.16,0,0,0,.39.48,8.77,8.77,0,0,0,1,.63l1,.54.82.43-.41.87-.5,1.08.12-.31c.35-.73.33-.75.16-.43l-.35.68-.57,1.12.83.36,1,.4,1.18.47,1.78.75.92-1.6.45-.77.18-.31.08-.13c0-.07.08,0,.11,0l.7.37a4.09,4.09,0,0,0,.82.37,12.16,12.16,0,0,0,1.65.26l.59.07h-.21l.29,0,.26,3.08h.19l.91,0h.92l2.54,0V47.57l-.05-1.77v-.32c0-.08.18-.07.29-.11l1.22-.28,1.4-.27.58-.11c.1-.06.12,0,.15.11l.1.24,1,2.4,4-1.63-1.12-2.67s-.06-.13,0-.17l.09,0,.09,0c.09-.05.43-.21.68-.36a4.91,4.91,0,0,0,.69-.53c.33-.3.39-.36-.44.23,1-.72,1.93-1.57,2.76-2.29l2.1,1.92,3.09-3.14-2-2c-.08,0,0-.08,0-.13l.11-.15.26-.38c.26-.5,1.2-1.7,1.14-2.46,0-.35,0-.52-.07-.32l-.18.59A3,3,0,0,1,42.42,35Z" transform="translate(-1.55 -1.69)"/><path d="M6.57,12.12l1.75,1.46-.38-.34C7.35,12.71,7.36,12.78,6.57,12.12Z" transform="translate(-1.55 -1.69)"/><path class="cls-1" d="M43.49,10.89l-1.74-2.1-.85.58-.28.21c-.11.08,0,.05.28-.15l.83-.54,3.52,4.33-1.89,1.23a2.15,2.15,0,0,0,.47-.26l1.49-1Z" transform="translate(-1.55 -1.69)"/><path d="M5.68,37l-.84.82L6.18,39.6,5.83,39l-.6-.82-.33-.43c.09-.11.06-.09.14-.18l.23-.25Z" transform="translate(-1.55 -1.69)"/><path class="cls-1" d="M36,7.58s.23-.51-.2.26l.33.25,1.57,1.16L35.87,7.83C36,7.54,36.11,7.4,36,7.58Z" transform="translate(-1.55 -1.69)"/><path class="cls-1" d="M33.15,3.73c.07.06.12.12.22.2.88.41,1.47.66,2.34,1.09C34.57,4.46,34.53,4.39,33.15,3.73Z" transform="translate(-1.55 -1.69)"/><path class="cls-1" d="M41.2,9.89c-.77.48-1.28.84-1.92,1.22a3.62,3.62,0,0,0-.73-1,8,8,0,0,0-.77-.61l-.87-.66-1.17-1,0,0c.85-1.51,1.16-2.09,1.23-2.25-.25-.1-.19-.05-.09,0l-.12.16-.06.08-.1.15a4.12,4.12,0,0,0-.41.8,1.08,1.08,0,0,1-.09.23l-.12.25-.3.56.67.51,1.91,1.51a3.2,3.2,0,0,1,.6.65,3.31,3.31,0,0,1,.34.61l.08.14c.28-.15.61-.39.77-.49l.41-.27.46-.32c.18-.12.12-.09,0,0S40.27,10.52,41.2,9.89Z" transform="translate(-1.55 -1.69)"/><path class="cls-1" d="M33.13,3.93l1.65.79-.85-.47-.45-.18A2.15,2.15,0,0,0,33.13,3.93Z" transform="translate(-1.55 -1.69)"/><polygon class="cls-1" points="39.78 8.39 39.94 8.28 40.02 8.22 40.14 8.35 40.46 8.73 40.03 8.19 38.67 9.07 39.78 8.39"/><path class="cls-1" d="M37.89,10.05a3.29,3.29,0,0,1,.82.87c.17.25.31.55.43.77.59-.39,1-.7,1-.69s.05-.06-.65.39l-.34.22c-.16-.3-.29-.56-.42-.75a2.49,2.49,0,0,0-.2-.26,2.62,2.62,0,0,0-.24-.24C38.17,10.25,38.13,10.23,37.89,10.05Z" transform="translate(-1.55 -1.69)"/><path d="M45.94,28.18l-1.22-.32c-.07,0-.23,0-.23-.09a1.19,1.19,0,0,0,.11-.26,7.52,7.52,0,0,0,.25-1.63L45,24.12c0-.32,0-.52.26-.52l.89-.19,2.1-.45-1-4.82-1.66.28-1.13.22a.3.3,0,0,1-.13,0l0-.12-.1-.31-.15-.41c-.11-.27-.21-.55-.35-.82L43,15.37l-.29-.62c0-.06.11-.08.16-.12l.35-.23L45,13.18,41.7,9.1l-2.31,1.57a2.63,2.63,0,0,0-.25-.35,4.13,4.13,0,0,0-.94-1L36.13,7.77l1.12-2,.16-.27C36.53,5,36.34,4.91,36,4.75l-.89-.49L32.71,3.09,31.86,5l-.31.69c0,.11-.11,0-.17,0L31,5.58A12.19,12.19,0,0,0,29.2,5l-.91-.19-.65-.13,0-1.58,0-.53V1.69l-5.5,0v.85l0,.52V4.91l-2.61.49L17.94,2.53l-.71.36s.4-.22.56-.32.1-.06-.05,0L16.87,3,16,3.37l-3,1.37.73,1.43c.17.35.22.46.2.37-.39-.92-.44-1.07-.24-.74a9.15,9.15,0,0,1,.44.81,6.27,6.27,0,0,1,.27.63,2.19,2.19,0,0,1,.1.34.25.25,0,0,1,0,.17c0,.06-.08.08-.13.13l-2.48,2-.31.25-.18.14c-.06,0-.12.13-.18,0l-.64-.46-1-.73L8.54,8.28l2,1.63.65.51.1.08.1-.08.21-.15L12,10l1.23-.9c-.54.35,2.05-1.56.74-.62l-.77.58-.92.65-.47.33-.27.2-.14.1c0,.07-.1,0-.14-.06.11.18.24-.05.37-.12L12,9.91l.78-.59L14.53,8a.54.54,0,0,0,.19-.21.57.57,0,0,0,0-.29A2.34,2.34,0,0,0,14.58,7c-.11-.3-.23-.58-.35-.84l-.35-.73-.27-.51.31-.16,2.25-1,1.5-.63.07,0L19.23,6l3.42-.62V2.2h4.08l.41,0-.06,1,0,1.92,1.28.25,1,.22c.62.14,1.06.28,1.28.35l.34.13.38.14.45.16A2.81,2.81,0,0,0,32,6l.48-1,.37-.77.08-.16L33,4,33,3.92l.09.07.15.08.57.31c.93.47,1.43.71,1.85.91s.92.41,1,.41l0,.09-.78,1.34-.19.29c0,.06-.05.06,0,0s.34-.71-.36.5l1.89,1.48c.33.27.75.58,1.05.83a4.17,4.17,0,0,1,.41.43l.08.12a2.11,2.11,0,0,1,.18.27l.31.58,1-.69.47-.33a3.56,3.56,0,0,0,.41-.31l.49-.31L44,13l-.08,0-.44.28-1.32.92-.27.18s-.06,0-.07.05l0,.08.08.15.28.57.33.67.68,1.39c.11.23.2.48.29.72l.12.37.06.18c0,.11.06.24.09.36l.26.23c.08.06.19.12.29.18L46.72,19l.58,2.51.22,1-1.44.34-.89.21-.38.09-.19,0-.1,0v.1l-.05.69-.1,1.76,0,.87c0,.14,0,.28,0,.41l0,.19a1.4,1.4,0,0,1-.1.34,2.74,2.74,0,0,1,.08.36c0,.09.13.19.2.29l2.78.59,0,.15s0,.25,0,.31,0,.11,0,.08a.62.62,0,0,0,.12-.23c.05-.12.1-.25.18-.49C47.23,28.53,46.65,28.37,45.94,28.18Z" transform="translate(-1.55 -1.69)"/></svg>