<svg id="Layer_1" data-name="Layer 1" xmlns="http://www.w3.org/2000/svg" viewBox="0 0 56.07 56.45"><defs><style>.cls-1{fill:#fff;}.cls-2{fill:#d1c9ac;}</style></defs><title>Untitled-1</title><path class="cls-1" d="M44.52,13.88c-1-.42.54.3,0,0a17.28,17.28,0,0,0-2.12-.77c.88.28.7.17.66.13s0,0,.2.05A8.1,8.1,0,0,1,44.52,13.88Z" transform="translate(-7.71 -4.79)"/><path class="cls-1" d="M41.14,13l-.4-.06-1-.28c-.28-.06-.37-.09,0-.05S40.55,12.86,41.14,13Z" transform="translate(-7.71 -4.79)"/><path class="cls-2" d="M43.09,14.65l-.71-.29c.36.14.56.14,1.11.36Z" transform="translate(-7.71 -4.79)"/><path class="cls-2" d="M16.06,38.75c0,.09,0,.21.08.42-.09-.07-.18-.31-.43-1.1l-.16-.67-.11-.77c-.07-.47-.12-.83-.06-.69l0,.18s0-.93,0-1.86c0-.21-.09.57-.2-.33a9.66,9.66,0,0,1,0-1.78,7.87,7.87,0,0,1,.21-1.6v-.87a15.24,15.24,0,0,1,.6-2.12l-.09.58a8,8,0,0,0,.55-1.39,12.1,12.1,0,0,1,.82-2.24c.33-.68.88-1.56,1.43-2.47a18.28,18.28,0,0,1,1.9-2.4,7,7,0,0,1,1.07-1.19,12.46,12.46,0,0,1,1.45-1.22c1-.8,2.1-1.39,2.62-1.84,1.31-.63,2-1,2.61-1.24a13.23,13.23,0,0,1,1.74-.73c1.11-.22.4,0-.43.25s-1.72.7-1.15.55a22.56,22.56,0,0,1,4.91-1.17,20.75,20.75,0,0,1,5.11.11c.85.05-.59-.25,1.16,0-.58,0,0,.13.64.31-.66-.18,0,0,.1,0L40,13.28c-.15-.14.42,0,1.18.22s1.64.62,2.22.76-.59-.22-.7-.19.47.3,1.87,1a16,16,0,0,1,3.62,2.28c.54.42,1,1,1.57,1.44s1,1.13,1.6,1.79c0-.17.52.63.87,1.07-.24-.26-.17-.1,0,.18l.58,1.05A7.65,7.65,0,0,1,54,24.82L53.74,24A7.12,7.12,0,0,0,53,22.74a9.85,9.85,0,0,0-1-1.4,8.43,8.43,0,0,0-1.44-1.85c-.64-.74-1.32-1.27-1.09-1.22l.39.39a31.46,31.46,0,0,1,3.25,3.76,15,15,0,0,1,1.22,2.84c.39,1.17.57,1.46.8,2.06a10.1,10.1,0,0,1,.45,2.16c.06.37,0-.17.07.2s.12,1,.18,1.4c.08.09,0-.38,0-1,0-.32-.07-.69-.14-1s-.16-.7-.24-1a6.48,6.48,0,0,1,.25.8c.1.36.06.3.06.36l.13.75s.08-.16.24.84a4,4,0,0,1,0,.6c.07,2,.3,3,.19.38l-.09-.22c0-.83-.15-1.65-.23-2.48,0-.42.24,1.15.32,1.17.08.18,0-.27,0-.89S56,28,55.9,27.48c-.3-.95.08.61.24,1.29l-.48-1.33c-.08-.38-.27-.91-.23-.9-.11-.42.17,0-.11-.72-.36-1.06-.46-1.05-.48-1s0,.1-.45-.74a29.62,29.62,0,0,1,1.32,4.4,7.79,7.79,0,0,1,.2.8c0,.35-.33-1.29-.08-.07-.29-1-.55-2.21-1-3.33a12.26,12.26,0,0,0-.6-1.59c-.21-.48-.37-.94-.56-1.27.06-.06-.75-1.56,0-.47a9.9,9.9,0,0,0-1.06-1.74,23.73,23.73,0,0,0-4.3-4.36c.24.2-.15-.05-.23-.07-.64-.51-.91-.73-1-.82s0-.09.07-.09.14-.14-1.87-1.2c-.71-.33-1.1-.47-.91-.32.5.29,1,.52,1.79,1,0,0,1.24.8.45.41-.44-.26-.81-.51-1.18-.69l-1-.45c-.64-.31-1.27-.48-2-.78l-.53-.13c-.62-.16-2.14-.55-3-.67-2.51-.43.2-.1.31-.15a16.59,16.59,0,0,0-2.1-.3,20.22,20.22,0,0,0-6.09.4l.19-.09c.59-.14.49-.15.13-.13s-.94.18-1.36.28l-.63.2c-.25.11-.6.29-1.05.46s-1,.34-1.49.62-1.1.5-1.62.81l-1.47.91c-.36.25-.53.34-.22.1-.61.45-1.29.85-1.87,1.36-.38.56-1.27,1.12-2.15,2.19-.6.73-.66,1-1.39,2.07-.45.64-.82,1.26-1.18,1.83s-.55,1.16-.82,1.72a36.63,36.63,0,0,0-1.22,3.63c0,.45-.21,2.2.11.88a20.68,20.68,0,0,0-.12,8.4l.2.57C15.44,39,16.87,41.6,16.06,38.75Z" transform="translate(-7.71 -4.79)"/><path class="cls-2" d="M55.43,29.8l-.09-.61-.15-.6v.17C55.27,29.23,55.35,29.18,55.43,29.8Z" transform="translate(-7.71 -4.79)"/><path class="cls-1" d="M32.48,54.93l.94.09.8,0c.42,0,.58,0,.16-.1a19.64,19.64,0,0,1-2.29-.21,11.7,11.7,0,0,1-2.25-.49,4.85,4.85,0,0,0,1.07.38C31.49,54.76,32.17,54.84,32.48,54.93Z" transform="translate(-7.71 -4.79)"/><path class="cls-2" d="M40.6,12.45a13.24,13.24,0,0,0-1.86-.35l.4.15a4.94,4.94,0,0,0,.91.13C40.1,12.36,40.09,12.33,40.6,12.45Z" transform="translate(-7.71 -4.79)"/><path class="cls-1" d="M38.84,53.88s.39-.15-.4,0a8.28,8.28,0,0,1-1.19.22A7.23,7.23,0,0,0,38.84,53.88Z" transform="translate(-7.71 -4.79)"/><path class="cls-1" d="M42.86,52.63l-.24-.07a6.5,6.5,0,0,1-1.49.55A8.19,8.19,0,0,0,42.86,52.63Z" transform="translate(-7.71 -4.79)"/><path class="cls-1" d="M34.44,53.89a7,7,0,0,0,2.24,0c.55-.07,1-.1,1.94-.17a4.53,4.53,0,0,0,1.73-.44c0-.07-.31,0-.61,0-1,.16,0,.17-1.53.46a10.65,10.65,0,0,1-2.38,0C33.26,53.65,35.83,53.9,34.44,53.89Z" transform="translate(-7.71 -4.79)"/><polygon class="cls-1" points="35.03 47.52 33.93 47.92 34.51 47.81 35.03 47.52"/><polygon class="cls-1" points="26.75 48.67 25.77 48.68 27.53 48.78 26.75 48.67"/><path class="cls-1" d="M36.79,53.17l-.78,0c-.57.08-1,.07-.38.14A4.49,4.49,0,0,0,36.79,53.17Z" transform="translate(-7.71 -4.79)"/><path class="cls-2" d="M18.79,45.8a19.06,19.06,0,0,0,6.83,6.48c.65.24,1.3.58,2.08.81a18.4,18.4,0,0,0,2.13.83c.55.13,1.12.31,1.71.4l1.74.23c.57,0,1.11,0,1.6,0a6,6,0,0,0,1.27-.09l.83,0,.75-.06.88-.14A8.44,8.44,0,0,0,40.22,54a13.36,13.36,0,0,1,1.66-.23,20.78,20.78,0,0,0,6.58-3.39,5.32,5.32,0,0,0,.83-.53l.89-.85c.63-.57,1.16-1.28,1.66-1.67a14.21,14.21,0,0,0,3-4.91s-.23.8.27-.12l.15-.36a.82.82,0,0,0,.08-.22,16.4,16.4,0,0,0,.89-2.54c0-.25,0-.33,0-.28-.38,1.16-.34.4-.18-.85a20.59,20.59,0,0,0,.09-3.95v-.83a32.19,32.19,0,0,1-.35,3.4c.13-.39-.22,1.57,0,.6l.08-.59c.09-.46.2-.92.28-1.38a24.29,24.29,0,0,1-.39,2.51c-.21.85-.39,1.55-.54,2.19s-.44,1.07-.62,1.4l-.58.93a25.26,25.26,0,0,1-3.76,5.33,21.52,21.52,0,0,1-1.63,1.46c-.38.24-.62.35-.88.5a9.42,9.42,0,0,1-1.47,1c-.53.31-1,.62-1.14.73a15.75,15.75,0,0,1-1.83.7l-1.2.25c-.65.22-1,.28-1.26.37l-1,.34c-2.69.43.52-.29-2.55.14-.58,0-1.25.07-1.78.13a3.28,3.28,0,0,0-.91.07c-.34,0-.7-.07-1.07-.09s-.74-.11-1.1-.16-.71-.1-1-.16l-.82-.25c-2.14-.27-4.56-1.67-6.7-3a22.51,22.51,0,0,1-5.41-5.34c-.25-.2-.37-.2-.35,0A3.66,3.66,0,0,0,18.79,45.8Z" transform="translate(-7.71 -4.79)"/><path class="cls-1" d="M45.17,12.46c-1-.44.58.32,0,0a18.16,18.16,0,0,0-2.27-.84c.94.31.75.19.71.15s0,0,.21,0A10.27,10.27,0,0,1,45.17,12.46Z" transform="translate(-7.71 -4.79)"/><path class="cls-1" d="M41.56,11.5l-.44-.06-1.07-.3c-.3-.06-.4-.09,0-.05S40.92,11.34,41.56,11.5Z" transform="translate(-7.71 -4.79)"/><path class="cls-2" d="M43.68,13.2l-.78-.3c.39.14.61.15,1.2.39Z" transform="translate(-7.71 -4.79)"/><path class="cls-2" d="M14.56,39.17c0,.1,0,.23.09.45-.09-.07-.19-.33-.45-1.19L14,37.71l-.12-.82c-.07-.51-.12-.89-.06-.75l0,.2c0-.05,0-1-.06-2-.05-.22-.08.62-.2-.35a10.21,10.21,0,0,1,0-1.91,9.2,9.2,0,0,1,.21-1.73l0-.94a16.26,16.26,0,0,1,.64-2.28l-.11.63a8.28,8.28,0,0,0,.58-1.5,14,14,0,0,1,.89-2.42c.21-.35.39-.79.68-1.23l.87-1.42a19,19,0,0,1,2-2.59,7.17,7.17,0,0,1,1.15-1.27A14.67,14.67,0,0,1,22.19,16c1.09-.86,2.26-1.49,2.82-2,1.41-.68,2.17-1.08,2.81-1.33a14.72,14.72,0,0,1,1.87-.77c1.2-.25.44,0-.46.26s-1.86.75-1.24.57a24.46,24.46,0,0,1,5.29-1.25,22.44,22.44,0,0,1,5.5.12c.91.06-.63-.26,1.24,0-.62,0,0,.13.69.32-.7-.19,0,0,.11,0l-.51-.14c-.16-.15.46,0,1.27.24s1.77.67,2.39.81-.64-.23-.75-.2.51.3,2,1.11a17.3,17.3,0,0,1,3.9,2.46c.58.46,1.09,1,1.69,1.55s1.13,1.21,1.73,1.92c-.05-.18.56.69.93,1.16-.26-.28-.18-.12,0,.2l.63,1.11c.24.37.42.56.61.82a9,9,0,0,1,.66,1.23l-.28-.91a8.25,8.25,0,0,0-.77-1.33l-.54-.83c-.18-.27-.38-.49-.52-.68a9.77,9.77,0,0,0-1.57-2c-.68-.8-1.42-1.37-1.17-1.32l.42.42a34.47,34.47,0,0,1,3.49,4.06,17.08,17.08,0,0,1,1.33,3c.42,1.25.61,1.57.86,2.21a12.2,12.2,0,0,1,.48,2.34c.07.39,0-.19.08.21s.12,1.11.19,1.51c.08.09,0-.41,0-1.11,0-.34-.08-.74-.16-1.12L57,27.6c.1.33.15.4.26.86s.07.32.07.39l.13.8s.09-.17.26.91a4.7,4.7,0,0,1,0,.65c.08,2.14.32,3.19.19.4l-.09-.23c0-.89-.17-1.77-.25-2.67,0-.45.25,1.24.33,1.27s0-.3,0-1-.31-1.47-.42-2c-.32-1,.09.66.27,1.39L57.15,27c-.08-.41-.29-1-.24-1-.12-.45.17,0-.13-.77-.39-1.14-.49-1.13-.51-1.11s0,.11-.48-.79a31.93,31.93,0,0,1,1.44,4.72,6.68,6.68,0,0,1,.2.86c0,.38-.34-1.39-.07-.08-.31-1.07-.59-2.38-1-3.58a14.17,14.17,0,0,0-.66-1.71,11.26,11.26,0,0,0-.61-1.36c.07-.06-.81-1.66,0-.5a11,11,0,0,0-1.15-1.86,25,25,0,0,0-4.6-4.68c.25.22-.17-.06-.25-.08L48,14.23c-.1-.11,0-.09.07-.1s.15-.13-2-1.28c-.77-.36-1.19-.51-1-.35l.84.46c.32.16.66.35,1.08.61,0,0,1.33.85.49.43-.47-.29-.87-.55-1.26-.74l-1.11-.49c-.68-.33-1.36-.52-2.19-.85l-.56-.14c-.66-.17-2.29-.59-3.22-.72-2.7-.45.21-.1.33-.15a19,19,0,0,0-2.25-.31,21.58,21.58,0,0,0-6.55.43l.22-.1c.62-.14.51-.16.13-.13a13.6,13.6,0,0,0-1.45.31l-.69.21c-.26.11-.64.3-1.12.48s-1,.37-1.6.67-1.19.54-1.75.87l-1.57,1c-.39.28-.56.37-.23.11-.66.49-1.38.92-2,1.47-.42.59-1.37,1.2-2.32,2.34-.64.79-.71,1.13-1.5,2.22-.48.69-.88,1.35-1.26,2s-.59,1.25-.88,1.84-.44,1.23-.69,1.86-.38,1.32-.62,2.05c-.06.48-.23,2.35.1.93a22.12,22.12,0,0,0-.11,9l.21.62C13.94,39.46,15.44,42.23,14.56,39.17Z" transform="translate(-7.71 -4.79)"/><path class="cls-2" d="M57,29.53l-.1-.66-.17-.64,0,.19C56.79,28.92,56.87,28.87,57,29.53Z" transform="translate(-7.71 -4.79)"/><path class="cls-1" d="M32.26,56.47c.34,0,.69.08,1,.1h.85c.45,0,.62-.05.17-.1s-.86,0-1.27-.08l-1.18-.15a12.64,12.64,0,0,1-2.41-.53,4.86,4.86,0,0,0,1.14.41C31.2,56.29,31.93,56.38,32.26,56.47Z" transform="translate(-7.71 -4.79)"/><path class="cls-2" d="M41,10.94a15,15,0,0,0-2-.38l.43.15a4.29,4.29,0,0,0,1,.14S40.42,10.8,41,10.94Z" transform="translate(-7.71 -4.79)"/><path class="cls-1" d="M39.09,55.42s.41-.16-.44,0a11.07,11.07,0,0,1-1.28.23A8.64,8.64,0,0,0,39.09,55.42Z" transform="translate(-7.71 -4.79)"/><path class="cls-1" d="M43.41,54.09,43.16,54a7.57,7.57,0,0,1-1.61.59A9,9,0,0,0,43.41,54.09Z" transform="translate(-7.71 -4.79)"/><path class="cls-1" d="M34.35,55.44a7.45,7.45,0,0,0,2.41,0l2.09-.18a4.7,4.7,0,0,0,1.86-.47c0-.06-.33,0-.65,0-1.05.17,0,.17-1.65.47a11.42,11.42,0,0,1-2.56.06C33.08,55.2,35.85,55.46,34.35,55.44Z" transform="translate(-7.71 -4.79)"/><polygon class="cls-1" points="35.58 48.98 34.39 49.41 35.02 49.29 35.58 48.98"/><polygon class="cls-1" points="26.66 50.23 25.61 50.23 27.5 50.34 26.66 50.23"/><path class="cls-1" d="M36.88,54.72l-.83.05c-.62.08-1,.07-.41.14A5.3,5.3,0,0,0,36.88,54.72Z" transform="translate(-7.71 -4.79)"/><path class="cls-2" d="M17.54,46.73a20.7,20.7,0,0,0,7.35,6.93c.71.26,1.4.62,2.24.88a19.15,19.15,0,0,0,2.28.88c.6.14,1.21.34,1.84.43l1.87.25c.6,0,1.18,0,1.71,0h.74l.63-.09.89,0,.79-.06,1-.15a9.47,9.47,0,0,0,1.72-.36,15,15,0,0,1,1.77-.26,22.28,22.28,0,0,0,7.07-3.63,5.49,5.49,0,0,0,.88-.58c.31-.27.63-.59,1-.91.68-.61,1.24-1.37,1.78-1.79a15.72,15.72,0,0,0,3.25-5.26s-.26.85.27-.14l.16-.38.1-.23a19.42,19.42,0,0,0,1-2.73c0-.27,0-.36,0-.3-.4,1.25-.34.43-.16-.91a22.16,22.16,0,0,0,.13-4.23v-.9a32.41,32.41,0,0,1-.38,3.65c.14-.41-.23,1.7,0,.65l.09-.64c.09-.49.21-1,.29-1.48a26.11,26.11,0,0,1-.42,2.7c-.26,1-.47,1.94-.59,2.35A16.44,16.44,0,0,1,56.07,42l-.61,1a26.27,26.27,0,0,1-4.05,5.74,20.3,20.3,0,0,1-1.75,1.57c-.41.26-.66.38-.94.54A9.71,9.71,0,0,1,47.14,52c-.57.34-1,.67-1.23.78a16.65,16.65,0,0,1-2,.77l-1.29.28c-.69.25-1,.31-1.35.41l-1,.35c-2.9.47.55-.29-2.75.18-.62,0-1.34.07-1.91.13a4.17,4.17,0,0,0-1,.06c-.37,0-.76-.06-1.16-.09s-.79-.12-1.18-.17-.76-.11-1.1-.18l-.89-.26c-2.3-.31-4.92-1.79-7.22-3.19a24.27,24.27,0,0,1-5.81-5.76c-.27-.23-.39-.23-.36,0A4,4,0,0,0,17.54,46.73Z" transform="translate(-7.71 -4.79)"/><path class="cls-1" d="M39,26c-.36-.14.2.13,0,0a7.76,7.76,0,0,0-.82-.25C38.8,25.91,37.9,25.44,39,26Z" transform="translate(-7.71 -4.79)"/><path class="cls-1" d="M37.62,25.82h-.15c-.21-.08-.65-.19-.35-.17A3.29,3.29,0,0,0,37.62,25.82Z" transform="translate(-7.71 -4.79)"/><path class="cls-2" d="M38.12,27l-.24-.11a2.07,2.07,0,0,1,.39.09Z" transform="translate(-7.71 -4.79)"/><path class="cls-2" d="M28.86,35.15v.15c-.07,0-.12-.09-.23-.36s-.15-.84-.08-.75l0,.07a1.48,1.48,0,0,0,.07-.66c-.05-.07-.11.21-.19-.1a3,3,0,0,1,.12-1.18L28.5,32a2.77,2.77,0,0,1,.28-.72v.21c.08-.13.12,0,.27-.45a3.48,3.48,0,0,1,.22-.8,10.52,10.52,0,0,1,1.17-1.66c.26-.61,1.43-1.14,1.72-1.54a11.6,11.6,0,0,0,1.48-.81c.4,0,.16.07-.12.18s-.59.29-.38.27a7.16,7.16,0,0,1,3.47-.37c.3,0-.19-.2.42-.13-.21,0,0,.14.21.2-.23-.07,0,0,0-.06l-.16-.06c-.07-.22.8.22,1.21.3.15.12-.21-.08-.26,0s.12.22.59.5A6.07,6.07,0,0,1,41,28.94c0-.08.2.21.32.35-.19-.16,0,.27.12.47s.33.19.5.6V30a3.93,3.93,0,0,0-.64-.88c0-.29-1-1.1-.81-1.13l.12.14c.43.56.83.7,1.25,1.25a3.6,3.6,0,0,1,.29,1.07,2.17,2.17,0,0,0,.32.71,1.83,1.83,0,0,1,.11.77c0,.13,0-.07.05.06a3.34,3.34,0,0,0,0,.49c.12.06.06-.67,0-1.1a1.26,1.26,0,0,1,.11.28c0,.13,0,.11,0,.13l.06.26s.1-.06.16.29c0,.08,0,.15,0,.22,0,.71.21,1.07.17.13L43,32.63c0-.29,0-.59,0-.9s.12.41.2.41,0-.68-.05-1,0,.24,0,.49l-.26-.47c0-.13-.09-.33,0-.34,0-.16.16,0,0-.29-.28-.78-.13,0-.43-.61,0,.22.35,1.27.34,1.64,0,.1.05.19.07.29s-.13-.46-.07,0c-.22-.7-.45-1.72-.66-2.26.08-.05-.18-.63.18-.27a2.66,2.66,0,0,0-.37-.66A12.29,12.29,0,0,0,40.34,27c.08.08-.08,0-.11,0-1-.73.57-.15-.95-1-.28-.12-.44-.14-.37-.06a5,5,0,0,0,.65.41s.45.31.13.21A7.49,7.49,0,0,0,38.1,26h-.21c-.22-.06-.78-.16-1.09-.23-.92-.19.08-.12.13-.18a5.08,5.08,0,0,0-.78-.13c-.9.07-1.52-.19-2.27.13l.07-.06c.43-.14-.17-.14-.49,0l-.23.1c-.33.27-1.46.6-2.09,1.11-.14.1-.21.11-.09,0a7.11,7.11,0,0,0-.74.47c-.07.29-.47.43-.8.84s-.18.45-.43.85a8.26,8.26,0,0,0-1.25,2.66c.06.18,0,.83.23.36a7.22,7.22,0,0,0-.2,3.1l.11.21C28.26,35.38,29.07,36.16,28.86,35.15Z" transform="translate(-7.71 -4.79)"/><path class="cls-2" d="M42.34,32.08a1.86,1.86,0,0,0-.08-.41l0,.06C42.23,31.9,42.31,31.87,42.34,32.08Z" transform="translate(-7.71 -4.79)"/><path class="cls-1" d="M34.36,41.77c.5,0,1.08-.07.76-.13a5.62,5.62,0,0,1-1.77-.26C33.32,41.48,34.12,41.71,34.36,41.77Z" transform="translate(-7.71 -4.79)"/><path class="cls-2" d="M37.48,25.37c-.23-.06-.47-.09-.7-.13l.14.11C37.48,25.49,37.1,25.29,37.48,25.37Z" transform="translate(-7.71 -4.79)"/><path class="cls-1" d="M36.77,40.76s.13-.12-.16,0a3.38,3.38,0,0,1-.42.13C36.26,40.84,36.92,40.81,36.77,40.76Z" transform="translate(-7.71 -4.79)"/><path class="cls-1" d="M38.18,40.19l-.11-.11a1.43,1.43,0,0,1-.52.23A1.74,1.74,0,0,0,38.18,40.19Z" transform="translate(-7.71 -4.79)"/><path class="cls-1" d="M35.17,40.62a1.3,1.3,0,0,0,.8,0,1.64,1.64,0,0,1,.69,0c.91-.19.59-.3.37-.35s0,.16-.52.3a1.84,1.84,0,0,1-.84-.07C34.76,40.41,35.67,40.6,35.17,40.62Z" transform="translate(-7.71 -4.79)"/><polygon class="cls-1" points="30.36 35.08 29.97 35.22 30.2 35.24 30.36 35.08"/><polygon class="cls-1" points="27.48 35.41 27.14 35.45 27.75 35.49 27.48 35.41"/><path class="cls-1" d="M36,39.91h-.26c-.19.06-.32.08-.12.13S35.86,40,36,39.91Z" transform="translate(-7.71 -4.79)"/><path class="cls-2" d="M29.44,37.85a6,6,0,0,0,2.35,2.65c.26.07.52.17.82.24a7.92,7.92,0,0,0,.78.37,4.54,4.54,0,0,0,2.4.1c.16,0,.16,0,.32.06a5,5,0,0,0,1.2-.26A2.53,2.53,0,0,1,38,41a7.33,7.33,0,0,0,2.5-1.28c.47-.07.87-.91,1.32-1.13a3.57,3.57,0,0,0,1.07-1.91s0,.33.2,0c0-.08.08-.23.07-.23a4,4,0,0,0,.34-1q0-.15,0-.12c-.2.43-.27.1-.3-.38a7.65,7.65,0,0,0-.24-1.46l0-.3c-.06.36-.08.74-.16,1.2.09-.13,0,.56.08.22l0-.21L43,34c0,.43-.26,1.4-.27,1.7a2.2,2.2,0,0,1-.55.78,13.32,13.32,0,0,1-1.34,1.89c-.54.55-.73.55-.95.6-.24.26-.81.52-.89.66a2.17,2.17,0,0,1-1.13.13,2.13,2.13,0,0,0-.75.29c-.92.13.14-.25-.89-.11a3,3,0,0,0-.6.07c-.17,0-.31.06-.31.09a5,5,0,0,1-1.35-.27c-.78,0-1.51-.61-2.3-.93a9.65,9.65,0,0,1-1.95-1.76C29.4,37.05,29.24,37.29,29.44,37.85Z" transform="translate(-7.71 -4.79)"/><path class="cls-1" d="M11.77,40.79a1.39,1.39,0,0,0,.1.69l.07.15a3.43,3.43,0,0,1-.12-.44,1.11,1.11,0,0,1,.07-.67s0-.06,0,0,0,.1-.09.31a1.32,1.32,0,0,0,.1.69c.07.19.15.35.23.52q.24.5.51,1c.35.62.71,1.24,1.08,1.84-.91-1.49-.74-1.14-.72-1s0,0-.2-.32c-.1-.17-.24-.43-.44-.82q-.15-.29-.33-.69-.09-.19-.18-.45A1.44,1.44,0,0,1,11.77,40.79Z" transform="translate(-7.71 -4.79)"/><path class="cls-1" d="M13.81,46.41l-.52.58-1.2,1.13c.47.67.79,1.15.15.3l-.21-.3Z" transform="translate(-7.71 -4.79)"/><path class="cls-2" d="M13.63,42.24c.22.44.46.89.71,1.33-.37-.66-.63-1-1.11-2Z" transform="translate(-7.71 -4.79)"/><path class="cls-2" d="M56.46,44.64l.2-.26a3.17,3.17,0,0,0,.28-.36.86.86,0,0,1,0,.15l-.21.35c-.2.31-.49.71-1,1.42l-.47.62c-.06.12-.23.24-.21.36l.33.32,1.11,1.1c.72.72.83.83.9.92s-.05,0,0,0l-.11-.11s0,.05,0,.11l-.2.15-.1.09-.3.29c-.41.4-.88.88-1.36,1.38-.25.32.86-.73-.31.59l-.41.44L52.09,50,50.85,51,50,51.7c-.4.4-.8.79-1.21,1.16a4,4,0,0,1-.95.58l-.33.14a.46.46,0,0,0-.28.17,4.18,4.18,0,0,1-.34.31,2.42,2.42,0,0,0-.11.56l.69,1.75-.5-1a6.45,6.45,0,0,1,.21.69c0,.13.1.3.21.59l.24.6,0,0c-.34.2-2.34,1-3.12,1.36l0,0-.06-.19L44.26,58l-.52-1.27-.46-1.12c0-.3-.31-.12-.51-.11l-.64.13-1.69.35-1.53.32-1.24.27s-.13,0-.14.06v3.55a1.94,1.94,0,0,1-.38,0l-1.2,0h-2.1c-.11-1.2-.22-2.44-.33-3.6L32.4,56.5l-.73-.08c-.42-.05-.82-.1-1.17-.17l-.47-.1a3.23,3.23,0,0,1-.41-.18l-.87-.4-.55-.29-.26-.14-.13-.06s-.09-.06-.11,0l-.55,1-.68,1.17-.52.91-.2.38L21.83,57l-.52-.26c.08-.14.08-.12.05,0l.3.1.54.21,1.73.7c1.11.45,1.91.76,1.12.37l-3.41-1.49,1.7-3.51-1.63-.8-1.05-.56c-.35-.19-.7-.39-1-.59a1.73,1.73,0,0,1-.2-.15l-.07,0h0s0,0-.1.07h0l.1-.09h0l0,0a4.21,4.21,0,0,1-.46-.68,4.49,4.49,0,0,1-.55-.28,3.08,3.08,0,0,0-.61,0l-2.29,1.62-1.28-1.75c-.52-.64-.38-.37-.36-.29s0,0-.17-.15l-.8-1.05c.3.35.21.14.07-.1l.18-.16.29-.27c-.64.61-.11.05.09-.18l-.52.49c-.07,0-.09,0-.05,0l.1-.12.21-.22,2-1.91c-.39-.67-.8-1.37-1.19-2s-.6-1.06-.85-1.5c-.41-.94.56,1.07.72,1.19,0,0-.05-.27-.28-.77l-.45-1c-.08-.19-.18-.45-.24-.62s0-.09.12-.5l.35-1-1.09.15-.58.08-2.24.37c0-.11-.62-3.38-.62-3.46l.85-.24,1.95-.57,0-1.17,0-.7c0-.45,0-.91.07-1.37a9.06,9.06,0,0,1,.19-1.33c0-.08.2-.58.33-1s.29-.81.44-1.22l-1.8-.38c.14,0,0,0-.18,0L10,28.63,8.91,28.4v0h0c.15,0,.13,0,.09-.05l.06-.12,0-.07s0,0,0,0l.07-.18c.16-.5.34-1,.47-1.39.17-.58.27-1,.37-1.38l.07-.31,0-.15v-.05a1.48,1.48,0,0,1,0-.24c.15,0,.08,0,.86.26l-.36-.15-.19-.07-.08,0-.32-.17,0,.05c-.11.33-.33,1-.58,1.83-.15.49-.31,1-.47,1.53l-.16.55-.08.28.28.05a.72.72,0,0,0,.21.07l.67.17,2.42.52-.46,1.3-.11.32-.06.17,0,.09a3.54,3.54,0,0,0-.09.38c-.09.56-.13,1.12-.16,1.59-.05.95-.06,1.54-.13,1.29l.05-1.06a16.1,16.1,0,0,1,.21-1.92,3.49,3.49,0,0,1,.1-.38l.2-.59.39-1.14-1.35-.26-1-.18-.86-.15-.61-.09L8.66,28,9,26.84c.48-1.37.88-2.5,1-2.79l.37.15.17.07.3.11,1.35.49,1.21.38c.39-1,.65-1.71.88-2.33s.34-.88.55-1.38c.11-.23.21-.44.31-.63a2.72,2.72,0,0,1,.41-.55l.58-.65.14-.16s-.08-.08-.12-.13l-.29-.24c-.86-.74-1.12-1-1.6-1.41s.24.24-.34-.23L13.35,17l.24-.27.37-.44c0-.08-.07,0-.25.19l-.5.53.48.42.92.78,1.1.93.32.26c0,.05.13.09.11.14l-.13.15-.5.56a5.49,5.49,0,0,0,.57-.75l-.94-.76c-.61-.5-.45-.4-.54-.49l-1.11-.9s0,.15-.55-.32l.42-.51.79-.82c2.53-3,3.6-4.51.36-.69l-.22.39-1.47,1.64,1.72,1.5c.54.55-1.75-1.37-1.9-1.39s-.1,0,.15.2l1.1,1,1.32,1.13.14.12a1.49,1.49,0,0,1-.12.14L15,20a3.18,3.18,0,0,0-.44.61c-.41.86-.26.61.08,0a5.17,5.17,0,0,1,.72-.9l.09-.1-.11-.1-.21-.17L14.74,19l.5.37.26.19c.05.07-.09.16-.13.24a4.46,4.46,0,0,0-.71,1.09c-.34.66-.77,1.65-.79,1.6-.35.75-.11-.18-.64,1.2l-.25.67c-.53-.16-.8-.23-1-.27s-.13,0-.12,0,0,.07-1.61-.42c.2.09.55.22,1,.39l1.82.62c.45-1.13.87-2.15,1.34-3.13a5.83,5.83,0,0,1,.75-1.26l.51-.55.11-.12s.1-.09,0-.12l-.21-.18-1.35-1.12c-.24-.24.27.17.6.44a2.29,2.29,0,0,0,.3.24l-.72-.62.68.55a7.91,7.91,0,0,1,.86.74l-.8.91a4.25,4.25,0,0,0-.43.74c-.28.55-.53,1.13-.78,1.71l-.37.87-.43,1.09-1.94-.65-1.43-.49c-.21.59-.41,1.14-.58,1.6-.1,0-1.17,3.07-.5.62-.36,1.09-.55,1.51-1.07,3.11l1,.22,2.65.51-.22.62c-.07.2-.14.38-.22.66a11,11,0,0,0-.22,1.44c0,.47-.06.93-.08,1.4l0,.71v.54l-2.88.88h0c.39-.11.26-.06,0,0,.05.2.11.46.13.53l.28,1.63.1.76c0,.31,0,.26-.08.18s-.11-.2-.1,0a3.81,3.81,0,0,0,.07.56l.3,1.7L11.23,41l1.18-.2-.48-.58a2,2,0,0,0-.15.78c0,.15,0,.12.05-.08a1,1,0,0,1,.09-.38l.1-.28.38.44L11,40.88c-.54.07-1,.14-2,.31l-.29,0c-.06-.37-.16-1-.23-1.43s0-.4.12.28l.19,1,2-.32,1.6-.27-.16-.18-.16.55a1.2,1.2,0,0,0,.13.57c.14.34.3.66.47,1,.35.65.72,1.31,1.14,2l.57.85.24.38-2.43,2.42c.44.59.84,1.14,1.16,1.59,2.84,3.94-.32-.21-.48-.31l2.37,3.29.21-.15,1.35-1,1-.74c.12-.07.25-.2.34-.2a2.12,2.12,0,0,0,.21.36c.08.14.17.26.31.46a2.57,2.57,0,0,0,.53.44c.35.25.7.45,1.05.66l1,.59.77.41c-.2.41-.65,1.35-1,2.23l.14-.38c.4-.88.37-.9.16-.52l-.44.8-.75,1.49,1,.45,1.28.52c.36.12.84.3,1.41.53l2.23.94,1.16-2,.52-.9.17-.3.09-.15c0-.08.1,0,.14,0l.73.38a4.92,4.92,0,0,0,1,.46,14.25,14.25,0,0,0,2,.31l.6.07c.06,0,0,0-.25,0l.33,0,.3,3.71h.22l.64,0,.6,0h1.09l3.17,0V59.79c0-.83-.06-1.42-.1-2l0-.37c0-.1.22-.08.34-.13l.59-.15.8-.19,1.66-.31.62-.12s.11,0,.12,0l.06.13.1.26L44,59.78l5-2c-.24-.55-.47-1.11-.71-1.69l-.57-1.38c0-.1-.13-.25-.09-.32l.1,0,.64-.36a5.64,5.64,0,0,0,.92-.69c.45-.43.59-.56-.48.17.6-.44,1.16-.91,1.72-1.37l1.57-1.34,2.51,2.33,3.8-3.83L56,46.86c-.09,0,0-.1,0-.16l.11-.18.27-.4c.27-.62,1.34-2.11,1.2-3,0-.43-.06-.63-.17-.39s-.12.34-.24.67a2.87,2.87,0,0,1-.25.54C56.89,44.09,56.68,44.34,56.46,44.64Z" transform="translate(-7.71 -4.79)"/><path class="cls-2" d="M14,17.25l2.3,1.91-.43-.41-.64-.55L14.91,18C14.7,17.81,14.47,17.64,14,17.25Z" transform="translate(-7.71 -4.79)"/><path class="cls-1" d="M58.18,15.77,55.9,13.06l-1.12.78a3.8,3.8,0,0,0-.46.34c-.06.05-.07.07,0,.05l.13-.07.33-.2,1.11-.73c1.63,2,3,3.72,4.56,5.6l-2.51,1.64a2.5,2.5,0,0,0,.56-.3c.17-.09,1.19-.75,2.08-1.32l-1.62-2.08Z" transform="translate(-7.71 -4.79)"/><path class="cls-2" d="M12.64,47l-1.11,1.08,1.7,2.29-.4-.68L12,48.61c-.21-.29-.33-.44-.4-.52.1-.13.06-.11.15-.22a3.07,3.07,0,0,1,.26-.29Z" transform="translate(-7.71 -4.79)"/><path class="cls-1" d="M48.94,12s.05-.18,0-.19l-.12.19-.16.28s0,.06,0,.08l.1.08.24.18L51,14c-.16-.11-.91-.71-1.56-1.22C48.41,12.37,49.28,11.67,48.94,12Z" transform="translate(-7.71 -4.79)"/><path class="cls-1" d="M45.61,7.54a1.67,1.67,0,0,1,.22.28l1.35.59c.44.2.88.4,1.4.66-.69-.34-1-.53-1.41-.74L46.51,8Z" transform="translate(-7.71 -4.79)"/><path class="cls-1" d="M55.2,14.89l-.93.57-.88.57c-.17,0-.36.17-.49.14a2.59,2.59,0,0,0-.37-.37,3.55,3.55,0,0,0-.23-.31,2.15,2.15,0,0,0-.19-.22,4.38,4.38,0,0,0-.39-.36l-.87-.63c-.29-.22-.61-.46-1-.74l-1.34-1.12c-.1,0,0-.11,0-.16l.1-.18.19-.34.31-.55.44-.81c.18-.34.27-.54.32-.65-.32-.12-.27-.05-.17,0l-.33.38-.23.42-.13.27a1.42,1.42,0,0,0-.07.25,1.45,1.45,0,0,1-.19.49l-.35.68c-.19.17.12.25.25.38l.56.42,1.9,1.51a6.51,6.51,0,0,1,.74.66c.09.11.18.21.25.31a4,4,0,0,1,.26.42,1.73,1.73,0,0,1,.36.29l.09.06a2.44,2.44,0,0,0,.55,0l1.11-.74.41-.29c.14-.11,0-.07-.1,0S54.19,15.58,55.2,14.89Z" transform="translate(-7.71 -4.79)"/><polygon class="cls-1" points="37.93 3.14 39.71 4 38.71 3.41 38.17 3.21 37.93 3.14"/><polygon class="cls-1" points="47.67 10.48 47.87 10.33 48 10.46 48.07 10.54 48.27 10.76 47.88 10.27 46.42 11.22 47.67 10.48"/><path class="cls-1" d="M51,15.25a2.87,2.87,0,0,1,.47.41l.21.23a5.13,5.13,0,0,1,.4.6h0l.68.17.69.15c.62-.44.74-.54,0-.08l-.33-.07-.33-.07-.66-.21a4.18,4.18,0,0,0-.36-.54l-.15-.15a2,2,0,0,0-.2-.17Z" transform="translate(-7.71 -4.79)"/><path class="cls-2" d="M60.84,36.62l-1.27-.35-.25-.07-.13,0,0,0,0-.06a3,3,0,0,0,.18-.47,5.23,5.23,0,0,0,.17-.92l.1-1c.07-.66.13-1.33.2-2l0-.36c.06-.09.23-.06.34-.1l1-.2,2.58-.54c-.39-1.95-.79-4-1.21-6.06l-2.15.34c-.39.09-1,.21-1.12.25s-.17.06-.23,0L59,24.84l-.27-.72q-.18-.45-.39-.9c-.21-.52-.43-1-.66-1.52l-.51-1.08.47-.29L60,18.76l-4.19-5.13-1.58,1.08-.56.39-.36.27c-.1.06-.2.18-.27.17a1.8,1.8,0,0,0-.18-.25l-.08-.1A4.78,4.78,0,0,0,51.68,14l-1.12-.84-1.16-.89-.11-.08.07-.12.13-.23.36-.66.77-1.45.19-.32-1.16-.61-.58-.32L48,7.9,45,6.43,43.86,8.91l-.3.66c0,.13-.14,0-.21,0l-.27-.1-.52-.19L42,9.09l-1.1-.28-1.08-.23-.63-.12c0-.6,0-1.17,0-1.74,0-.26.06-1.12.07-1.92-3.08,0-3.83.08-7,0l0,1v.48l0,.3c0,.67,0,1.34,0,2l-1.43.27-1.36.27c-.79-1.42-1.46-2.61-1.92-3.42l-.87.46c-.05,0,2.11-1.13-.56.06l-.65.32-.39.2-1.19.54L21.27,8.54l1,1.9c.21.41.28.53.25.42-.43-1.08-.53-1.38-.21-.89a8.54,8.54,0,0,1,.58,1,6.07,6.07,0,0,1,.34.73,1.76,1.76,0,0,1,.11.41c0,.17-.18.21-.27.31l-1.72,1.42L19.5,15.4l-2.1-1.47-1.3-1,3.4,2.72,2.31-1.75c-.66.41,2.45-1.86.86-.77l-.92.7L19.5,15.49l-.13-.11.13.1,1.75-1.35c.64-.48,1.27-1,2-1.49.19-.13.43-.26.38-.53a2.58,2.58,0,0,0-.15-.68c-.13-.38-.29-.73-.44-1.06s-.31-.65-.42-.87l-.33-.6a3.59,3.59,0,0,1,.35-.21L24.17,8l1.15-.48L27,6.88l.09,0,1.77,3.41,4.29-.77V7.19l0-1.45.78,0h3l.9,0,.42,0,0,.47v.1l0,.17,0,.35,0,2.44,1.67.33L41,9.9c.74.16,1.24.32,1.52.39l1,.38.53.19a3.21,3.21,0,0,0,.24-.45l.39-.85L44.94,9l.24-.48a2.75,2.75,0,0,1,.18-.34A2.12,2.12,0,0,1,45.52,8a3.47,3.47,0,0,0,.73.48c1.11.57,1.72.86,2.22,1.09l.36.16.18.08.12,0,.25.08,0,.1-.55.93-.5.81c-.24.37-.17.2-.11,0s.09-.28-.26.3l-.15.25-.09.15,0,.08.08.06.8.64,1.6,1.24,1.06.83a2.64,2.64,0,0,1,.39.36l.19.21a5.14,5.14,0,0,1,.37.54l.68.2.68.14c.91-.62,1.07-.74,1.33-.93s.37-.29.35-.3l.25-.15.05,0,.08,0,.07.09.38.48L56.91,17l.89,1.1.18.24.06.08-.1,0,0,0-.22.13-.78.57-1.42,1,.54,1,.38.72c.19.36.38.74.55,1.12s.34.76.5,1.15l.21.59.1.3a5.69,5.69,0,0,1,.16.59c.21.17.36.31.48.42s.36.22.54.34l2.6-.44.24,1,.43,1.73.2.95L61,30l-1.15.28-.89.21c-.1,0,0,.13-.06.18l0,.23,0,.46-.12,2.21,0,1c0,.18,0,.34,0,.48s0,.12,0,.25-.07.28-.11.42a4.69,4.69,0,0,1,.15.66,2.33,2.33,0,0,0,.37.53l2,.42,1.1.22,0,.18c.08.3.16.61.58-.51A18.61,18.61,0,0,0,60.84,36.62Z" transform="translate(-7.71 -4.79)"/></svg>